<svg fill="#F09" xmlns="http://www.w3.org/2000/svg" viewBox="0 0 1010 180"><path class="st0" d="M615.7.4c-51.1 0-92.5 40.1-92.5 89.6s41.4 89.6 92.5 89.6 92.5-40.1 92.5-89.6S666.8.4 615.7.4zm0 8c46.5 0 84.2 36.5 84.2 81.6 0 45.1-37.7 81.6-84.2 81.6s-84.2-36.5-84.2-81.6c0-45.1 37.7-81.6 84.2-81.6zm223.9 166.3V-.7l151.5 158.9V4h9.7v177.1l-151.5-159v152.6h-9.7zM256.4 3.6h9.6l74.3 157.1L415 3.6h10l-84.6 176.8-84-176.8zM84.3-1.1L.4 174.9h9.3l24.6-49.4h100.4l23.2 49.4 10.4-.2-84-175.8zm0 18.6l47.5 100H37.9l46.4-100z"/></svg>