<?xml version="1.0" encoding="utf-8"?>
<!-- Generator: Adobe Illustrator 21.0.0, SVG Export Plug-In . SVG Version: 6.00 Build 0)  -->
<svg fill="#FF0099" version="1.1" id="Layer_1" xmlns="http://www.w3.org/2000/svg" xmlns:xlink="http://www.w3.org/1999/xlink" x="0px" y="0px"
	 viewBox="0 0 1010 180" style="enable-background:new 0 0 1010 180;" xml:space="preserve">
<path fill="#FF0099" class="st0" d="M615.7,0.4c-51.1,0-92.5,40.1-92.5,89.6s41.4,89.6,92.5,89.6s92.5-40.1,92.5-89.6S666.8,0.4,615.7,0.4z
	 M615.7,8.4c46.5,0,84.2,36.5,84.2,81.6c0,45.1-37.7,81.6-84.2,81.6c-46.5,0-84.2-36.5-84.2-81.6C531.5,44.9,569.2,8.4,615.7,8.4z
	 M839.6,174.7V-0.7l151.5,158.9V4h9.7v177.1l-151.5-159v152.6L839.6,174.7z M256.4,3.6h9.6l74.3,157.1L415,3.6h10l-84.6,176.8
	L256.4,3.6z M84.3-1.1l-83.9,176h9.3l24.6-49.4h100.4l23.2,49.4l10.4-0.2L84.3-1.1z M84.3,17.5l47.5,100H37.9L84.3,17.5z"/>
</svg>
