<?xml version="1.0" standalone="no"?>
<!DOCTYPE svg PUBLIC "-//W3C//DTD SVG 1.1//EN" "http://www.w3.org/Graphics/SVG/1.1/DTD/svg11.dtd" >
<svg xmlns="http://www.w3.org/2000/svg" xmlns:xlink="http://www.w3.org/1999/xlink" version="1.1">
<metadata>
Created by FontForge 20161116 at Sat Oct 31 20:50:46 2015
 By Jimmy Warting
Copyright (c) 1989, 1991 Adobe Systems Incorporated.  All Rights Reserved. Utopia is either a registered trademark or trademark of Adobe Systems Incorporated in the United States and/or other countries. Used under license. The Utopia fonts are freely available; see http://tug.org/fonts/utopia.

Copyright (c) 2008-2012 Andrey V. Panov (panov@canopus.iacp.dvo.ru).

</metadata>
<defs>
<font id="Heuristica-Italic" horiz-adv-x="530" >
  <font-face 
    font-family="Heuristica"
    font-weight="400"
    font-style="italic"
    font-stretch="normal"
    units-per-em="1000"
    panose-1="2 2 6 3 5 7 5 9 2 4"
    ascent="750"
    descent="-250"
    x-height="490"
    cap-height="692"
    bbox="-72 -250 1181 920"
    underline-thickness="50"
    underline-position="-150"
    slope="-13"
    unicode-range="U+0020-04F9"
  />
<missing-glyph horiz-adv-x="608" 
d="M170 0v692h428v-692h-428zM213 93l147 253l-147 254v-507zM233 43h302l-151 261zM233 649l151 -260l150 260h-301zM408 346l147 -253v507z" />
    <glyph glyph-name="f_b" unicode="fb" horiz-adv-x="878" 
d="M-72 -184q0 19 14 34.5t31 15.5q12 0 27 -22q32 -49 53 -49q19 0 32 68l116 589h-90l11 38h87l11 37q14 47 30 81t43 67t68.5 50t97.5 17q75 0 116 -48l74 48l11 -9l-110 -437h2q56 99 124 152.5t128 53.5q54 0 80.5 -34t26.5 -92q0 -41 -16 -101.5t-50 -120.5
q-41 -73 -105 -119.5t-146 -46.5q-43 0 -78 19.5t-48 50.5l-31 -58h-36l141 613q-7 42 -32 68t-66 26q-55 0 -81.5 -43.5t-54.5 -147.5l-6 -26h129l-10 -38h-125l-93 -421q-33 -150 -72 -211.5t-112 -61.5q-36 0 -63 17t-28 41zM524 109q0 -38 22 -62t60 -24q51 0 93.5 43
t65.5 103t35.5 113t12.5 85q0 83 -54 83q-43 0 -93.5 -49.5t-88.5 -116.5q-53 -96 -53 -175z" />
    <glyph glyph-name="f_h" unicode="fh" horiz-adv-x="919" 
d="M-72 -184q0 19 14 34.5t31 15.5q12 0 27 -22q32 -49 53 -49q19 0 32 68l116 589h-90l11 38h87l11 37q64 215 239 215q75 0 116 -48l74 48l14 -9l-111 -454h3q50 95 123.5 159t141.5 64q58 0 74.5 -43t-4.5 -102l-79 -262q-17 -55 10 -55q19 0 45 35t45 71l24 -14
q-28 -63 -69 -103.5t-90 -40.5q-83 0 -52 108l82 284q9 31 0.5 50.5t-32.5 19.5q-40 0 -87 -42.5t-79.5 -93t-49.5 -94.5q-26 -66 -67 -220l-87 -12l140 625q-7 42 -32 68t-66 26q-52 0 -82 -46t-55 -145l-7 -26h129l-10 -38h-125l-93 -421q-33 -150 -72 -211.5t-112 -61.5
q-36 0 -63 17t-28 41z" />
    <glyph glyph-name="f_j" unicode="fj" horiz-adv-x="590" 
d="M-72 -184q0 19 14 34.5t31 15.5q12 0 27 -22q32 -49 53 -49q19 0 32 68l116 589h-89l11 38h87l11 37q14 48 31 83t44.5 67t68.5 48.5t94 16.5q75 0 118 -32.5t43 -70.5q0 -23 -17 -36.5t-38 -13.5q-23 0 -30 24q-25 94 -89 94q-52 0 -82 -46t-55 -145l-6 -26h107
q73 0 193 12l4 -5l-111 -491q-29 -130 -66 -177q-43 -54 -108 -54q-35 0 -62.5 17t-27.5 41q0 18 13 31.5t30 13.5q15 0 26 -20q27 -48 52 -48q18 0 24 32l119 563q7 26 1 36.5t-36 10.5h-165l-93 -421q-33 -150 -72 -211.5t-112 -61.5q-36 0 -63 17t-28 41z" />
    <glyph glyph-name="f_k" unicode="fk" horiz-adv-x="853" 
d="M-72 -184q0 19 14 34.5t31 15.5q12 0 27 -22q32 -49 53 -49q19 0 32 68l116 589h-90l11 38h87l11 37q63 215 241 215q76 0 117 -48l74 48l14 -10l-174 -732l-92 -12l148 623q-7 42 -33 69t-67 27q-51 0 -82.5 -48.5t-56.5 -142.5l-7 -26h129l-10 -38h-125l-93 -421
q-33 -150 -72 -211.5t-112 -61.5q-36 0 -63 17t-28 41zM563 267q75 91 155 161q88 74 140 74t52 -49q0 -20 -14.5 -37t-34.5 -17q-14 0 -28 8q-31 19 -49 19q-40 0 -142 -117q28 -101 75 -195q19 -40 31 -55.5t25 -15.5q34 0 80 99l25 -13q-50 -141 -138 -141
q-35 0 -59 22.5t-47 72.5q-46 101 -71 184z" />
    <glyph glyph-name="ff" unicode="ff" horiz-adv-x="612" 
d="M-72 -184q0 19 14 34.5t31 15.5q12 0 27 -22q32 -49 53 -49q19 0 32 68l116 589h-89l11 38h87l11 37q29 97 83 150.5t153 53.5q82 0 131 -51q54 62 134 62q45 0 79.5 -23t34.5 -55q0 -18 -16.5 -31t-32.5 -13q-19 0 -27 17q-17 37 -32 53.5t-35 16.5q-39 0 -65 -104
l-29 -113h130l-10 -38h-126l-90 -416q-31 -143 -71 -202t-111 -59q-33 0 -61 16t-28 40q0 19 13 33t30 14q15 0 27 -22q24 -44 50 -44q21 0 32 59l114 581h-202l-93 -421q-33 -150 -72 -211.5t-112 -61.5q-36 0 -63 17t-28 41zM302 490h205l10 37q10 37 24 72q-20 51 -42 74
t-55 23q-50 0 -80 -42t-55 -138z" />
    <glyph glyph-name="fi" unicode="fi" horiz-adv-x="607" 
d="M-72 -184q0 19 14 34.5t31 15.5q12 0 27 -22q32 -49 53 -49q19 0 32 68l116 589h-89l11 38h87l11 37q30 101 83.5 158t156.5 57q76 0 118.5 -32.5t44.5 -70.5q1 -23 -16.5 -36.5t-38.5 -13.5q-23 0 -30 24q-25 94 -91 94q-53 0 -83 -46t-55 -145l-7 -26h109q73 0 193 12
l4 -5l-110 -402q-15 -55 10 -55q19 0 45 35t45 71l24 -14q-28 -63 -69.5 -103.5t-91.5 -40.5q-40 0 -52.5 26.5t-0.5 71.5l86 320q8 26 2 36t-36 10h-165l-93 -421q-33 -150 -72 -211.5t-112 -61.5q-36 0 -63 17t-28 41z" />
    <glyph glyph-name="fl" unicode="fl" horiz-adv-x="603" 
d="M-72 -184q0 19 14 34.5t31 15.5q12 0 27 -22q32 -49 53 -49q19 0 32 68l116 589h-90l11 38h87l11 37q64 215 239 215q75 0 116 -48l74 48l14 -9l-156 -639q-13 -54 10 -54q17 0 45 34t47 72l24 -14q-26 -61 -69.5 -102.5t-93.5 -41.5q-76 0 -52 98l128 524
q-7 43 -31.5 70t-66.5 27q-52 0 -83 -46.5t-56 -144.5l-7 -26h129l-10 -38h-125l-93 -421q-33 -150 -72 -211.5t-112 -61.5q-36 0 -63 17t-28 41z" />
    <glyph glyph-name="ffi" unicode="ffi" horiz-adv-x="904" 
d="M302 490h205l11 37q6 23 26 72q-20 50 -43.5 73.5t-56.5 23.5q-50 0 -80 -42t-55 -138zM-72 -184q0 19 14 34.5t31 15.5q12 0 27 -22q32 -49 53 -49q19 0 32 68l116 589h-89l11 38h87l11 37q29 97 83 150.5t153 53.5q80 0 135 -57q54 68 166 68q76 0 118.5 -32.5
t44.5 -70.5q1 -23 -16.5 -36.5t-38.5 -13.5q-23 0 -30 24q-25 94 -91 94q-53 0 -83 -46t-55 -145l-7 -26h109q73 0 193 12l4 -5l-110 -402q-15 -55 10 -55q19 0 45 35t45 71l24 -14q-28 -63 -69.5 -103.5t-91.5 -40.5q-40 0 -52.5 26.5t-0.5 71.5l86 320q8 26 2 36t-36 10
h-165l-92 -416q-33 -148 -71 -204.5t-109 -56.5q-33 0 -61 16t-28 40q0 19 13 33t30 14q15 0 27 -22q24 -44 50 -44q21 0 32 59l114 581h-202l-93 -421q-33 -150 -72 -211.5t-112 -61.5q-36 0 -63 17t-28 41z" />
    <glyph glyph-name="ffl" unicode="ffl" horiz-adv-x="900" 
d="M302 490h205l11 37q6 23 26 72q-20 50 -43.5 73.5t-56.5 23.5q-50 0 -80 -42t-55 -138zM-72 -184q0 19 14 34.5t31 15.5q12 0 27 -22q32 -49 53 -49q19 0 32 68l116 589h-89l11 38h87l11 37q29 97 83 150.5t153 53.5q79 0 136 -59q59 70 163 70q75 0 116 -48l74 48l14 -9
l-156 -639q-13 -54 10 -54q17 0 45 34t47 72l24 -14q-26 -61 -69.5 -102.5t-93.5 -41.5q-76 0 -52 98l128 524q-7 43 -31.5 70t-66.5 27q-52 0 -83 -46.5t-56 -144.5l-7 -26h129l-10 -38h-125l-92 -416q-33 -148 -71 -204.5t-109 -56.5q-33 0 -61 16t-28 40q0 19 13 33
t30 14q15 0 27 -22q24 -44 50 -44q21 0 32 59l114 581h-202l-93 -421q-33 -150 -72 -211.5t-112 -61.5q-36 0 -63 17t-28 41z" />
    <glyph glyph-name=".notdef" horiz-adv-x="608" 
d="M170 0v692h428v-692h-428zM213 93l147 253l-147 254v-507zM233 43h302l-151 261zM233 649l151 -260l150 260h-301zM408 346l147 -253v507z" />
    <glyph glyph-name=".notdef" horiz-adv-x="608" 
d="M170 0v692h428v-692h-428zM213 93l147 253l-147 254v-507zM233 43h302l-151 261zM233 649l151 -260l150 260h-301zM408 346l147 -253v507z" />
    <glyph glyph-name=".null" horiz-adv-x="0" 
 />
    <glyph glyph-name="nonmarkingreturn" horiz-adv-x="333" 
 />
    <glyph glyph-name="space" unicode=" " horiz-adv-x="225" 
 />
    <glyph glyph-name="exclam" unicode="!" horiz-adv-x="240" 
d="M150 209l55 435q4 31 19 47t52 16q38 0 46.5 -19t-4.5 -49l-140 -430h-28zM69 45q0 31 18 49.5t47 18.5q26 0 41.5 -16.5t15.5 -39.5q0 -31 -18 -50t-47 -19q-26 0 -41.5 16t-15.5 41z" />
    <glyph glyph-name="quotedbl" unicode="&#x22;" horiz-adv-x="402" 
d="M206 469l12 221q2 27 14.5 39.5t40.5 12.5q60 0 41 -52l-80 -221h-28zM376 469l12 221q2 27 14.5 39.5t40.5 12.5q60 0 41 -52l-80 -221h-28z" />
    <glyph glyph-name="numbersign" unicode="#" 
d="M89 231l17 48h104l46 131h-105l17 48h105l74 210h56l-73 -210h132l74 210h55l-73 -210h102l-15 -48h-104l-46 -131h103l-15 -48h-105l-81 -231h-56l81 231h-132l-81 -231h-57l81 231h-104zM267 279h132l46 131h-132z" />
    <glyph glyph-name="dollar" unicode="$" 
d="M66 120q1 22 15 36t32 14q20 0 28 -24q33 -99 109 -109l64 279q-143 59 -143 166q0 86 63 136.5t162 49.5l18 75h40l-17 -77q62 -5 106 -34.5t43 -71.5q-1 -20 -16 -32.5t-32 -12.5q-22 0 -28 26q-20 80 -81 90l-57 -245q73 -34 113.5 -77t40.5 -114q0 -88 -67 -142
t-176 -53l-23 -109h-42l25 111q-78 5 -128 40t-49 78zM251 512q0 -40 20.5 -64t62.5 -45l54 230q-62 0 -99.5 -33t-37.5 -88zM292 35q66 -2 107 35t41 99q0 87 -89 129z" />
    <glyph glyph-name="percent" unicode="%" horiz-adv-x="826" 
d="M133 447q0 35 11 73t33 75t63 61t93 24q59 0 107 -36q16 -13 46 -13h179q42 3 85 46l25 25l30 -24l-605 -703l-31 28l510 594h-216q5 -19 5 -54q0 -27 -6 -55.5t-20.5 -60t-35.5 -56.5t-56 -41t-78 -16q-71 0 -105 39t-34 94zM210 424q0 -80 63 -80q33 0 58 28t37 68.5
t17.5 74t5.5 55.5q0 80 -59 80q-31 0 -56 -28t-38.5 -67.5t-20.5 -74t-7 -56.5zM495 121q0 35 11 73t33 75t63 61t93 24q67 0 101 -38t34 -99q0 -27 -6 -55.5t-20.5 -60t-35.5 -56.5t-56 -41t-78 -16q-71 0 -105 39t-34 94zM572 98q0 -80 63 -80q33 0 58 28t37 68.5t17.5 74
t5.5 55.5q0 80 -59 80q-31 0 -56 -28t-38.5 -67.5t-20.5 -74t-7 -56.5z" />
    <glyph glyph-name="ampersand" unicode="&#x26;" horiz-adv-x="725" 
d="M95 162q0 35 13 66t29 50t45.5 39t46.5 28.5t48 23.5q-15 25 -25 61.5t-10 62.5q0 85 51.5 136t123.5 51q61 0 102.5 -34t41.5 -94q0 -34 -14 -61.5t-44 -49t-57.5 -35t-72.5 -31.5q58 -104 162 -216q104 108 118 258q42 20 77 16q18 -52 -7 -103q-52 -96 -166 -197
q3 -3 22 -20.5t27 -24.5t27 -21.5t32 -22t32 -15.5t37 -11l-4 -25l-50 2q-103 4 -182 80q-105 -87 -212 -87q-92 0 -141.5 51.5t-49.5 122.5zM190 172q0 -53 38 -94t99 -41q81 0 148 62q-104 108 -182 240q-34 -14 -68.5 -56.5t-34.5 -110.5zM322 524q0 -67 36 -123
q54 26 89.5 68t35.5 95q0 33 -18 57t-54 24q-35 0 -62 -33.5t-27 -87.5z" />
    <glyph glyph-name="quotesingle" unicode="'" horiz-adv-x="216" 
d="M196 469l12 221q2 27 14.5 39.5t40.5 12.5q60 0 41 -52l-80 -221h-28z" />
    <glyph glyph-name="parenleft" unicode="(" horiz-adv-x="350" 
d="M160 301q41 184 125.5 289.5t207.5 101.5l-5 -25q-78 -13 -147.5 -100.5t-109.5 -260.5q-22 -105 -22.5 -180t17 -125t39 -75.5t44.5 -30.5l-6 -23q-101 7 -141.5 130t-1.5 299z" />
    <glyph glyph-name="parenright" unicode=")" horiz-adv-x="350" 
d="M-11 -128l5 23q78 13 147.5 101.5t109.5 261.5q22 105 22.5 179.5t-17 124.5t-39 75t-44.5 30l6 25q101 -7 141.5 -130t1.5 -299q-41 -184 -125.5 -289.5t-207.5 -101.5z" />
    <glyph glyph-name="asterisk" unicode="*" horiz-adv-x="412" 
d="M146 441q-16 35 17 46l120 41q9 3 9 8.5t-10 9.5l-86 31q-18 6 -20 20.5t9 29.5q24 34 46 12l68 -70q6 -6 10.5 -3.5t4.5 12.5l-2 98q0 31 41 31q20 0 27.5 -8.5t0.5 -23.5l-44 -97q-4 -10 0 -13t13 4l91 71q28 20 45 -11q20 -36 -12 -46l-119 -39q-19 -7 -13 -15
q2 -2 6 -3l96 -39q13 -5 14 -18t-12 -30q-25 -31 -46 -7l-63 71q-7 7 -12 3.5t-5 -12.5l2 -105q1 -18 -9.5 -25.5t-30.5 -7.5q-22 0 -29.5 11.5t0.5 28.5l44 98q5 10 1 13.5t-15 -4.5l-84 -71q-34 -29 -53 9z" />
    <glyph glyph-name="plus" unicode="+" horiz-adv-x="570" 
d="M93 221v58h208v211h68v-211h208v-58h-208v-221h-68v221h-208z" />
    <glyph glyph-name="comma" unicode="," horiz-adv-x="265" 
d="M46 -116q66 64 71 115q2 22 -11 50q-12 29 -12 40q0 21 16 37t40 16q26 1 42 -20.5t16 -47.5q0 -32 -12 -61t-39.5 -59t-42.5 -44t-51 -44z" />
    <glyph glyph-name="hyphen" unicode="-" horiz-adv-x="392" 
d="M117 216l14 70h245l-14 -70h-245z" />
    <glyph glyph-name="period" unicode="." horiz-adv-x="265" 
d="M82 45q0 31 18 49.5t47 18.5q26 0 41.5 -16.5t15.5 -39.5q0 -31 -18 -50t-47 -19q-26 0 -41.5 16t-15.5 41z" />
    <glyph glyph-name="slash" unicode="/" horiz-adv-x="270" 
d="M35 -15l270 722h71l-270 -722h-71z" />
    <glyph glyph-name="zero" unicode="0" 
d="M95 204q0 79 19.5 161.5t53.5 146.5q91 168 229 168q179 0 179 -219q0 -63 -17.5 -146.5t-51.5 -153.5q-41 -85 -96 -129t-132 -44q-67 0 -110 32.5t-58.5 78.5t-15.5 105zM185 162q0 -139 94 -139q57 0 95 58.5t67 158.5q22 73 33.5 151.5t11.5 114.5q0 66 -19.5 102.5
t-68.5 36.5q-50 0 -91.5 -55t-70.5 -146q-51 -154 -51 -282z" />
    <glyph glyph-name="one" unicode="1" 
d="M109 0l6 29l91 7q26 2 33 36l113 506q6 30 -12 33l-97 10l8 24l205 35l8 -6l-136 -602q-8 -36 21 -38l89 -5l-6 -29h-323z" />
    <glyph glyph-name="two" unicode="2" 
d="M33 10q22 63 73.5 121.5t159.5 132.5q109 74 158 135t49 131q0 115 -94 115q-87 0 -134 -133q-8 -25 -29 -25q-18 0 -33.5 13.5t-15.5 34.5q0 48 61.5 96.5t152.5 48.5q86 0 139 -42t53 -122q0 -44 -14 -78.5t-52 -67t-62 -48.5t-85 -51l-15 -9q-164 -95 -210 -188h250
q33 0 50 10.5t42 46.5l30 -6l-54 -125h-409z" />
    <glyph glyph-name="three" unicode="3" 
d="M54 111q0 23 16 39t35 16q21 0 30 -31q29 -112 130 -112q58 0 105 48.5t47 151.5q0 20 -4.5 40t-15.5 40.5t-33 33.5t-53 13q-25 0 -56.5 -5t-34.5 -5q-19 0 -19 22q0 14 6.5 25.5t15.5 11.5q5 0 38 -5.5t59 -5.5q60 0 100.5 45t40.5 109q0 40 -20 71.5t-73 31.5
q-77 0 -118 -105q-11 -27 -31 -27q-15 0 -29.5 12.5t-14.5 33.5q0 44 58.5 82.5t139.5 38.5q45 0 84.5 -12t70.5 -47t31 -90q0 -74 -54 -113t-123 -44v-3q53 -7 96 -46.5t43 -111.5q0 -109 -75.5 -167t-183.5 -58q-97 0 -152.5 40t-55.5 83z" />
    <glyph glyph-name="four" unicode="4" 
d="M67 206q232 290 402 462h68l-91 -435h98l-10 -46h-98l-25 -120q-7 -34 20 -35l50 -3l-7 -29h-264l8 29l74 5q28 2 34 33l25 120h-275zM151 233h210l73 340l-2 2q-129 -138 -281 -342z" />
    <glyph glyph-name="five" unicode="5" 
d="M59 108q0 23 16.5 39.5t36.5 16.5t28 -29q30 -112 131 -112q64 0 112 58.5t48 148.5q0 70 -32 110.5t-87 40.5q-77 0 -132 -66l-24 12l73 333l10 8h341l5 -11l-42 -63h-248q-14 0 -21 -4.5t-11 -19.5l-54 -187l2 -2q57 46 134 46q88 0 139 -49t51 -136q0 -108 -78 -181
t-193 -73q-96 0 -150.5 38t-54.5 82z" />
    <glyph glyph-name="six" unicode="6" 
d="M91 207q0 105 34.5 210.5t87.5 167.5q82 95 200 95q89 0 131 -35t42 -73q0 -20 -17.5 -33t-35.5 -13q-24 0 -29 28q-19 91 -94 91q-71 0 -126 -80.5t-85 -226.5h2q76 82 167 82q87 0 132 -49.5t45 -131.5q0 -61 -26 -116.5t-84.5 -95t-137.5 -39.5q-109 0 -157.5 61
t-48.5 158zM184 168q0 -25 4 -47t15 -46t35 -38t58 -14q62 0 107 60.5t45 163.5q0 56 -29.5 90t-80.5 34q-72 0 -113 -54t-41 -149z" />
    <glyph glyph-name="seven" unicode="7" 
d="M165 530l42 138h420l8 -11q-19 -45 -45.5 -88t-43 -64.5t-62 -75.5t-61.5 -74q-58 -69 -91.5 -143.5t-51.5 -182.5q-4 -24 -15.5 -32.5t-38.5 -8.5q-48 0 -48 37q0 58 47 139.5t167 218.5q118 133 146 211h-241q-37 0 -55.5 -9t-30.5 -29l-16 -26h-30z" />
    <glyph glyph-name="eight" unicode="8" 
d="M81 159q0 88 52.5 145t126.5 66v4q-82 35 -82 126q0 86 61.5 133t147.5 47q95 0 139 -45t44 -105q0 -68 -40 -109t-99 -53v-3q40 -14 72.5 -55t32.5 -103q0 -97 -63 -158t-181 -61q-105 0 -158 49.5t-53 121.5zM177 151q0 -60 31.5 -94t87.5 -34q67 0 105.5 57t38.5 141
q0 57 -30 89.5t-82 32.5q-66 0 -108.5 -56.5t-42.5 -135.5zM267 477q0 -42 22 -69t70 -27q51 0 86.5 49.5t35.5 123.5q0 39 -23 65t-67 26q-60 0 -92 -53.5t-32 -114.5z" />
    <glyph glyph-name="nine" unicode="9" 
d="M86 96q0 25 15.5 40.5t33.5 15.5q21 0 29 -30q26 -99 102 -99q85 0 140 115q44 93 60 200h-2q-72 -72 -154 -72q-76 0 -126.5 48t-50.5 125q0 109 67.5 175t162.5 66q208 0 208 -254q0 -85 -27 -179.5t-80 -160.5q-78 -98 -201 -98q-79 0 -128 35t-49 73zM226 452
q0 -60 29 -98t95 -38q57 0 91.5 39t34.5 104q0 87 -25 136.5t-90 49.5q-57 0 -96 -51t-39 -142z" />
    <glyph glyph-name="colon" unicode=":" horiz-adv-x="265" 
d="M161 422q0 31 18 49.5t47 18.5q26 0 41.5 -16.5t15.5 -39.5q0 -31 -18 -50t-47 -19q-26 0 -41.5 16t-15.5 41zM82 45q0 31 18 49.5t47 18.5q26 0 41.5 -16.5t15.5 -39.5q0 -31 -18 -50t-47 -19q-26 0 -41.5 16t-15.5 41z" />
    <glyph glyph-name="semicolon" unicode=";" horiz-adv-x="265" 
d="M161 422q0 31 18 49.5t47 18.5q26 0 41.5 -16.5t15.5 -39.5q0 -31 -18 -50t-47 -19q-26 0 -41.5 16t-15.5 41zM46 -116q66 64 71 115q2 22 -11 50q-12 29 -12 40q0 21 16 37t40 16q26 1 42 -20.5t16 -47.5q0 -32 -12 -61t-39.5 -59t-42.5 -44t-51 -44z" />
    <glyph glyph-name="less" unicode="&#x3c;" horiz-adv-x="570" 
d="M86 207v81l478 209v-69l-419 -180l419 -180v-67z" />
    <glyph glyph-name="equal" unicode="=" horiz-adv-x="570" 
d="M93 111v58h484v-58h-484zM93 331v58h484v-58h-484z" />
    <glyph glyph-name="greater" unicode="&#x3e;" horiz-adv-x="570" 
d="M86 1v67l419 180l-419 180v69l478 -209v-81z" />
    <glyph glyph-name="question" unicode="?" horiz-adv-x="425" 
d="M160 285q0 63 104 123q68 40 101 90.5t33 100.5q0 33 -15 53t-44 20q-59 0 -100 -104q-7 -19 -31 -19q-14 0 -29 12t-15 32q0 37 47 75.5t123 38.5q72 0 114.5 -35t42.5 -92q0 -59 -30.5 -92t-97.5 -67q-56 -28 -85 -55.5t-29 -63.5q0 -30 18 -44t46 -14q7 0 43 3l6 -17
q-43 -31 -98 -31q-42 0 -73 21.5t-31 64.5zM150 45q0 31 18 49.5t47 18.5q26 0 41.5 -16.5t15.5 -39.5q0 -31 -18 -50t-47 -19q-26 0 -41.5 16t-15.5 41z" />
    <glyph glyph-name="at" unicode="@" horiz-adv-x="794" 
d="M123 303q0 122 58.5 216t149 141t195.5 47q139 0 222.5 -84t83.5 -209q0 -101 -67.5 -171.5t-157.5 -70.5q-49 0 -63.5 29t7.5 108l-2 1q-27 -48 -79.5 -93.5t-103.5 -44.5q-27 1 -46.5 20t-19.5 63q0 24 9 57.5t29 72.5t48 71.5t71.5 54.5t94.5 22q30 0 55 -13l4 8h65
l-66 -258q-15 -60 34 -60q51 0 94.5 61.5t43.5 137.5q2 119 -70.5 188t-183.5 69q-97 0 -173 -52t-115 -133t-39 -174q0 -50 14.5 -96.5t46 -90t91 -70t139.5 -26.5q96 0 169 31l8 -25q-82 -45 -205 -45q-64 0 -124 20t-109 57.5t-78.5 100t-29.5 140.5zM382 270
q0 -51 34 -51q49 0 108.5 95.5t75.5 175.5q-21 14 -47 14q-37 0 -70.5 -27.5t-54.5 -66.5t-33.5 -77.5t-12.5 -62.5z" />
    <glyph glyph-name="A" unicode="A" horiz-adv-x="624" 
d="M-23 0l6 29l33 4q24 2 40.5 15t39.5 51q3 5 171 298l168 295h71l74 -602q4 -33 11 -44.5t29 -13.5l38 -3l-6 -29h-246l6 29l53 5q16 2 21.5 10t3.5 29l-23 194h-224q-29 -53 -103 -196q-15 -34 13 -37l55 -5l-6 -29h-225zM263 305h199l-35 294h-2q-120 -216 -162 -294z
" />
    <glyph glyph-name="B" unicode="B" horiz-adv-x="632" 
d="M38 0l6 29l56 6q18 2 27.5 12.5t14.5 35.5l118 526q6 26 1 36t-22 12l-59 6l6 29h241q124 2 181 -33q63 -37 63 -118q0 -62 -47.5 -108.5t-141.5 -57.5l-1 -3q64 -12 107.5 -52.5t43.5 -112.5q0 -36 -12 -68.5t-41.5 -65.5t-90 -53t-146.5 -20h-304zM242 99q-8 -34 9 -49
t85 -15q94 0 141 52t47 126q0 142 -186 142h-39zM306 390h65q90 0 139 37q59 47 59 118q0 53 -34 82.5t-97 29.5q-49 0 -61.5 -6t-17.5 -29z" />
    <glyph glyph-name="C" unicode="C" horiz-adv-x="661" 
d="M114 275q0 140 68 250q49 80 137 131t218 51q57 0 119 -13.5t102 -39.5l-36 -150h-30q4 85 -34 126.5t-129 41.5q-151 0 -236 -142q-35 -58 -53.5 -134t-18.5 -147q0 -112 54.5 -170.5t144.5 -58.5q85 0 133.5 40t95.5 126h30l-49 -159q-84 -42 -203 -42
q-72 0 -127.5 17.5t-90 46t-56.5 67.5t-30.5 78t-8.5 81z" />
    <glyph glyph-name="D" unicode="D" horiz-adv-x="763" 
d="M40 0l6 29l56 6q18 1 27 12t14 36l119 526q5 25 0.5 36.5t-21.5 12.5l-59 5l6 29h269q174 0 259 -72q42 -35 64 -90.5t22 -118.5q0 -129 -67 -230q-120 -181 -388 -181h-307zM239 86q-7 -31 14 -41t68 -10q118 0 190.5 40t118.5 116q65 107 65 242q0 29 -3 54t-16.5 57.5
t-36.5 55.5t-67 39.5t-103 17.5q-66 0 -84.5 -6t-24.5 -31z" />
    <glyph glyph-name="E" unicode="E" horiz-adv-x="596" 
d="M38 0l6 29l56 6q18 1 26.5 11.5t14.5 36.5l120 528q6 26 1 36t-23 12l-60 4l7 29h506l-38 -167h-30q5 45 2.5 74.5t-29 43.5t-87.5 14h-121q-13 0 -18.5 -5.5t-9.5 -23.5l-57 -249h131q44 0 66.5 8t33.5 23.5t25 53.5h30l-46 -209h-30q3 53 -11 69.5t-76 16.5h-131
l-51 -219q-8 -35 -7 -50t12 -24q17 -13 112 -13q96 0 139 26t80 115h30l-51 -176h-522z" />
    <glyph glyph-name="F" unicode="F" horiz-adv-x="571" 
d="M38 0l6 29l56 5q17 1 26.5 12t14.5 34l120 532q10 42 -22 45l-59 6l6 29h509l-38 -165h-30q5 44 2.5 73t-29 43t-87.5 14h-123q-14 0 -19.5 -5.5t-9.5 -24.5l-60 -262h132q63 0 84 15.5t41 70.5h30l-46 -210h-30q3 53 -11 69.5t-76 16.5h-132l-56 -247q-10 -43 23 -46
l75 -5l-6 -29h-291z" />
    <glyph glyph-name="G" unicode="G" horiz-adv-x="709" 
d="M114 285q0 157 95 278q113 144 334 144q132 0 224 -50l-36 -156h-30q3 36 -1.5 63.5t-20 53.5t-50 40t-87.5 14q-69 0 -124.5 -26t-91 -66.5t-59 -94t-33.5 -105t-10 -102.5q0 -128 57.5 -193t152.5 -65q70 0 94 13.5t30 40.5l37 151q12 45 -17 48l-75 7l6 29h263l-6 -29
l-44 -4q-20 -2 -31 -51l-47 -202q-103 -38 -212 -38q-147 0 -233 74q-85 74 -85 226z" />
    <glyph glyph-name="H" unicode="H" horiz-adv-x="775" 
d="M40 0l6 29l55 6q18 1 27 11.5t15 36.5l120 526q10 47 -22 50l-59 4l7 29h274l-7 -29l-55 -5q-18 -1 -27 -12t-15 -37l-53 -230h334l52 230q10 47 -22 50l-59 4l7 29h274l-7 -29l-55 -5q-18 -1 -27 -12t-15 -37l-120 -526q-11 -47 22 -50l59 -4l-6 -29h-274l6 29l55 6
q18 1 27 11.5t15 36.5l59 258h-334l-58 -258q-6 -25 -1 -37t23 -13l59 -4l-6 -29h-274z" />
    <glyph glyph-name="I" unicode="I" horiz-adv-x="345" 
d="M40 0l6 29l55 6q18 1 27.5 12.5t14.5 35.5l120 526q11 47 -22 50l-59 4l7 29h274l-7 -29l-55 -5q-18 -1 -27 -13t-15 -36l-120 -526q-11 -47 22 -50l59 -4l-6 -29h-274z" />
    <glyph glyph-name="J" unicode="J" horiz-adv-x="352" 
d="M-43 -92q79 8 125 50q47 44 80 186l109 468q5 23 0 34t-23 12l-59 5l7 29h275l-7 -29l-55 -4q-18 -1 -27.5 -12t-14.5 -35l-117 -503q-32 -137 -105 -189q-56 -39 -155 -39q-11 0 -33 2v25z" />
    <glyph glyph-name="K" unicode="K" horiz-adv-x="650" 
d="M40 0l6 29l55 6q18 1 27.5 12.5t14.5 35.5l120 526q11 47 -22 50l-59 4l7 29h274l-7 -29l-55 -5q-18 -1 -27 -13t-15 -36l-54 -237l2 -2q229 194 298 257q31 30 1 33l-38 3l4 29h249l-4 -29q-57 -4 -86 -15.5t-76 -44.5q-106 -74 -265 -208q86 -179 177 -294
q32 -39 55 -56.5t62 -20.5l-7 -29l-49 1q-58 2 -95 21t-73 67q-61 83 -156 277h-2l-63 -278q-11 -47 22 -50l59 -4l-6 -29h-274z" />
    <glyph glyph-name="L" unicode="L" horiz-adv-x="565" 
d="M40 0l6 29l55 6q18 2 27 12t15 36l120 526q11 46 -22 49l-59 5l7 29h279l-7 -29l-60 -4q-18 -1 -27.5 -12.5t-15.5 -37.5l-111 -487q-8 -35 -7 -50t12 -24q17 -13 112 -13q89 0 130.5 26t78.5 115h30l-51 -176h-512z" />
    <glyph glyph-name="M" unicode="M" horiz-adv-x="920" 
d="M31 0l5 29l31 3q24 2 37 11t22 32q18 50 35 124l94 410q11 45 -22 48l-59 6l7 29h194q14 -75 57 -267l56 -277h3l177 270q120 183 173 274h196l-7 -29l-55 -4q-18 -1 -27 -12.5t-15 -37.5l-120 -526q-6 -24 -1 -35.5t23 -12.5l59 -6l-6 -29h-272l6 29l55 6q18 1 27 11.5
t15 36.5l123 523h-3l-389 -594h-28l-120 594h-2l-92 -407q-16 -72 -21 -124q-2 -22 9 -31.5t37 -11.5l39 -3l-5 -29h-236z" />
    <glyph glyph-name="N" unicode="N" horiz-adv-x="763" 
d="M31 0l5 29l31 3q45 4 59 43q18 50 35 124l94 410q11 45 -22 48l-59 6l7 29h190q84 -187 256 -561h4l82 362q16 72 21 124q2 23 -8.5 31t-37.5 11l-39 4l5 29h236l-5 -29l-31 -3q-45 -4 -59 -43q-18 -50 -35 -124l-112 -493h-65q-184 406 -278 609h-3l-94 -410
q-16 -72 -21 -124q-2 -22 9 -31.5t37 -11.5l39 -3l-5 -29h-236z" />
    <glyph glyph-name="O" unicode="O" horiz-adv-x="753" 
d="M114 270q0 136 69 253q111 184 317 184q131 0 210 -73t79 -220q0 -125 -63 -239q-48 -87 -122.5 -138.5t-196.5 -51.5q-144 0 -218.5 78t-74.5 207zM219 230q0 -102 48 -156t131 -54q162 0 239 200q47 122 47 246q0 103 -47.5 154.5t-132.5 51.5q-142 0 -223 -168
q-62 -131 -62 -274z" />
    <glyph glyph-name="P" unicode="P" horiz-adv-x="614" 
d="M40 0l6 29l55 6q18 1 27 11.5t15 36.5l120 526q11 46 -22 49l-59 5l7 29h234q114 0 177 -36q81 -46 81 -148q0 -56 -26.5 -104t-74.5 -77q-77 -47 -222 -47h-74l-45 -197q-6 -24 -1 -35.5t23 -12.5l69 -6l-6 -29h-284zM301 357q-3 -15 -3.5 -20.5t5 -12t19 -8t39.5 -1.5
q103 0 159 53t56 158q0 131 -150 131q-36 0 -47.5 -7t-16.5 -28z" />
    <glyph glyph-name="Q" unicode="Q" horiz-adv-x="753" 
d="M114 270q0 136 69 253q111 184 317 184q131 0 210 -73t79 -220q0 -125 -63 -239q-90 -163 -258 -186q24 -38 66 -80q80 -80 162 -79l3 -17q-27 -16 -75 -16q-92 0 -170 66q-66 55 -103 126q-117 15 -177 90t-60 191zM219 230q0 -102 48 -156t131 -54q162 0 239 200
q47 122 47 246q0 103 -47.5 154.5t-132.5 51.5q-142 0 -223 -168q-62 -131 -62 -274z" />
    <glyph glyph-name="R" unicode="R" horiz-adv-x="640" 
d="M40 0l6 29l55 6q18 2 27 12t15 36l120 526q11 46 -22 49l-59 5l7 29h270q218 0 218 -161q0 -73 -56.5 -123t-149.5 -63v-2q26 -7 44.5 -20.5t27.5 -27.5t14 -37.5t5.5 -40.5t0.5 -47q-2 -80 14 -106q18 -29 80 -35l-9 -29h-78q-90 0 -101 77q-5 40 -4.5 107.5t-2.5 79.5
q-6 34 -32 49q-19 13 -76 13h-60l-55 -243q-6 -26 -1 -36.5t23 -12.5l59 -5l-6 -29h-274zM302 361h64q98 0 152 46t54 134q0 61 -35 88.5t-90 27.5q-53 0 -66.5 -7t-19.5 -31z" />
    <glyph glyph-name="S" unicode="S" horiz-adv-x="533" 
d="M69 67l26 153h29q-4 -95 44 -147.5t122 -52.5q71 0 111 43.5t40 101.5q0 57 -31.5 93t-96.5 69q-69 33 -107 75t-38 107q0 34 12 67t37 63.5t72 49t109 18.5q114 0 179 -51l-36 -140h-29q18 156 -121 156q-64 0 -101.5 -36t-37.5 -91q0 -22 9 -41.5t18.5 -31.5t32 -27
t32.5 -20.5t37 -19.5q78 -40 114 -86.5t36 -112.5q0 -43 -13 -80t-40.5 -69.5t-78.5 -51.5t-121 -20q-59 0 -120 22.5t-89 59.5z" />
    <glyph glyph-name="T" unicode="T" horiz-adv-x="606" 
d="M137 525l38 167h568l-38 -167h-30q5 45 2 74.5t-29.5 43.5t-86.5 14h-63l-130 -576q-6 -23 0 -35t26 -13l73 -4l-7 -29h-308l7 29l65 4q22 1 32.5 12.5t15.5 35.5l130 576h-69q-73 0 -107.5 -27.5t-58.5 -104.5h-30z" />
    <glyph glyph-name="U" unicode="U" horiz-adv-x="794" 
d="M177 256l84 353q11 46 -22 49l-59 5l7 29h274l-7 -29l-55 -4q-18 -1 -27 -12.5t-15 -37.5l-79 -340q-58 -249 137 -249q96 0 144 62.5t75 177.5l81 349q11 46 -22 49l-59 5l7 29h274l-7 -29l-55 -5q-18 -1 -27 -12t-15 -37l-85 -362q-16 -68 -41.5 -116.5t-54 -76.5
t-67 -44t-73 -20.5t-80.5 -4.5q-138 0 -202.5 64.5t-30.5 206.5z" />
    <glyph glyph-name="V" unicode="V" horiz-adv-x="637" 
d="M131 663l5 29h250l-5 -29l-64 -6q-20 -2 -17 -33q12 -130 30 -258l35 -266h2l143 249q123 214 153 278q8 17 5 23t-17 8l-55 5l5 29h220l-5 -29q-41 -3 -58 -11t-33 -33q-60 -93 -166 -274l-203 -345h-69l-42 320q-6 50 -18.5 147.5t-18.5 143.5q-4 26 -11.5 35.5
t-25.5 11.5z" />
    <glyph glyph-name="W" unicode="W" horiz-adv-x="946" 
d="M121 663l6 29h253l-7 -29l-65 -6q-24 -1 -21 -32l33 -503h5l271 552h70l51 -552h4l120 251q86 179 114 249q12 31 -9 34l-65 7l5 29h224l-5 -29q-46 -4 -61 -13.5t-36 -46.5q-27 -46 -125 -246l-174 -357h-70l-52 551h-5l-274 -551h-70l-44 616q-2 23 -7.5 32t-21.5 10z
" />
    <glyph glyph-name="X" unicode="X" horiz-adv-x="632" 
d="M-1 0l6 29q49 5 68.5 12t42.5 32q62 66 236 276q-19 43 -58.5 140t-55.5 131q-11 25 -28 32t-65 11l6 29h260l-6 -29l-52 -4q-30 -3 -17 -36q62 -152 82 -199h2q82 94 166 204q21 28 -9 31l-43 4l6 29h230l-6 -29q-68 -5 -96 -29q-97 -89 -232 -251q124 -279 135 -303
q14 -31 32 -39t71 -12l-6 -29h-270l5 29l52 5q31 3 17 36q-13 33 -30 72t-37.5 87.5t-32.5 75.5h-4q-116 -143 -185 -242q-17 -25 14 -28l57 -6l-6 -29h-249z" />
    <glyph glyph-name="Y" unicode="Y" horiz-adv-x="591" 
d="M131 663l6 29h249l-6 -29l-55 -5q-25 -3 -19 -29l91 -307h3q150 203 211 308q15 28 -15 29l-52 4l6 29h229l-6 -29q-42 -3 -60 -12t-45 -39q-93 -106 -230 -305q-20 -27 -28 -60l-38 -169q-5 -22 0 -32t23 -11l76 -6l-6 -29h-310l6 29l72 7q19 2 27.5 11.5t13.5 30.5
l38 168q7 29 0 53q-77 258 -98 318q-10 29 -22.5 35.5t-60.5 10.5z" />
    <glyph glyph-name="Z" unicode="Z" horiz-adv-x="622" 
d="M15 13q244 268 583 644h-195q-85 0 -120 -24.5t-65 -109.5h-30l37 169h508l5 -13q-323 -354 -584 -644h203q121 0 168 25t86 116h30l-51 -176h-571z" />
    <glyph glyph-name="bracketleft" unicode="[" horiz-adv-x="330" 
d="M104 -128l186 820h159l-5 -27q-67 -4 -84 -12.5t-25 -42.5l-150 -656q-7 -34 5.5 -42.5t77.5 -12.5l-5 -27h-159z" />
    <glyph glyph-name="backslash" unicode="\" horiz-adv-x="390" 
d="M124 707h71l211 -722h-71z" />
    <glyph glyph-name="bracketright" unicode="]" horiz-adv-x="330" 
d="M14 -128l5 27q68 4 84.5 12.5t24.5 42.5l150 656q8 34 -4.5 42.5t-78.5 12.5l5 27h159l-186 -820h-159z" />
    <glyph glyph-name="asciicircum" unicode="^" horiz-adv-x="570" 
d="M118 228l196 440h77l191 -440h-76l-154 367l-158 -367h-76z" />
    <glyph glyph-name="underscore" unicode="_" horiz-adv-x="500" 
d="M0 -75h500v-50h-500v50z" />
    <glyph glyph-name="grave" unicode="`" horiz-adv-x="400" 
d="M181 680q0 14 13.5 28.5t25.5 14.5q24 0 64 -41l119 -120l-15 -20l-151 84q-56 30 -56 54z" />
    <glyph glyph-name="a" unicode="a" horiz-adv-x="561" 
d="M66 107q0 41 13.5 91.5t42.5 104.5t69 98t99.5 72.5t127.5 28.5q43 0 73 -21l5 13h84l-106 -399q-15 -55 10 -55q19 0 45 35t45 71l24 -14q-28 -63 -70.5 -103.5t-95.5 -40.5q-77 0 -44 112l34 114h-2q-129 -226 -258 -226q-48 0 -72 34.5t-24 84.5zM165 110
q0 -70 44 -70q65 0 165 152q72 108 107 253q-24 22 -61 22q-55 0 -105.5 -40t-81.5 -97.5t-49.5 -117t-18.5 -102.5z" />
    <glyph glyph-name="b" unicode="b" horiz-adv-x="559" 
d="M82 0l147 639q6 29 2.5 38t-22.5 11l-57 7l6 23l179 24l5 -5l-111 -441h2q56 99 124 152.5t128 53.5q54 0 80.5 -34t26.5 -92q0 -41 -16 -101.5t-50 -120.5q-41 -73 -105 -119.5t-146 -46.5q-43 0 -78 19.5t-48 50.5l-31 -58h-36zM205 109q0 -38 22 -62t60 -24
q51 0 93.5 43t65.5 103t35.5 113t12.5 85q0 83 -54 83q-43 0 -93.5 -49.5t-88.5 -116.5q-53 -96 -53 -175z" />
    <glyph glyph-name="c" unicode="c" horiz-adv-x="441" 
d="M81 148q0 84 34.5 164t102.5 135t153 55q56 0 92.5 -25.5t36.5 -63.5q0 -23 -22 -39.5t-42 -16.5q-26 0 -29 30q-8 80 -60 80q-44 0 -83.5 -48t-61.5 -116.5t-22 -134.5q0 -61 19 -96t69 -35q74 0 160 117l24 -19q-88 -147 -228 -147q-60 0 -101.5 38t-41.5 122z" />
    <glyph glyph-name="d" unicode="d" horiz-adv-x="587" 
d="M72 120q0 38 12.5 86t40.5 100.5t66.5 96t96.5 71.5t124 28q52 0 84 -17l2 2l38 161q6 24 3 32t-21 9l-60 6l6 23l178 24l5 -5l-158 -642q-14 -55 10 -55q19 0 45 35t45 71l24 -14q-28 -63 -70 -103.5t-93 -40.5q-38 -1 -49.5 28.5t3.5 82.5l33 119h-2
q-127 -230 -263 -230q-100 0 -100 132zM171 112q0 -72 50 -72q37 0 82 44t85 109q73 118 99 254q-22 20 -69 20q-56 0 -105.5 -40t-79 -97.5t-46 -116t-16.5 -101.5z" />
    <glyph glyph-name="e" unicode="e" horiz-adv-x="453" 
d="M80 152q0 134 83 236q92 114 219 114q59 0 91.5 -29t32.5 -71q0 -54 -42 -96q-78 -72 -284 -114q-1 -7 -1 -16q0 -139 91 -139q27 0 51.5 10.5t46.5 30t35.5 35t31.5 38.5l23 -20q-88 -143 -229 -143q-25 0 -48 6.5t-47.5 22.5t-39 50.5t-14.5 84.5zM182 226
q119 25 174.5 74.5t55.5 107.5q0 26 -16 42.5t-42 16.5q-58 0 -108.5 -73.5t-63.5 -167.5z" />
    <glyph glyph-name="f" unicode="f" horiz-adv-x="315" 
d="M-72 -184q0 19 14 34.5t31 15.5q12 0 27 -22q32 -49 53 -49q19 0 32 68l116 589h-89l11 38h87l10 37q25 96 65 146q54 69 140 69q45 0 79.5 -23t34.5 -55q0 -18 -16.5 -31t-32.5 -13q-18 0 -27 17q-17 37 -32 53.5t-35 16.5q-21 0 -36.5 -24t-29.5 -80l-28 -113h130
l-10 -38h-126l-93 -421q-33 -150 -72 -211.5t-112 -61.5q-36 0 -63 17t-28 41z" />
    <glyph glyph-name="g" unicode="g" horiz-adv-x="499" 
d="M30 -96q0 57 46.5 91.5t107.5 45.5v2q-71 33 -71 75q0 37 85 72l6 3v2q-30 11 -57 42.5t-27 80.5q0 29 11 59t33.5 59t66.5 47.5t102 18.5q78 0 124 -30l145 40l6 -9l-33 -63l-84 -12q21 -27 21 -69q0 -79 -57 -129t-159 -50q-34 0 -54 3q-44 -11 -44 -39q0 -20 27 -33
t94 -29q175 -42 175 -157q0 -79 -69 -123t-175 -44q-97 0 -158.5 40t-61.5 106zM122 -87q0 -54 42 -87t108 -33q59 0 98 29t39 84q0 93 -181 119q-38 -6 -72 -34.5t-34 -77.5zM214 301q0 -38 22 -62t61 -24q55 0 89 48.5t34 119.5q0 46 -25 65t-55 19q-44 0 -74 -29.5
t-41 -65t-11 -71.5z" />
    <glyph glyph-name="h" unicode="h" horiz-adv-x="607" 
d="M92 -12l146 651q6 29 2.5 38t-22.5 11l-57 7l6 23l180 24l5 -5l-112 -458h3q50 95 123.5 159t141.5 64q58 0 74.5 -43t-4.5 -102l-79 -262q-17 -55 10 -55q19 0 45 35t45 71l24 -14q-28 -63 -69 -103.5t-90 -40.5q-83 0 -52 108l82 284q9 31 0.5 50.5t-32.5 19.5
q-40 0 -87 -42.5t-79.5 -93t-49.5 -94.5q-26 -66 -67 -220z" />
    <glyph glyph-name="i" unicode="i" horiz-adv-x="317" 
d="M244 649q0 26 17.5 46t47.5 20q23 0 38.5 -14t15.5 -41q0 -30 -17.5 -48.5t-46.5 -18.5q-24 0 -39.5 14.5t-15.5 41.5zM120 86l84 313q7 26 3 35.5t-24 10.5l-57 5l6 24l182 28l5 -5l-109 -402q-15 -55 10 -55q19 0 45 35t45 71l24 -14q-28 -63 -69.5 -103.5t-92.5 -40.5
q-39 0 -51.5 26.5t-0.5 71.5z" />
    <glyph glyph-name="j" unicode="j" horiz-adv-x="309" 
d="M246 649q0 26 17.5 46t47.5 20q23 0 38.5 -14t15.5 -41q0 -30 -17.5 -48.5t-46.5 -18.5q-24 0 -39.5 14.5t-15.5 41.5zM-60 -184q0 19 14 34.5t31 15.5q13 0 26 -20q36 -53 57 -53q16 0 23 31l122 571q7 26 4.5 37.5t-19.5 12.5l-62 5l6 24l179 28l5 -5l-113 -500
q-31 -137 -71 -189q-40 -50 -107 -50q-39 0 -66.5 16.5t-28.5 41.5z" />
    <glyph glyph-name="k" unicode="k" horiz-adv-x="545" 
d="M92 -12l155 651q6 29 2.5 38t-22.5 11l-57 7l6 23l179 24l5 -5l-176 -737zM255 267q75 91 155 161q88 74 140 74t52 -49q0 -20 -14.5 -37t-34.5 -17q-14 0 -28 8q-31 19 -49 19q-40 0 -142 -117q28 -101 75 -195q19 -40 31 -55.5t25 -15.5q34 0 80 99l25 -13
q-50 -141 -138 -141q-35 0 -59 22.5t-47 72.5q-46 101 -71 184z" />
    <glyph glyph-name="l" unicode="l" horiz-adv-x="306" 
d="M116 86l137 553q7 29 3 38t-23 11l-57 7l6 23l179 24l5 -5l-161 -643q-13 -54 10 -54q17 0 45 34t47 72l24 -14q-26 -61 -69.5 -102.5t-93.5 -41.5q-76 0 -52 98z" />
    <glyph glyph-name="m" unicode="m" horiz-adv-x="912" 
d="M98 -12l103 409q7 24 5 35.5t-19 12.5l-61 5l6 24l181 28l5 -5l-63 -207h3q53 97 120 154.5t134 57.5q52 0 67.5 -38.5t-7.5 -110.5l-20 -63h4q55 99 121 155.5t132 56.5q40 0 61 -20t21.5 -52.5t-9.5 -72.5l-77 -262q-15 -55 10 -55q19 0 45 35t45 71l24 -14
q-28 -63 -70 -103.5t-93 -40.5q-38 0 -51.5 26t-0.5 72l86 294q10 32 0.5 51t-34.5 19q-39 0 -83.5 -41t-76 -90t-52.5 -98q-25 -58 -71 -221l-87 -12l26 98l74 280q22 84 -30 84q-56 0 -120 -79t-95 -158q-19 -49 -66 -213z" />
    <glyph glyph-name="n" unicode="n" horiz-adv-x="618" 
d="M98 -12l105 409q8 24 5 35.5t-20 12.5l-62 5l6 24l183 28l5 -5l-65 -218h3q48 93 119.5 158t140.5 65q58 0 75 -43t-4 -102l-78 -262q-15 -55 10 -55q19 0 45 35t45 71l24 -14q-28 -63 -70 -103.5t-95 -40.5q-39 0 -52 28t1 70l86 293q9 29 0.5 50t-33.5 21
q-38 0 -83 -41.5t-77.5 -92t-53.5 -98.5q-31 -74 -72 -218z" />
    <glyph glyph-name="o" unicode="o" horiz-adv-x="537" 
d="M84 169q0 30 7.5 68t28 86t52 87t85.5 65.5t121 26.5q33 0 62.5 -8.5t57 -27t43.5 -54.5t16 -85q0 -112 -63 -211q-81 -128 -226 -128q-91 0 -137.5 49t-46.5 132zM181 129q0 -106 90 -106q39 0 72 28.5t54 70t36 90.5t21 87.5t6 62.5q0 105 -83 105q-47 0 -86 -37
t-62 -92t-35.5 -110.5t-12.5 -98.5z" />
    <glyph glyph-name="p" unicode="p" horiz-adv-x="590" 
d="M57 -242l140 639q4 17 4.5 25.5t-3.5 15t-16 7.5l-62 5l6 24l181 28l5 -5l-57 -211h3q55 103 123.5 159.5t128.5 56.5q111 0 111 -134q0 -27 -8.5 -69t-31.5 -97.5t-56 -102t-90 -79t-126 -32.5q-72 0 -108 22l-55 -240zM211 53q35 -30 88 -30q57 0 103 42t70.5 101.5
t37 112.5t12.5 88q0 83 -54 83q-40 0 -89.5 -48t-88.5 -116q-49 -87 -79 -233z" />
    <glyph glyph-name="q" unicode="q" horiz-adv-x="559" 
d="M73 107q0 43 12 93.5t40 104.5t67 97.5t99.5 71.5t131.5 28q59 0 98 -22l43 45h38l-178 -747l-93 -20l99 432h-3q-55 -92 -125.5 -147t-133.5 -55q-41 0 -68 29t-27 90zM172 123q0 -83 48 -83q63 0 152 116q85 114 122 290q-29 21 -70 21q-58 0 -108.5 -39.5t-80.5 -96.5
t-46.5 -112.5t-16.5 -95.5z" />
    <glyph glyph-name="r" unicode="r" horiz-adv-x="402" 
d="M104 -12l92 409q4 19 4.5 27t-3.5 14t-16 7l-62 5l6 24l172 28l5 -5l-45 -166h2q40 80 88 125.5t91 45.5q23 0 34.5 -11.5t10.5 -32.5q0 -22 -14.5 -42t-32.5 -20q-16 0 -35.5 12.5t-34.5 12.5q-29 0 -63 -59.5t-61 -157.5q-9 -32 -27 -105.5t-25 -98.5z" />
    <glyph glyph-name="s" unicode="s" horiz-adv-x="389" 
d="M54 83q0 21 15 37.5t37 16.5q23 0 32 -30q12 -39 37 -61.5t53 -22.5q32 0 52 20t20 55q0 62 -69 117q-88 71 -88 140q0 63 44 105t118 42q61 0 94 -25t33 -53q0 -21 -15.5 -33.5t-32.5 -12.5q-20 0 -28 20q-31 69 -80 69q-27 0 -44.5 -20t-17.5 -45q0 -52 71 -110
q50 -41 71 -76t21 -77q0 -64 -47 -107.5t-126 -43.5q-67 0 -108.5 30t-41.5 65z" />
    <glyph glyph-name="t" unicode="t" horiz-adv-x="341" 
d="M125 86l90 366h-83l11 38h81l13 49l97 77l12 -7l-34 -119h127l-11 -38h-125l-89 -364q-12 -48 15 -48q21 0 52 34.5t53 71.5l22 -17q-33 -62 -80.5 -101.5t-103.5 -39.5q-36 0 -48 27.5t1 70.5z" />
    <glyph glyph-name="u" unicode="u" horiz-adv-x="618" 
d="M126 450l6 24l182 28l5 -5l-96 -369q-23 -88 25 -88q57 0 116 72t98 162q29 68 71 216l89 12l-107 -408q-14 -54 13 -54q30 0 92 106l24 -15q-29 -61 -72.5 -102t-94.5 -41q-77 0 -46 108l33 114h-2q-48 -93 -120 -157.5t-141 -64.5q-105 0 -67 145l69 264q7 23 4.5 35
t-19.5 13z" />
    <glyph glyph-name="v" unicode="v" horiz-adv-x="510" 
d="M119 450l6 24l177 28l5 -5l-87 -387q-8 -34 2 -52t30 -18q40 -1 90.5 48.5t87.5 125.5t41 142q0 83 -12 125q34 21 73 21q4 0 11.5 -11t13.5 -30t6 -37q-1 -47 -33.5 -120.5t-83.5 -142.5q-128 -173 -242 -173q-45 0 -64 32.5t-5 98.5l61 278q6 25 3.5 36t-18.5 12z" />
    <glyph glyph-name="w" unicode="w" horiz-adv-x="785" 
d="M122 450l5 24l179 28l5 -5l-88 -376q-10 -41 0 -61t31 -20q54 0 128 112q54 82 113 310q5 17 7 25l86 6l-70 -315q-30 -138 33 -138q39 0 86.5 52t81 130t33.5 144q0 73 -12 115q34 21 72 21q4 0 11.5 -10.5t13.5 -29.5t6 -38q-1 -45 -32 -119t-80 -145
q-118 -172 -223 -172q-43 0 -63.5 26.5t-20.5 70.5q0 25 16 107l-2 2q-46 -92 -108.5 -149t-123.5 -57q-45 0 -66 34t-5 102l63 273q7 26 4 36.5t-19 11.5z" />
    <glyph glyph-name="x" unicode="x" horiz-adv-x="516" 
d="M31 39q0 19 12 34.5t31 15.5q10 0 40 -15q16 -9 29 -9q30 0 104 125l28 48l-36 145q-8 33 -15 42t-21 8l-75 -5l-3 24l165 50l6 -4l40 -168h2l44 68q65 104 133 104q51 0 51 -43q0 -20 -13 -34t-30 -14q-12 0 -32 8q-15 8 -28 8q-35 0 -116 -144l32 -131q17 -69 26 -90.5
t23 -21.5q10 0 20 7.5t22 26t17.5 28.5t19.5 36l26 -14q-15 -31 -25.5 -48.5t-28 -41t-39.5 -35t-48 -11.5q-36 0 -54.5 29t-34.5 94l-18 78h-2l-40 -66q-19 -30 -25.5 -41t-24 -34.5t-29.5 -32.5t-30.5 -18t-38.5 -9q-29 0 -46.5 14.5t-17.5 36.5z" />
    <glyph glyph-name="y" unicode="y" horiz-adv-x="468" 
d="M-5 -187q0 22 16 40.5t35 19.5q17 0 35 -24q23 -31 41 -31q15 0 32.5 19.5t31.5 51.5q24 58 24 124q0 116 -33 350q-6 41 -12.5 55t-22.5 13l-68 -2l-3 25l168 48l8 -4q26 -137 40 -437h3q122 210 141 278q15 54 13 138q37 25 78 25q4 0 8 -6.5t7 -20t3 -29.5
q0 -8 -3 -19.5t-11 -28t-15 -30t-20.5 -36.5t-21.5 -36.5t-25 -41t-24 -39.5q-28 -45 -57.5 -96t-55 -95t-29.5 -51q-33 -57 -48.5 -82.5t-38 -57.5t-39 -44.5t-38 -21.5t-46.5 -9q-32 0 -52.5 17t-20.5 38z" />
    <glyph glyph-name="z" unicode="z" horiz-adv-x="468" 
d="M39 18q0 30 24 54q22 23 351 354h-176q-17 0 -29.5 -4.5t-24.5 -19.5t-18.5 -25.5t-22.5 -39.5l-25 11q30 95 67 142h325l8 -14q-123 -120 -346 -353q25 -3 94 -28q77 -29 113 -29q21 0 39.5 20t28 40.5t26.5 61.5l28 -7q-24 -94 -51 -143.5t-71 -49.5q-46 0 -147 40
q-24 9 -49.5 21.5t-39.5 18.5t-21 6q-13 0 -13 -18v-44q0 -11 -16.5 -17.5t-30.5 -6.5q-23 0 -23 30z" />
    <glyph glyph-name="braceleft" unicode="{" horiz-adv-x="340" 
d="M135 -39q-1 45 45 146q12 27 16.5 38t12 35t5.5 35.5t-7.5 25.5t-23 20.5t-45.5 7.5l8 26q32 1 54 11t33.5 24t17.5 37.5t7 42.5t2 47v8q2 41 6.5 71.5t16.5 61.5t31.5 50t51.5 31.5t75 12.5h17l-7 -25q-83 -6 -106 -64q-12 -34 -14 -108q-3 -100 -14 -131
q-22 -60 -105 -79v-6q37 -8 54.5 -25t15 -47.5t-13 -59.5t-33.5 -78q-38 -86 -37 -116q3 -51 79 -56l-8 -25h-11q-50 0 -85.5 21t-37.5 68z" />
    <glyph glyph-name="bar" unicode="|" horiz-adv-x="270" 
d="M165 -250v1000h68v-1000h-68z" />
    <glyph glyph-name="braceright" unicode="}" horiz-adv-x="340" 
d="M15 -128l7 25q83 6 106 64q11 30 14 108q3 100 14 131q22 60 105 79v6q-37 8 -54.5 25t-15 47.5t13 59.5t33.5 78q38 81 37 116q-3 51 -79 56l8 25h10q50 0 85.5 -21t37.5 -68q1 -42 -45 -146q-12 -27 -16.5 -38t-12 -35t-5.5 -35.5t7.5 -25.5t23 -20.5t45.5 -7.5l-8 -26
q-31 -1 -52.5 -11.5t-32.5 -20.5t-18 -37.5t-7.5 -38.5t-2.5 -47q-1 -10 -1 -15q-3 -53 -10 -88.5t-25 -70t-54.5 -51.5t-91.5 -17h-16z" />
    <glyph glyph-name="asciitilde" unicode="~" horiz-adv-x="570" 
d="M133 201q23 49 52 77.5t78 28.5q34 0 93 -23q65 -23 84 -23q25 0 39.5 11.5t37.5 45.5l40 -25q-46 -101 -120 -101q-28 0 -95 23q-61 23 -90 23q-27 0 -44 -14.5t-34 -47.5z" />
    <glyph glyph-name="uni0400" unicode="&#x400;" horiz-adv-x="596" 
d="M339 841q0 14 11 32t28 18q16 0 58 -28l145 -99l-11 -22l-170 56q-24 7 -34.5 11.5t-18.5 12.5t-8 19zM38 0l6 29l56 6q18 1 26.5 11.5t14.5 36.5l120 528q6 26 1 36t-23 12l-60 4l7 29h506l-38 -167h-30q5 45 2.5 74.5t-29 43.5t-87.5 14h-121q-13 0 -18.5 -5.5
t-9.5 -23.5l-57 -249h131q44 0 66.5 8t33.5 23.5t25 53.5h30l-46 -209h-30q3 53 -11 69.5t-76 16.5h-131l-51 -219q-8 -35 -7 -50t12 -24q17 -13 112 -13q96 0 139 26t80 115h30l-51 -176h-522z" />
    <glyph glyph-name="afii10023" unicode="&#x401;" horiz-adv-x="596" 
d="M514 787q0 27 17 44t42 17q22 0 35 -14.5t13 -34.5q0 -26 -16 -43.5t-42 -17.5q-23 0 -36 13.5t-13 35.5zM306 787q0 27 17 44t42 17q22 0 35 -14.5t13 -34.5q0 -26 -16 -43.5t-42 -17.5q-23 0 -36 13.5t-13 35.5zM38 0l6 29l56 6q18 1 26.5 11.5t14.5 36.5l120 528
q6 26 1 36t-23 12l-60 4l7 29h506l-38 -167h-30q5 45 2.5 74.5t-29 43.5t-87.5 14h-121q-13 0 -18.5 -5.5t-9.5 -23.5l-57 -249h131q44 0 66.5 8t33.5 23.5t25 53.5h30l-46 -209h-30q3 53 -11 69.5t-76 16.5h-131l-51 -219q-8 -35 -7 -50t12 -24q17 -13 112 -13q96 0 139 26
t80 115h30l-51 -176h-522z" />
    <glyph glyph-name="afii10051" unicode="&#x402;" horiz-adv-x="775" 
d="M132 0l7 29l65 4q22 1 32.5 12.5t15.5 35.5l130 576h-49q-73 0 -107.5 -27.5t-58.5 -104.5h-30l38 167h568l-38 -167h-30q5 45 2 74.5t-29.5 43.5t-86.5 14h-83l-68 -299h2q44 31 100.5 54t99.5 23q50 0 86 -18.5t53.5 -49.5t24.5 -61.5t7 -64.5q0 -124 -70 -188.5
t-172 -64.5q-49 0 -76.5 28.5t-27.5 67.5q0 37 15.5 62t43.5 25q19 0 32.5 -11.5t13.5 -25.5q0 -22 -10.5 -44t-10.5 -36q0 -10 1 -15.5t7.5 -10.5t19.5 -5q38 0 66 31.5t40.5 76t17.5 77t5 48.5q0 117 -89 117q-72 0 -109 -14q-68 -26 -85 -70l-65 -289h-198z" />
    <glyph glyph-name="afii10052" unicode="&#x403;" horiz-adv-x="547" 
d="M381 764l145 99q42 28 58 28q17 0 28 -18t11 -32q0 -16 -13 -24t-48 -19l-170 -56zM38 0l6 29l56 5q17 1 26.5 12t14.5 34l120 532q10 42 -22 45l-59 6l6 29h503l-39 -171h-30q5 45 1 75t-32.5 45.5t-87.5 15.5h-111q-14 0 -19.5 -5.5t-9.5 -24.5l-124 -547
q-10 -43 23 -46l75 -5l-6 -29h-291z" />
    <glyph glyph-name="afii10053" unicode="&#x404;" horiz-adv-x="661" 
d="M114 275q0 84 26 160t76.5 137.5t133 98t187.5 36.5q57 0 119 -13.5t102 -39.5l-36 -150h-30q4 85 -34 126.5t-129 41.5q-61 0 -112 -24t-86 -66t-58.5 -91.5t-36.5 -107.5h311l-8 -38h-310q-8 -53 -8 -96q0 -112 54.5 -170.5t144.5 -58.5q81 0 128 36t94 118h33
l-45 -147q-84 -42 -203 -42q-72 0 -127.5 17.5t-90 46t-56.5 67.5t-30.5 78t-8.5 81z" />
    <glyph glyph-name="afii10054" unicode="&#x405;" horiz-adv-x="533" 
d="M69 67l26 153h29q-4 -95 44 -147.5t122 -52.5q71 0 111 43.5t40 101.5q0 57 -31.5 93t-96.5 69q-69 33 -107 75t-38 107q0 34 12 67t37 63.5t72 49t109 18.5q114 0 179 -51l-36 -140h-29q18 156 -121 156q-64 0 -101.5 -36t-37.5 -91q0 -22 9 -41.5t18.5 -31.5t32 -27
t32.5 -20.5t37 -19.5q78 -40 114 -86.5t36 -112.5q0 -43 -13 -80t-40.5 -69.5t-78.5 -51.5t-121 -20q-59 0 -120 22.5t-89 59.5z" />
    <glyph glyph-name="afii10055" unicode="&#x406;" horiz-adv-x="345" 
d="M40 0l6 29l55 6q18 1 27.5 12.5t14.5 35.5l120 526q11 47 -22 50l-59 4l7 29h274l-7 -29l-55 -5q-18 -1 -27 -13t-15 -36l-120 -526q-11 -47 22 -50l59 -4l-6 -29h-274z" />
    <glyph glyph-name="afii10056" unicode="&#x407;" horiz-adv-x="345" 
d="M389 787q0 27 17 44t42 17q22 0 35 -14.5t13 -34.5q0 -26 -16 -43.5t-42 -17.5q-23 0 -36 13.5t-13 35.5zM181 787q0 27 17 44t42 17q22 0 35 -14.5t13 -34.5q0 -26 -16 -43.5t-42 -17.5q-23 0 -36 13.5t-13 35.5zM40 0l6 29l55 6q18 1 27.5 12.5t14.5 35.5l120 526
q11 47 -22 50l-59 4l7 29h274l-7 -29l-55 -5q-18 -1 -27 -13t-15 -36l-120 -526q-11 -47 22 -50l59 -4l-6 -29h-274z" />
    <glyph glyph-name="afii10057" unicode="&#x408;" horiz-adv-x="352" 
d="M-43 -92q79 8 125 50q47 44 80 186l109 468q5 23 0 34t-23 12l-59 5l7 29h275l-7 -29l-55 -4q-18 -1 -27.5 -12t-14.5 -35l-117 -503q-32 -137 -105 -189q-56 -39 -155 -39q-11 0 -33 2v25z" />
    <glyph glyph-name="afii10058" unicode="&#x409;" horiz-adv-x="1026" 
d="M40 84q0 31 15 60.5t50 29.5q20 0 32 -10.5t12 -27.5q0 -22 -12.5 -46t-12.5 -40q0 -27 21 -27q63 0 149.5 166t142.5 420q4 19 -1 34t-21 16l-59 4l7 29h504l-7 -29l-60 -4q-18 -1 -27 -13t-15 -37l-52 -229q34 10 109 10q94 0 155.5 -48.5t61.5 -124.5q0 -23 -3.5 -45
t-20.5 -55.5t-46 -57t-86.5 -41.5t-136.5 -18h-300l6 29l55 6q18 1 27.5 12.5t14.5 35.5l118 518q9 39 -3 47.5t-64 8.5h-18q-54 0 -69.5 -8t-23.5 -45q-65 -281 -157.5 -448.5t-177.5 -167.5q-52 0 -79.5 29t-27.5 67zM642 99q-8 -34 9 -49t85 -15q54 0 94 19.5t59 49.5
t27 56.5t8 51.5q0 61 -37.5 102t-101.5 41q-55 0 -88 -13z" />
    <glyph glyph-name="afii10059" unicode="&#x40a;" horiz-adv-x="1056" 
d="M40 0l6 29l55 6q18 1 27 11.5t15 36.5l120 526q10 47 -22 50l-59 4l7 29h274l-7 -29l-55 -5q-18 -1 -27 -12t-15 -37l-53 -230h334l52 230q11 47 -22 50l-59 4l7 29h279l-7 -29l-60 -4q-18 -1 -27 -12.5t-15 -37.5l-52 -229q34 10 109 10q94 0 155.5 -48.5t61.5 -124.5
q0 -23 -3.5 -45t-20.5 -55.5t-46 -57t-86.5 -41.5t-136.5 -18h-300l6 29l55 6q18 1 27.5 12.5t14.5 35.5l59 258h-334l-58 -258q-6 -25 -1 -37t23 -13l59 -4l-6 -29h-274zM672 99q-8 -34 9 -49t85 -15q54 0 94 19.5t59 49.5t27 56.5t8 51.5q0 61 -37.5 102t-101.5 41
q-55 0 -88 -13z" />
    <glyph glyph-name="afii10060" unicode="&#x40b;" horiz-adv-x="836" 
d="M132 0l7 29l65 4q22 1 32.5 12.5t15.5 35.5l130 576h-49q-73 0 -107.5 -27.5t-58.5 -104.5h-30l38 167h568l-38 -167h-30q5 45 2 74.5t-29.5 43.5t-86.5 14h-83l-68 -299h2q114 77 238 77q57 0 89 -33.5t35 -84t-9 -108.5l-30 -126q-11 -47 22 -50l59 -4l-7 -29h-264
l7 30l45 4q18 1 27 12.5t15 36.5l38 156q32 134 -76 134q-55 0 -102 -8q-27 -4 -63 -28.5t-42 -51.5l-46 -204q-6 -23 0 -35t26 -13l73 -4l-7 -29h-308z" />
    <glyph glyph-name="afii10061" unicode="&#x40c;" horiz-adv-x="714" 
d="M411 764l145 99q42 28 58 28q17 0 28 -18t11 -32q0 -16 -13 -24t-48 -19l-170 -56zM40 0l6 29l55 6q18 1 27.5 12.5t14.5 35.5l120 526q11 47 -22 50l-59 4l7 29h274l-7 -29l-55 -5q-18 -1 -27 -13t-15 -36l-52 -229h17q51 0 105 46t85 111q41 85 77 127.5t81 42.5
q54 0 80 -26t26 -63q0 -72 -56 -72q-20 0 -33 11t-13 26q0 13 7 36t7 36q0 17 -23 17q-19 0 -47.5 -35.5t-52.5 -88.5q-34 -77 -74.5 -121t-79.5 -56v-3q68 -1 117 -60t49 -137q0 -86 20 -118.5t87 -32.5l-8 -35h-56q-73 0 -107.5 32t-35.5 105q-2 110 -11 143
q-20 68 -99 75q-11 1 -23 1h-48l-59 -258q-11 -47 22 -50l59 -4l-6 -29h-274z" />
    <glyph glyph-name="uni040D" unicode="&#x40d;" horiz-adv-x="781" 
d="M430 841q0 14 11 32t28 18q16 0 58 -28l145 -99l-11 -22l-170 56q-24 7 -34.5 11.5t-18.5 12.5t-8 19zM40 0l6 29l55 6q18 1 27.5 12.5t14.5 35.5l120 526q11 47 -22 50l-59 4l7 29h274l-7 -29l-55 -5q-18 -1 -27 -13t-15 -36l-95 -416l427 386q1 4 3 13.5t3 15.5
t2.5 14.5t0.5 14t-3.5 11t-7.5 8t-13 3.5l-59 4l7 29h274l-7 -29l-55 -5q-18 -1 -27 -13t-15 -36l-120 -526q-11 -47 22 -50l59 -4l-6 -29h-274l6 29l55 6q18 1 27.5 12.5t14.5 35.5l100 438l-427 -386l-12 -52q-11 -47 22 -50l59 -4l-6 -29h-274z" />
    <glyph glyph-name="afii10062" unicode="&#x40e;" horiz-adv-x="672" 
d="M337 835q0 33 11.5 59t39.5 26q23 0 38 -11t15 -27q0 -18 -8 -36.5t-8 -31.5q0 -31 51 -31q56 0 96 27t98 101l23 -18q-55 -78 -102 -111.5t-123 -33.5q-59 0 -95 28t-36 59zM94 80q0 44 16 70t46 26q23 0 36 -12t13 -32q0 -15 -12 -40.5t-12 -34.5q0 -34 33 -34
q26 0 59 18.5t50 47.5l7 12l-111 471q-2 10 -5.5 24.5t-4.5 20.5t-4 15t-5.5 12.5t-6.5 7.5t-9.5 5.5t-13.5 1.5l-40 4l7 29h252l-7 -29l-43 -5q-26 -2 -26 -38q0 -38 35 -188l51 -220h1l146 228q36 56 71.5 123.5t35.5 80.5q0 11 -27 14l-48 5l6 29h221l-6 -29
q-7 -1 -20.5 -3t-17.5 -3t-13 -3.5t-12 -5t-9.5 -7.5t-11.5 -12.5t-12 -17.5l-330 -523q-64 -100 -157 -100q-55 0 -88.5 29t-33.5 63z" />
    <glyph glyph-name="afii10145" unicode="&#x40f;" horiz-adv-x="766" 
d="M40 0l7 29l55 5q18 1 27 13t15 36l120 526q11 47 -22 50l-59 4l6 29h274l-6 -29l-55 -6q-18 -1 -27.5 -12.5t-14.5 -35.5l-118 -518q-9 -39 3 -47.5t64 -8.5h162q54 0 69.5 8t23.5 45l119 521q11 47 -22 50l-59 4l6 29h274l-6 -29l-55 -6q-18 -1 -27.5 -12.5t-14.5 -35.5
l-120 -526q-11 -47 22 -50l59 -4l-7 -29h-128q-70 0 -106.5 -5.5t-63.5 -29t-39.5 -55.5t-30.5 -100h-32q7 61 7 89q0 59 -35.5 80t-143.5 21h-121z" />
    <glyph glyph-name="afii10017" unicode="&#x410;" horiz-adv-x="624" 
d="M-23 0l6 29l33 4q24 2 40.5 15t39.5 51q3 5 171 298l168 295h71l74 -602q4 -33 11 -44.5t29 -13.5l38 -3l-6 -29h-246l6 29l53 5q16 2 21.5 10t3.5 29l-23 194h-224q-29 -53 -103 -196q-15 -34 13 -37l55 -5l-6 -29h-225zM263 305h199l-35 294h-2q-120 -216 -162 -294z
" />
    <glyph glyph-name="afii10018" unicode="&#x411;" horiz-adv-x="633" 
d="M40 0l6 29l55 6q18 1 27.5 12.5t14.5 35.5l120 526q11 47 -22 50l-59 4l7 29h480l-39 -171h-30q5 45 1 75t-32.5 45.5t-87.5 15.5h-88q-14 0 -20 -6t-10 -24l-54 -238q34 10 109 10q95 0 157.5 -49.5t62.5 -128.5q0 -24 -3 -45.5t-19.5 -56t-46 -58.5t-89 -42.5
t-140.5 -18.5h-300zM243 99q-8 -34 9 -49t85 -15q57 0 97.5 20t60 50.5t27.5 58t8 52.5q0 60 -38.5 104t-103.5 44q-56 0 -88 -13z" />
    <glyph glyph-name="afii10019" unicode="&#x412;" horiz-adv-x="632" 
d="M38 0l6 29l56 6q18 2 27.5 12.5t14.5 35.5l118 526q6 26 1 36t-22 12l-59 6l6 29h241q124 2 181 -33q63 -37 63 -118q0 -62 -47.5 -108.5t-141.5 -57.5l-1 -3q64 -12 107.5 -52.5t43.5 -112.5q0 -36 -12 -68.5t-41.5 -65.5t-90 -53t-146.5 -20h-304zM242 99q-8 -34 9 -49
t85 -15q94 0 141 52t47 126q0 142 -186 142h-39zM306 390h65q90 0 139 37q59 47 59 118q0 53 -34 82.5t-97 29.5q-49 0 -61.5 -6t-17.5 -29z" />
    <glyph glyph-name="afii10020" unicode="&#x413;" horiz-adv-x="547" 
d="M38 0l6 29l56 5q17 1 26.5 12t14.5 34l120 532q10 42 -22 45l-59 6l6 29h503l-39 -171h-30q5 45 1 75t-32.5 45.5t-87.5 15.5h-111q-14 0 -19.5 -5.5t-9.5 -24.5l-124 -547q-10 -43 23 -46l75 -5l-6 -29h-291z" />
    <glyph glyph-name="afii10021" unicode="&#x414;" horiz-adv-x="708" 
d="M-30 -190l58 225h18q31 0 78 38.5t98 107t100.5 182.5t78.5 246q4 19 -1 34t-21 16l-59 4l7 29h499l-7 -29l-55 -5q-18 -1 -27 -13t-15 -36l-118 -518q-9 -39 3 -47.5t64 -8.5h13l-47 -225h-31q7 61 7 89q0 59 -35.5 80t-143.5 21h-172q-71 0 -112.5 -7.5t-68.5 -31.5
t-40 -50.5t-34 -83.5q-4 -11 -6 -17h-31zM193 84q-29 -31 -17 -40t65 -9h173q54 0 69.5 8t23.5 45l117 513q9 39 -3 47.5t-64 8.5h-18q-54 0 -69.5 -8t-23.5 -45q-40 -172 -108 -306t-145 -214z" />
    <glyph glyph-name="afii10022" unicode="&#x415;" horiz-adv-x="596" 
d="M38 0l6 29l56 6q18 1 26.5 11.5t14.5 36.5l120 528q6 26 1 36t-23 12l-60 4l7 29h506l-38 -167h-30q5 45 2.5 74.5t-29 43.5t-87.5 14h-121q-13 0 -18.5 -5.5t-9.5 -23.5l-57 -249h131q44 0 66.5 8t33.5 23.5t25 53.5h30l-46 -209h-30q3 53 -11 69.5t-76 16.5h-131
l-51 -219q-8 -35 -7 -50t12 -24q17 -13 112 -13q96 0 139 26t80 115h30l-51 -176h-522z" />
    <glyph glyph-name="afii10024" unicode="&#x416;" horiz-adv-x="1054" 
d="M36 -15l8 35q63 0 91.5 31t68.5 120q43 96 108 141.5t158 55.5l1 3q-31 14 -50.5 57t-24 74t-4.5 53q0 117 -44 117q-19 0 -24.5 -6t-5.5 -20q0 -8 4.5 -27t4.5 -27q0 -46 -52 -46q-50 0 -50 67q0 15 4.5 29t15.5 30t36.5 25.5t62.5 9.5q56 0 75 -43t19 -127
q0 -68 29.5 -112.5t87.5 -44.5h10l52 229q11 47 -22 50l-59 4l7 29h274l-7 -29l-55 -5q-18 -1 -27 -13t-15 -36l-52 -229h9q47 0 102.5 46.5t85.5 110.5q41 87 75.5 128.5t79.5 41.5q54 0 80.5 -25.5t26.5 -62.5q0 -36 -13 -54.5t-46 -18.5q-17 0 -30 10.5t-13 25.5
q0 16 6.5 37t6.5 36q0 17 -23 17q-18 0 -45.5 -35t-51.5 -89q-34 -76 -75.5 -120t-78.5 -57l-1 -3q67 -1 117 -60.5t50 -136.5q0 -87 18.5 -119t85.5 -32l-8 -35h-56q-72 0 -105.5 32t-34.5 105q-1 39 -2 61t-5 51t-12.5 45.5t-22 32t-35 22.5t-51.5 7h-43l-59 -258
q-11 -47 22 -50l59 -4l-6 -29h-274l6 29l55 6q18 1 27.5 12.5t14.5 35.5l59 258h-44q-75 0 -123.5 -54.5t-96.5 -164.5q-32 -73 -79.5 -105t-120.5 -32h-56z" />
    <glyph glyph-name="afii10025" unicode="&#x417;" horiz-adv-x="576" 
d="M62 123q0 37 12 60t49 23q23 0 36.5 -14t13.5 -31q0 -18 -5.5 -38.5t-5.5 -33.5q0 -29 29.5 -49t69.5 -20q85 0 144 56.5t59 139.5q0 64 -43 98.5t-118 34.5h-59l8 38h53q87 0 146.5 46.5t59.5 132.5q0 50 -40 78.5t-94 28.5q-75 0 -114.5 -34.5t-80.5 -142.5h-32l38 165
q90 46 188 46t166.5 -41.5t68.5 -118.5q0 -27 -7.5 -51t-26.5 -49.5t-58 -45t-95 -28.5l-1 -3q65 -14 106.5 -56.5t41.5 -107.5q0 -25 -6.5 -50.5t-27.5 -57.5t-55 -56t-94 -40.5t-139 -16.5q-65 0 -126 41.5t-61 96.5z" />
    <glyph glyph-name="afii10026" unicode="&#x418;" horiz-adv-x="781" 
d="M40 0l6 29l55 6q18 1 27.5 12.5t14.5 35.5l120 526q11 47 -22 50l-59 4l7 29h274l-7 -29l-55 -5q-18 -1 -27 -13t-15 -36l-95 -416l427 386q1 4 3 13.5t3 15.5t2.5 14.5t0.5 14t-3.5 11t-7.5 8t-13 3.5l-59 4l7 29h274l-7 -29l-55 -5q-18 -1 -27 -13t-15 -36l-120 -526
q-11 -47 22 -50l59 -4l-6 -29h-274l6 29l55 6q18 1 27.5 12.5t14.5 35.5l100 438l-427 -386l-12 -52q-11 -47 22 -50l59 -4l-6 -29h-274z" />
    <glyph glyph-name="afii10027" unicode="&#x419;" horiz-adv-x="781" 
d="M408 835q0 33 11.5 59t39.5 26q23 0 38 -11t15 -27q0 -18 -8 -36.5t-8 -31.5q0 -31 51 -31q56 0 96 27t98 101l23 -18q-55 -78 -102 -111.5t-123 -33.5q-59 0 -95 28t-36 59zM40 0l6 29l55 6q18 1 27.5 12.5t14.5 35.5l120 526q11 47 -22 50l-59 4l7 29h274l-7 -29
l-55 -5q-18 -1 -27 -13t-15 -36l-95 -416l427 386q1 4 3 13.5t3 15.5t2.5 14.5t0.5 14t-3.5 11t-7.5 8t-13 3.5l-59 4l7 29h274l-7 -29l-55 -5q-18 -1 -27 -13t-15 -36l-120 -526q-11 -47 22 -50l59 -4l-6 -29h-274l6 29l55 6q18 1 27.5 12.5t14.5 35.5l100 438l-427 -386
l-12 -52q-11 -47 22 -50l59 -4l-6 -29h-274z" />
    <glyph glyph-name="afii10028" unicode="&#x41a;" horiz-adv-x="714" 
d="M40 0l6 29l55 6q18 1 27.5 12.5t14.5 35.5l120 526q11 47 -22 50l-59 4l7 29h274l-7 -29l-55 -5q-18 -1 -27 -13t-15 -36l-52 -229h17q51 0 105 46t85 111q41 85 77 127.5t81 42.5q54 0 80 -26t26 -63q0 -72 -56 -72q-20 0 -33 11t-13 26q0 13 7 36t7 36q0 17 -23 17
q-19 0 -47.5 -35.5t-52.5 -88.5q-34 -77 -74.5 -121t-79.5 -56v-3q68 -1 117 -60t49 -137q0 -86 20 -118.5t87 -32.5l-8 -35h-56q-73 0 -107.5 32t-35.5 105q-2 110 -11 143q-20 68 -99 75q-11 1 -23 1h-48l-59 -258q-11 -47 22 -50l59 -4l-6 -29h-274z" />
    <glyph glyph-name="afii10029" unicode="&#x41b;" horiz-adv-x="746" 
d="M40 84q0 31 15 60.5t50 29.5q20 0 32 -10.5t12 -27.5q0 -22 -12.5 -46t-12.5 -40q0 -27 21 -27q63 0 150 166.5t142 419.5q4 19 -1 34t-21 16l-59 4l7 29h499l-7 -29l-55 -5q-18 -1 -27 -13t-15 -36l-120 -526q-11 -47 22 -50l59 -4l-6 -29h-274l6 29l55 6
q18 1 27.5 12.5t14.5 35.5l118 518q9 39 -3 47.5t-64 8.5h-18q-54 0 -69.5 -8t-23.5 -45q-65 -281 -157.5 -448.5t-177.5 -167.5q-52 0 -79.5 29t-27.5 67z" />
    <glyph glyph-name="afii10030" unicode="&#x41c;" horiz-adv-x="920" 
d="M31 0l5 29l31 3q24 2 37 11t22 32q18 50 35 124l94 410q11 45 -22 48l-59 6l7 29h194q14 -75 57 -267l56 -277h3l177 270q120 183 173 274h196l-7 -29l-55 -4q-18 -1 -27 -12.5t-15 -37.5l-120 -526q-6 -24 -1 -35.5t23 -12.5l59 -6l-6 -29h-272l6 29l55 6q18 1 27 11.5
t15 36.5l123 523h-3l-389 -594h-28l-120 594h-2l-92 -407q-16 -72 -21 -124q-2 -22 9 -31.5t37 -11.5l39 -3l-5 -29h-236z" />
    <glyph glyph-name="afii10031" unicode="&#x41d;" horiz-adv-x="775" 
d="M40 0l6 29l55 6q18 1 27 11.5t15 36.5l120 526q10 47 -22 50l-59 4l7 29h274l-7 -29l-55 -5q-18 -1 -27 -12t-15 -37l-53 -230h334l52 230q10 47 -22 50l-59 4l7 29h274l-7 -29l-55 -5q-18 -1 -27 -12t-15 -37l-120 -526q-11 -47 22 -50l59 -4l-6 -29h-274l6 29l55 6
q18 1 27 11.5t15 36.5l59 258h-334l-58 -258q-6 -25 -1 -37t23 -13l59 -4l-6 -29h-274z" />
    <glyph glyph-name="afii10032" unicode="&#x41e;" horiz-adv-x="753" 
d="M114 270q0 136 69 253q111 184 317 184q131 0 210 -73t79 -220q0 -125 -63 -239q-48 -87 -122.5 -138.5t-196.5 -51.5q-144 0 -218.5 78t-74.5 207zM219 230q0 -102 48 -156t131 -54q162 0 239 200q47 122 47 246q0 103 -47.5 154.5t-132.5 51.5q-142 0 -223 -168
q-62 -131 -62 -274z" />
    <glyph glyph-name="afii10033" unicode="&#x41f;" horiz-adv-x="768" 
d="M40 0l6 29l55 6q18 1 27.5 12.5t14.5 35.5l120 526q11 47 -22 50l-59 4l7 29h695l-7 -29l-55 -5q-18 -1 -27 -13t-15 -36l-120 -526q-11 -47 22 -50l59 -4l-6 -29h-274l6 29l55 6q18 1 27.5 12.5t14.5 35.5l118 518q9 39 -3 47.5t-64 8.5h-164q-54 0 -69.5 -8t-23.5 -45
l-119 -521q-11 -47 22 -50l59 -4l-6 -29h-274z" />
    <glyph glyph-name="afii10034" unicode="&#x420;" horiz-adv-x="614" 
d="M40 0l6 29l55 6q18 1 27 11.5t15 36.5l120 526q11 46 -22 49l-59 5l7 29h234q114 0 177 -36q81 -46 81 -148q0 -56 -26.5 -104t-74.5 -77q-77 -47 -222 -47h-74l-45 -197q-6 -24 -1 -35.5t23 -12.5l69 -6l-6 -29h-284zM301 357q-3 -15 -3.5 -20.5t5 -12t19 -8t39.5 -1.5
q103 0 159 53t56 158q0 131 -150 131q-36 0 -47.5 -7t-16.5 -28z" />
    <glyph glyph-name="afii10035" unicode="&#x421;" horiz-adv-x="661" 
d="M114 275q0 140 68 250q49 80 137 131t218 51q57 0 119 -13.5t102 -39.5l-36 -150h-30q4 85 -34 126.5t-129 41.5q-151 0 -236 -142q-35 -58 -53.5 -134t-18.5 -147q0 -112 54.5 -170.5t144.5 -58.5q85 0 133.5 40t95.5 126h30l-49 -159q-84 -42 -203 -42
q-72 0 -127.5 17.5t-90 46t-56.5 67.5t-30.5 78t-8.5 81z" />
    <glyph glyph-name="afii10036" unicode="&#x422;" horiz-adv-x="606" 
d="M137 525l38 167h568l-38 -167h-30q5 45 2 74.5t-29.5 43.5t-86.5 14h-63l-130 -576q-6 -23 0 -35t26 -13l73 -4l-7 -29h-308l7 29l65 4q22 1 32.5 12.5t15.5 35.5l130 576h-69q-73 0 -107.5 -27.5t-58.5 -104.5h-30z" />
    <glyph glyph-name="afii10037" unicode="&#x423;" horiz-adv-x="672" 
d="M94 80q0 44 16 70t46 26q23 0 36 -12t13 -32q0 -15 -12 -40.5t-12 -34.5q0 -34 33 -34q26 0 59 18.5t50 47.5l7 12l-111 471q-2 10 -5.5 24.5t-4.5 20.5t-4 15t-5.5 12.5t-6.5 7.5t-9.5 5.5t-13.5 1.5l-40 4l7 29h252l-7 -29l-43 -5q-26 -2 -26 -38q0 -38 35 -188
l51 -220h1l146 228q36 56 71.5 123.5t35.5 80.5q0 11 -27 14l-48 5l6 29h221l-6 -29q-7 -1 -20.5 -3t-17.5 -3t-13 -3.5t-12 -5t-9.5 -7.5t-11.5 -12.5t-12 -17.5l-330 -523q-64 -100 -157 -100q-55 0 -88.5 29t-33.5 63z" />
    <glyph glyph-name="afii10038" unicode="&#x424;" horiz-adv-x="851" 
d="M119 313q0 36 8.5 69.5t34.5 71.5t67 65.5t113 45.5t167 18q1 4 3 13.5t3 15.5t2.5 14.5t0.5 14t-3.5 11t-7.5 8.5t-13 3l-65 4l7 29h285l-7 -29l-60 -5q-18 -1 -27 -13t-15 -36l-7 -30q85 0 144.5 -17.5t89 -47.5t41.5 -60.5t12 -64.5q0 -36 -8.5 -69.5t-34.5 -71.5
t-67.5 -65.5t-113.5 -45.5t-167 -18l-9 -40q-11 -49 22 -50l65 -4l-6 -29h-285l6 29l60 6q18 1 27.5 12.5t14.5 35.5l9 40q-68 0 -120.5 12t-83 31t-50 45.5t-26 50.5t-6.5 51zM224 299q0 -72 45 -105t145 -33l87 384q-84 0 -142.5 -23t-86 -62.5t-38 -77.5t-10.5 -83z
M510 161q68 0 119.5 16t80.5 40.5t47 59t24 65t6 65.5q0 72 -45 105t-145 33z" />
    <glyph glyph-name="afii10039" unicode="&#x425;" horiz-adv-x="632" 
d="M-1 0l6 29q49 5 68.5 12t42.5 32q62 66 236 276q-19 43 -58.5 140t-55.5 131q-11 25 -28 32t-65 11l6 29h260l-6 -29l-52 -4q-30 -3 -17 -36q62 -152 82 -199h2q82 94 166 204q21 28 -9 31l-43 4l6 29h230l-6 -29q-68 -5 -96 -29q-97 -89 -232 -251q124 -279 135 -303
q14 -31 32 -39t71 -12l-6 -29h-270l5 29l52 5q31 3 17 36q-13 33 -30 72t-37.5 87.5t-32.5 75.5h-4q-116 -143 -185 -242q-17 -25 14 -28l57 -6l-6 -29h-249z" />
    <glyph glyph-name="afii10040" unicode="&#x426;" horiz-adv-x="766" 
d="M40 0l7 29l55 5q18 1 27 13t15 36l120 526q11 47 -22 50l-59 4l6 29h274l-6 -29l-55 -6q-18 -1 -27.5 -12.5t-14.5 -35.5l-118 -518q-9 -39 3 -47.5t64 -8.5h162q54 0 69.5 8t23.5 45l119 521q11 47 -22 50l-59 4l6 29h274l-6 -29l-55 -6q-18 -1 -27.5 -12.5t-14.5 -35.5
l-118 -518q-9 -39 3 -47.5t64 -8.5h22l-47 -225h-31q7 61 7 89q0 59 -35.5 80t-143.5 21h-460z" />
    <glyph glyph-name="afii10041" unicode="&#x427;" horiz-adv-x="727" 
d="M176 663l7 29h264l-7 -30l-45 -4q-18 -1 -27 -12.5t-15 -36.5l-38 -156q-32 -134 76 -134q55 0 102 8q27 4 63 28.5t42 51.5l46 202q11 49 -22 50l-49 3l7 30h264l-7 -29l-55 -5q-18 -1 -27 -13t-15 -36l-120 -526q-11 -47 22 -50l59 -4l-6 -29h-279l6 29l60 5
q18 1 27.5 12.5t14.5 36.5l58 251h-2q-114 -77 -238 -77q-57 0 -89 33.5t-35 84t9 108.5l30 126q11 47 -22 50z" />
    <glyph glyph-name="afii10042" unicode="&#x428;" horiz-adv-x="1064" 
d="M40 0l7 29l55 5q18 1 27 13t15 36l120 526q11 47 -22 50l-59 4l6 29h274l-6 -29l-55 -6q-18 -1 -27.5 -12.5t-14.5 -35.5l-118 -518q-9 -39 3 -47.5t64 -8.5h102q54 0 69.5 8t23.5 45l119 521q3 12 3 22q0 27 -25 28l-59 4l6 29h274l-6 -29l-55 -6q-18 -1 -27.5 -12.5
t-14.5 -35.5l-118 -518q-4 -16 -4 -28q0 -19 14 -23.5t57 -4.5h102q54 0 69.5 8t23.5 45l119 521q11 47 -22 50l-59 4l6 29h274l-6 -29l-55 -6q-18 -1 -27.5 -12.5t-14.5 -35.5l-118 -518q-9 -39 3 -47.5t64 -8.5h13l-8 -35h-992z" />
    <glyph glyph-name="afii10043" unicode="&#x429;" horiz-adv-x="1065" 
d="M40 0l7 29l55 5q18 1 27 13t15 36l120 526q11 47 -22 50l-59 4l6 29h274l-6 -29l-55 -6q-18 -1 -27.5 -12.5t-14.5 -35.5l-118 -518q-9 -39 3 -47.5t64 -8.5h102q54 0 69.5 8t23.5 45l119 521q3 12 3 22q0 27 -25 28l-59 4l6 29h274l-6 -29l-55 -6q-18 -1 -27.5 -12.5
t-14.5 -35.5l-118 -518q-4 -16 -4 -28q0 -19 14 -23.5t57 -4.5h102q54 0 69.5 8t23.5 45l119 521q11 47 -22 50l-59 4l6 29h274l-6 -29l-55 -6q-18 -1 -27.5 -12.5t-14.5 -35.5l-118 -518q-9 -39 3 -47.5t64 -8.5h22l-47 -225h-31q7 61 7 89q0 59 -35.5 80t-143.5 21h-759z
" />
    <glyph glyph-name="afii10044" unicode="&#x42a;" horiz-adv-x="761" 
d="M142 528l36 164h424l-7 -29l-60 -4q-18 -1 -27 -13t-15 -37l-52 -229q34 10 109 10q94 0 155.5 -48.5t61.5 -124.5q0 -23 -3.5 -45t-20.5 -55.5t-46 -57t-86.5 -41.5t-136.5 -18h-305l6 29l58 6q19 1 29 12.5t15 35.5l118 518q9 39 -3 47.5t-64 8.5h-2q-27 0 -43.5 -3
t-38.5 -14.5t-39 -39t-32 -72.5h-31zM377 99q-8 -34 9 -49t85 -15q54 0 94 19.5t59 49.5t27 56.5t8 51.5q0 61 -37.5 102t-101.5 41q-56 0 -88 -13z" />
    <glyph glyph-name="afii10045" unicode="&#x42b;" horiz-adv-x="926" 
d="M620 0l6 29l55 6q18 1 27.5 12.5t14.5 35.5l120 526q11 47 -22 50l-59 4l7 29h274l-7 -29l-55 -5q-18 -1 -27 -13t-15 -36l-120 -526q-11 -47 22 -50l59 -4l-6 -29h-274zM40 0l6 29l55 6q18 1 27.5 12.5t14.5 35.5l120 526q11 47 -22 50l-59 4l7 29h279l-7 -29l-60 -4
q-18 -1 -27 -13t-15 -37l-52 -229q34 10 109 10q94 0 155.5 -48.5t61.5 -124.5q0 -23 -3.5 -45t-20.5 -55.5t-46 -57t-86.5 -41.5t-136.5 -18h-300zM243 99q-8 -34 9 -49t85 -15q54 0 94 19.5t59 49.5t27 56.5t8 51.5q0 61 -37.5 102t-101.5 41q-55 0 -88 -13z" />
    <glyph glyph-name="afii10046" unicode="&#x42c;" horiz-adv-x="627" 
d="M40 0l6 29l55 6q18 1 27.5 12.5t14.5 35.5l120 526q11 47 -22 50l-59 4l7 29h279l-7 -29l-60 -4q-18 -1 -27 -13t-15 -37l-52 -229q34 10 109 10q94 0 155.5 -48.5t61.5 -124.5q0 -23 -3.5 -45t-20.5 -55.5t-46 -57t-86.5 -41.5t-136.5 -18h-300zM243 99q-8 -34 9 -49
t85 -15q54 0 94 19.5t59 49.5t27 56.5t8 51.5q0 61 -37.5 102t-101.5 41q-55 0 -88 -13z" />
    <glyph glyph-name="afii10047" unicode="&#x42d;" horiz-adv-x="603" 
d="M61 122q0 84 60 84q24 0 37.5 -12.5t13.5 -35.5q0 -15 -5 -38t-5 -31q0 -27 27.5 -48t77.5 -21q68 0 123.5 52t86.5 122t46 151h-288l8 38h286q5 40 5 68q0 89 -45 155t-110 66q-64 0 -111.5 -36.5t-86.5 -139.5h-32l39 170q32 14 52.5 21t58 13.5t80.5 6.5
q120 0 190 -85t70 -201q0 -74 -26.5 -162.5t-83.5 -153.5q-52 -59 -113 -89.5t-161 -30.5q-34 0 -77 14t-80 47.5t-37 75.5z" />
    <glyph glyph-name="afii10048" unicode="&#x42e;" horiz-adv-x="1048" 
d="M40 0l6 29l55 6q18 1 27.5 12.5t14.5 35.5l120 526q11 47 -22 50l-59 4l7 29h274l-7 -29l-55 -5q-18 -1 -27 -13t-15 -36l-52 -230h114q17 76 57 144q111 184 317 184q131 0 210 -73t79 -220q0 -125 -63 -239q-48 -87 -122.5 -138.5t-196.5 -51.5q-144 0 -218.5 78
t-74.5 207q0 38 5 71h-116l-59 -258q-11 -47 22 -50l59 -4l-6 -29h-274zM514 230q0 -102 48 -156t131 -54q162 0 239 200q47 122 47 246q0 103 -47.5 154.5t-132.5 51.5q-142 0 -223 -168q-62 -131 -62 -274z" />
    <glyph glyph-name="afii10049" unicode="&#x42f;" horiz-adv-x="731" 
d="M36 -15l8 35q33 0 56 7.5t41.5 29.5t30.5 45t32 69q18 40 37 67t44 42t43 22t52 16v3q-38 19 -61.5 37.5t-43 55.5t-19.5 86q0 79 76.5 135.5t224.5 56.5h291l-7 -29l-55 -5q-18 -1 -27 -13t-15 -36l-120 -526q-11 -47 22 -50l59 -4l-6 -29h-274l6 29l55 6
q18 1 27.5 12.5t14.5 35.5l50 221h-66q-81 0 -130.5 -41.5t-89.5 -140.5q-29 -72 -78 -104.5t-122 -32.5h-56zM361 479q0 -61 37 -100.5t91 -39.5h23q47 0 62 6t21 33l56 242q5 22 -8 29.5t-60 7.5h-22q-109 0 -154.5 -47.5t-45.5 -130.5z" />
    <glyph glyph-name="afii10065" unicode="&#x430;" horiz-adv-x="561" 
d="M66 107q0 41 13.5 91.5t42.5 104.5t69 98t99.5 72.5t127.5 28.5q43 0 73 -21l5 13h84l-106 -399q-15 -55 10 -55q19 0 45 35t45 71l24 -14q-28 -63 -70.5 -103.5t-95.5 -40.5q-77 0 -44 112l34 114h-2q-129 -226 -258 -226q-48 0 -72 34.5t-24 84.5zM165 110
q0 -70 44 -70q65 0 165 152q72 108 107 253q-24 22 -61 22q-55 0 -105.5 -40t-81.5 -97.5t-49.5 -117t-18.5 -102.5z" />
    <glyph glyph-name="afii10066" unicode="&#x431;" horiz-adv-x="542" 
d="M89 169q0 63 21.5 168t75.5 216q67 139 242 151q90 6 123 14t44 32h26q-34 -76 -73 -99.5t-110 -31.5q-80 -9 -116.5 -19t-58 -27.5t-50.5 -59.5q-17 -24 -43 -113l4 -1q82 103 209 103q33 0 62.5 -8.5t57 -27t43.5 -54.5t16 -85q0 -47 -15.5 -101.5t-47 -109.5
t-90.5 -91.5t-136 -36.5q-91 0 -137.5 49t-46.5 132zM186 129q0 -106 90 -106q39 0 72 28.5t54 70t36 90.5t21 87.5t6 62.5q0 105 -83 105q-47 0 -86 -37t-62 -92t-35.5 -110.5t-12.5 -98.5z" />
    <glyph glyph-name="afii10067" unicode="&#x432;" horiz-adv-x="485" 
d="M80 169q0 83 36.5 158.5t106 125t154.5 49.5q55 0 87 -28t32 -58q0 -35 -6.5 -50.5t-32.5 -42.5q-35 -37 -96 -53v-2q51 -4 87 -33t36 -86q0 -69 -67.5 -115t-167.5 -46q-31 0 -58 8t-53.5 27t-42 56.5t-15.5 89.5zM178 182q0 -35 2.5 -57.5t11 -46.5t28 -36t50.5 -12
q48 0 82.5 32.5t34.5 94.5q0 35 -20 59t-48 24q-34 0 -89 -16l-50 -14q0 -4 -1 -14.5t-1 -13.5zM182 242q127 30 179.5 67.5t52.5 98.5q0 26 -19 42.5t-46 16.5q-60 0 -107 -66.5t-60 -158.5z" />
    <glyph glyph-name="afii10068" unicode="&#x433;" horiz-adv-x="423" 
d="M80 89q0 37 12.5 64.5t37 47.5t49 34t61 34t61.5 39q37 28 37 93q0 31 -18 48.5t-45 17.5q-31 0 -58.5 -17.5t-72.5 -56.5l-21 19q57 55 92.5 72.5t79.5 17.5q67 0 94.5 -28.5t27.5 -61.5q0 -42 -15.5 -68.5t-36 -38t-63.5 -35.5t-77 -50t-44.5 -56.5t-10.5 -72.5
q0 -18 3.5 -31t21 -25t49.5 -12q43 0 77.5 27t88.5 91l19 -19q-59 -74 -99.5 -104t-100.5 -30q-69 0 -109 29t-40 72z" />
    <glyph glyph-name="afii10069" unicode="&#x434;" horiz-adv-x="550" 
d="M84 169q0 29 7.5 67.5t28 86.5t50.5 87t80.5 65.5t113.5 26.5q56 0 86.5 -27.5t33.5 -63.5l4 1q10 31 10 122q0 86 -32.5 129.5t-92.5 43.5q-90 0 -153 -105l-23 17q72 123 173 123q196 0 196 -251q0 -80 -18.5 -189.5t-57.5 -172.5q-87 -141 -226 -141
q-91 0 -135.5 48.5t-44.5 132.5zM181 129q0 -106 86 -106q39 0 72 28.5t54 70t36 90.5t21 87.5t6 62.5q0 105 -83 105q-47 0 -85.5 -37t-60.5 -92t-34 -110t-12 -99z" />
    <glyph glyph-name="afii10070" unicode="&#x435;" horiz-adv-x="453" 
d="M80 152q0 134 83 236q92 114 219 114q59 0 91.5 -29t32.5 -71q0 -54 -42 -96q-78 -72 -284 -114q-1 -7 -1 -16q0 -139 91 -139q27 0 51.5 10.5t46.5 30t35.5 35t31.5 38.5l23 -20q-88 -143 -229 -143q-25 0 -48 6.5t-47.5 22.5t-39 50.5t-14.5 84.5zM182 226
q119 25 174.5 74.5t55.5 107.5q0 26 -16 42.5t-42 16.5q-58 0 -108.5 -73.5t-63.5 -167.5z" />
    <glyph glyph-name="afii10072" unicode="&#x436;" horiz-adv-x="982" 
d="M50 64q0 25 17 40.5t44 15.5q13 0 21 -10.5t8 -24.5q0 -24 1.5 -34.5t10 -19t27.5 -8.5q37 0 72 47.5t56 117t21 134.5q0 69 -12.5 100t-51.5 31q-63 0 -147 -114l-24 19q47 78 102.5 111t103.5 33q44 0 82.5 -45.5t38.5 -128.5q0 -26 -5 -58h89l53 220l92 12l-55 -232
h88q29 97 95.5 164.5t148.5 67.5q44 0 77 -23.5t33 -52.5q0 -25 -17 -40.5t-44 -15.5q-13 0 -21 10.5t-8 24.5q0 24 -1.5 34.5t-10 19t-27.5 8.5q-37 0 -72 -47.5t-56 -117t-21 -134.5q0 -69 12.5 -100t51.5 -31q63 0 147 114l24 -19q-47 -78 -102.5 -111t-103.5 -33
q-44 0 -82.5 45.5t-38.5 128.5q0 35 8 73h-89l-56 -235l-92 -12l59 247h-88q-26 -102 -94.5 -174.5t-153.5 -72.5q-44 0 -77 23.5t-33 52.5z" />
    <glyph glyph-name="afii10073" unicode="&#x437;" horiz-adv-x="447" 
d="M54 125q0 25 14.5 43t39.5 18q38 0 38 -34q0 -6 -1 -17.5t-1 -16.5q0 -95 90 -95q49 0 81.5 41.5t32.5 90.5q0 43 -21.5 69.5t-62.5 26.5h-63l8 35h59q62 0 85 33.5t23 77.5q0 32 -24 51t-55 19q-84 0 -157 -100l-25 19q37 57 83.5 86.5t115.5 29.5q68 0 112 -28t44 -89
q0 -77 -125 -109v-3q48 -13 74 -46.5t26 -77.5q0 -67 -63 -114t-154 -47q-83 0 -128.5 39.5t-45.5 97.5z" />
    <glyph glyph-name="afii10074" unicode="&#x438;" horiz-adv-x="618" 
d="M126 450l6 24l182 28l5 -5l-96 -369q-23 -88 25 -88q57 0 116 72t98 162q29 68 71 216l89 12l-107 -408q-14 -54 13 -54q30 0 92 106l24 -15q-29 -61 -72.5 -102t-94.5 -41q-77 0 -46 108l33 114h-2q-48 -93 -120 -157.5t-141 -64.5q-105 0 -67 145l69 264q7 23 4.5 35
t-19.5 13z" />
    <glyph glyph-name="afii10075" unicode="&#x439;" horiz-adv-x="618" 
d="M305 673q0 68 61 68q40 0 40 -35q0 -10 -3.5 -22.5t-3.5 -24.5q0 -29 12 -42.5t39 -13.5q30 0 60 34t66 111l26 -11q-52 -169 -169 -169q-58 0 -93 37.5t-35 67.5zM126 450l6 24l182 28l5 -5l-96 -369q-23 -88 25 -88q57 0 116 72t98 162q29 68 71 216l89 12l-107 -408
q-14 -54 13 -54q30 0 92 106l24 -15q-29 -61 -72.5 -102t-94.5 -41q-77 0 -46 108l33 114h-2q-48 -93 -120 -157.5t-141 -64.5q-105 0 -67 145l69 264q7 23 4.5 35t-19.5 13z" />
    <glyph glyph-name="afii10076" unicode="&#x43a;" horiz-adv-x="582" 
d="M98 -12l97 407q8 29 5 38.5t-25 11.5l-55 6l6 23l178 28l5 -5l-72 -292h4l21 23q15 40 55 103t78 102q67 69 125 69q77 0 77 -49q0 -20 -14.5 -39t-34.5 -19q-19 0 -35.5 23t-30.5 23q-31 0 -58 -27q-56 -56 -122 -168v-3q43 28 93 28q45 0 62.5 -21.5t17.5 -61.5
q0 -25 -8 -61t-8 -42q0 -45 28 -45q33 0 88 106l24 -14q-28 -64 -69 -104t-91 -40q-30 0 -46 26t-16 59q0 13 6 48.5t6 58.5q0 27 -6.5 41t-27.5 14q-19 0 -62 -27.5t-60 -59.5q-11 -19 -37 -125l-6 -23z" />
    <glyph glyph-name="afii10077" unicode="&#x43b;" horiz-adv-x="552" 
d="M17 43q0 22 13.5 37.5t34.5 15.5q18 0 33 -17t27 -17q47 0 107 141q17 40 33.5 95.5t24.5 91.5l7 35q7 29 -23 35l-58 10l5 20h324l-100 -395q-14 -55 10 -55q19 0 45 35t45 71l24 -14q-28 -63 -69.5 -103.5t-92.5 -40.5q-39 0 -51.5 26.5t-0.5 71.5l87 338q7 31 -25 31
h-35q-25 0 -36.5 -14.5t-19.5 -48.5q-12 -51 -19 -79.5t-21.5 -77.5t-26.5 -78t-31 -65t-39 -56t-46.5 -34t-56.5 -14q-29 0 -49 16.5t-20 38.5z" />
    <glyph glyph-name="afii10078" unicode="&#x43c;" horiz-adv-x="750" 
d="M20 43q0 20 13 35t32 15q17 0 32.5 -15.5t27.5 -15.5q15 0 30 14t27.5 40t23 54t20.5 67t17 68t15.5 66.5t12.5 53.5q3 14 -4 23t-19 12l-58 10l5 20h194l28 -372h3l215 372h110l-102 -395q-14 -55 10 -55q19 0 45 35t45 71l24 -14q-28 -63 -69.5 -103.5t-92.5 -40.5
q-39 0 -51.5 26.5t-0.5 71.5l89 338h-2l-250 -424h-49l-29 437h-2q-3 -12 -8 -37q-10 -44 -14.5 -66t-14 -61.5t-15.5 -60.5t-16 -53t-18.5 -49.5t-20.5 -40.5t-24 -35t-26.5 -24t-31 -17t-35.5 -5q-29 0 -47.5 16t-18.5 39z" />
    <glyph glyph-name="afii10079" unicode="&#x43d;" horiz-adv-x="612" 
d="M98 -12l97 407q8 29 5 38.5t-25 11.5l-55 6l6 23l178 28l5 -5l-54 -227h207l57 220l89 12l-103 -407q-15 -55 10 -55q19 0 45 35t45 71l24 -14q-28 -63 -69.5 -103.5t-92.5 -40.5q-39 0 -51.5 26.5t-0.5 71.5l38 149h-207l-56 -235z" />
    <glyph glyph-name="afii10080" unicode="&#x43e;" horiz-adv-x="537" 
d="M84 169q0 30 7.5 68t28 86t52 87t85.5 65.5t121 26.5q33 0 62.5 -8.5t57 -27t43.5 -54.5t16 -85q0 -112 -63 -211q-81 -128 -226 -128q-91 0 -137.5 49t-46.5 132zM181 129q0 -106 90 -106q39 0 72 28.5t54 70t36 90.5t21 87.5t6 62.5q0 105 -83 105q-47 0 -86 -37
t-62 -92t-35.5 -110.5t-12.5 -98.5z" />
    <glyph glyph-name="afii10081" unicode="&#x43f;" horiz-adv-x="618" 
d="M98 -12l105 409q8 24 5 35.5t-20 12.5l-62 5l6 24l183 28l5 -5l-65 -218h3q48 93 119.5 158t140.5 65q58 0 75 -43t-4 -102l-78 -262q-15 -55 10 -55q19 0 45 35t45 71l24 -14q-28 -63 -70 -103.5t-95 -40.5q-39 0 -52 28t1 70l86 293q9 29 0.5 50t-33.5 21
q-38 0 -83 -41.5t-77.5 -92t-53.5 -98.5q-31 -74 -72 -218z" />
    <glyph glyph-name="afii10082" unicode="&#x440;" horiz-adv-x="590" 
d="M57 -242l140 639q4 17 4.5 25.5t-3.5 15t-16 7.5l-62 5l6 24l181 28l5 -5l-57 -211h3q55 103 123.5 159.5t128.5 56.5q111 0 111 -134q0 -27 -8.5 -69t-31.5 -97.5t-56 -102t-90 -79t-126 -32.5q-72 0 -108 22l-55 -240zM211 53q35 -30 88 -30q57 0 103 42t70.5 101.5
t37 112.5t12.5 88q0 83 -54 83q-40 0 -89.5 -48t-88.5 -116q-49 -87 -79 -233z" />
    <glyph glyph-name="afii10083" unicode="&#x441;" horiz-adv-x="441" 
d="M81 148q0 84 34.5 164t102.5 135t153 55q56 0 92.5 -25.5t36.5 -63.5q0 -23 -22 -39.5t-42 -16.5q-26 0 -29 30q-8 80 -60 80q-44 0 -83.5 -48t-61.5 -116.5t-22 -134.5q0 -61 19 -96t69 -35q74 0 160 117l24 -19q-88 -147 -228 -147q-60 0 -101.5 38t-41.5 122z" />
    <glyph glyph-name="afii10084" unicode="&#x442;" horiz-adv-x="912" 
d="M98 -12l103 409q7 24 5 35.5t-19 12.5l-61 5l6 24l181 28l5 -5l-63 -207h3q53 97 120 154.5t134 57.5q52 0 67.5 -38.5t-7.5 -110.5l-20 -63h4q55 99 121 155.5t132 56.5q40 0 61 -20t21.5 -52.5t-9.5 -72.5l-77 -262q-15 -55 10 -55q19 0 45 35t45 71l24 -14
q-28 -63 -70 -103.5t-93 -40.5q-38 0 -51.5 26t-0.5 72l86 294q10 32 0.5 51t-34.5 19q-39 0 -83.5 -41t-76 -90t-52.5 -98q-25 -58 -71 -221l-87 -12l26 98l74 280q22 84 -30 84q-56 0 -120 -79t-95 -158q-19 -49 -66 -213z" />
    <glyph glyph-name="afii10085" unicode="&#x443;" horiz-adv-x="468" 
d="M-5 -187q0 22 16 40.5t35 19.5q17 0 35 -24q23 -31 41 -31q15 0 32.5 19.5t31.5 51.5q24 58 24 124q0 116 -33 350q-6 41 -12.5 55t-22.5 13l-68 -2l-3 25l168 48l8 -4q26 -137 40 -437h3q122 210 141 278q15 54 13 138q37 25 78 25q4 0 8 -6.5t7 -20t3 -29.5
q0 -8 -3 -19.5t-11 -28t-15 -30t-20.5 -36.5t-21.5 -36.5t-25 -41t-24 -39.5q-28 -45 -57.5 -96t-55 -95t-29.5 -51q-33 -57 -48.5 -82.5t-38 -57.5t-39 -44.5t-38 -21.5t-46.5 -9q-32 0 -52.5 17t-20.5 38z" />
    <glyph glyph-name="afii10086" unicode="&#x444;" horiz-adv-x="752" 
d="M84 159q0 85 34 164t95 129t133 50q33 0 53 -8t36 -31h2q6 28 7 34l8 35q8 34 15 57.5t22 55t33 50.5t47.5 33t66.5 14q42 0 71.5 -27t29.5 -55q0 -44 -49 -44q-9 0 -17.5 7t-9.5 16q-5 41 -15.5 54.5t-33.5 13.5q-21 0 -36.5 -34t-34.5 -118l-17 -74l-15 -61h2
q18 36 56.5 59t72.5 23q57 0 94.5 -48t37.5 -123q0 -85 -34 -164t-95 -129t-133 -50q-33 0 -53 8t-36 31h-2q-6 -28 -7 -34l-6 -25q-8 -34 -15 -57.5t-22 -55t-33 -50.5t-47.5 -33t-66.5 -14q-42 0 -71.5 27t-29.5 55q0 44 49 44q9 0 17.5 -7t9.5 -16q5 -41 15.5 -54.5
t33.5 -13.5q21 0 36.5 34t34.5 118l15 64l15 61h-2q-18 -36 -56.5 -59t-72.5 -23q-57 0 -94.5 48t-37.5 123zM181 131q0 -54 11 -81t47 -27q35 0 77.5 54t56.5 110l48 209q-8 39 -25 55t-47 16q-50 0 -90 -57t-59 -133t-19 -146zM435 94q8 -39 25 -55t47 -16q50 0 90 57
t59 133t19 146q0 54 -11 81t-47 27q-35 0 -77.5 -54t-56.5 -110z" />
    <glyph glyph-name="afii10087" unicode="&#x445;" horiz-adv-x="516" 
d="M31 39q0 19 12 34.5t31 15.5q10 0 40 -15q16 -9 29 -9q30 0 104 125l28 48l-36 145q-8 33 -15 42t-21 8l-75 -5l-3 24l165 50l6 -4l40 -168h2l44 68q65 104 133 104q51 0 51 -43q0 -20 -13 -34t-30 -14q-12 0 -32 8q-15 8 -28 8q-35 0 -116 -144l32 -131q17 -69 26 -90.5
t23 -21.5q10 0 20 7.5t22 26t17.5 28.5t19.5 36l26 -14q-15 -31 -25.5 -48.5t-28 -41t-39.5 -35t-48 -11.5q-36 0 -54.5 29t-34.5 94l-18 78h-2l-40 -66q-19 -30 -25.5 -41t-24 -34.5t-29.5 -32.5t-30.5 -18t-38.5 -9q-29 0 -46.5 14.5t-17.5 36.5z" />
    <glyph glyph-name="afii10088" unicode="&#x446;" horiz-adv-x="618" 
d="M126 450l6 24l182 28l5 -5l-96 -369q-23 -88 25 -88q57 0 116 72t98 162q29 68 71 216l89 12l-107 -408q-14 -54 13 -54q30 0 92 106l24 -15q-22 -45 -48 -77q-27 -54 -27 -78q0 -16 4.5 -43.5t4.5 -45.5q0 -38 -35.5 -61t-104.5 -41l-7 25q48 19 65.5 36.5t17.5 41.5
q0 5 -1 18.5t-1 19.5q0 24 19 46t19 32q0 7 -8 3q-32 -19 -65 -19q-77 0 -46 108l33 114h-2q-48 -93 -120 -157.5t-141 -64.5q-105 0 -67 145l69 264q7 23 4.5 35t-19.5 13z" />
    <glyph glyph-name="afii10089" unicode="&#x447;" horiz-adv-x="585" 
d="M119 450l6 24l182 28l5 -5l-53 -207q-13 -44 -6 -66t36 -22q40 0 83 36t78 112q8 16 18.5 51t17.5 62l6 27l89 12l-106 -407q-15 -55 13 -55q19 0 45 35t45 71l24 -14q-28 -63 -69.5 -103.5t-92.5 -40.5q-40 0 -53.5 27t-0.5 71l53 186h-2q-55 -65 -95 -93.5t-95 -28.5
q-37 0 -58 27.5t-21.5 64.5t7.5 74l23 81q7 23 4.5 35t-19.5 13z" />
    <glyph glyph-name="afii10090" unicode="&#x448;" horiz-adv-x="919" 
d="M126 450l6 24l182 28l5 -5l-102 -387q-8 -33 0.5 -51.5t33.5 -18.5q39 0 83.5 41t76 90t52.5 98q25 58 71 221l87 12l-100 -378q-22 -84 30 -84q56 0 120 79t95 158q19 49 66 213l87 12l-103 -408q-14 -54 13 -54q30 0 92 106l24 -15q-29 -61 -72.5 -102t-94.5 -41
q-77 0 -46 108l30 104h-3q-53 -97 -120 -154.5t-134 -57.5q-52 0 -67.5 38.5t7.5 110.5l20 63h-4q-55 -99 -121 -155.5t-132 -56.5q-59 0 -76 42.5t2 102.5l69 264q7 23 4.5 35t-19.5 13z" />
    <glyph glyph-name="afii10091" unicode="&#x449;" horiz-adv-x="919" 
d="M126 450l6 24l182 28l5 -5l-102 -387q-8 -33 0.5 -51.5t33.5 -18.5q39 0 83.5 41t76 90t52.5 98q25 58 71 221l87 12l-100 -378q-22 -84 30 -84q56 0 120 79t95 158q19 49 66 213l87 12l-103 -408q-14 -54 13 -54q30 0 92 106l24 -15q-22 -45 -48 -77q-27 -54 -27 -78
q0 -16 4.5 -43.5t4.5 -45.5q0 -38 -35.5 -61t-104.5 -41l-7 25q48 19 65.5 36.5t17.5 41.5q0 5 -1 18.5t-1 19.5q0 24 19 46t19 32q0 7 -8 3q-32 -19 -65 -19q-77 0 -46 108l30 104h-3q-53 -97 -120 -154.5t-134 -57.5q-52 0 -67.5 38.5t7.5 110.5l20 63h-4
q-55 -99 -121 -155.5t-132 -56.5q-59 0 -76 42.5t2 102.5l69 264q7 23 4.5 35t-19.5 13z" />
    <glyph glyph-name="afii10092" unicode="&#x44a;" horiz-adv-x="638" 
d="M68 360q92 142 173 142q30 0 71 -15.5t69 -15.5q46 0 100 31l26 -17q-114 -108 -149 -182q-6 -12 -18 -54h2q57 65 137 65q167 0 167 -137q0 -72 -71.5 -130.5t-194.5 -58.5q-72 0 -114 41t-42 98q0 78 63 170t124 147h-12q-5 -2 -21 -11t-31 -14.5t-30 -5.5
q-14 0 -61 12t-63 12q-15 0 -48 -31t-54 -64zM318 118q0 -95 88 -95q17 0 39.5 8.5t46.5 27t40.5 54t16.5 81.5q0 38 -24 61.5t-67 23.5q-37 0 -76 -26t-59 -75q-5 -19 -5 -60z" />
    <glyph glyph-name="afii10093" unicode="&#x44b;" horiz-adv-x="812" 
d="M615 86l104 404l89 12l-103 -407q-15 -55 10 -55q19 0 45 35t45 71l24 -14q-28 -63 -69.5 -103.5t-92.5 -40.5q-39 0 -51.5 26.5t-0.5 71.5zM126 450l6 24l182 28l5 -5l-72 -248h2q57 65 132 65q167 0 167 -137q0 -72 -71.5 -130.5t-194.5 -58.5q-92 0 -129 62.5
t-13 139.5l63 207q8 23 5 35t-20 13zM229 185q-7 -26 -8.5 -50.5t3 -51.5t26 -43.5t58.5 -16.5q17 0 39.5 8.5t46.5 27t40.5 54t16.5 81.5q0 38 -24 61.5t-67 23.5q-35 0 -72 -24t-59 -70z" />
    <glyph glyph-name="afii10094" unicode="&#x44c;" horiz-adv-x="540" 
d="M126 450l6 24l182 28l5 -5l-72 -248h2q57 65 132 65q167 0 167 -137q0 -72 -71.5 -130.5t-194.5 -58.5q-92 0 -129 62.5t-13 139.5l63 207q8 23 5 35t-20 13zM229 185q-7 -26 -8.5 -50.5t3 -51.5t26 -43.5t58.5 -16.5q17 0 39.5 8.5t46.5 27t40.5 54t16.5 81.5
q0 38 -24 61.5t-67 23.5q-35 0 -72 -24t-59 -70z" />
    <glyph glyph-name="afii10095" unicode="&#x44d;" horiz-adv-x="451" 
d="M52 115q0 29 14 47t41 18q36 0 36 -40q0 -27 0.5 -40t3.5 -31t9.5 -26t18.5 -14t30 -6q54 0 92.5 63t58.5 152h-186l8 35h185q10 51 10 87q0 57 -23 82t-69 25q-71 0 -141 -100l-25 19q36 55 77.5 85.5t100.5 30.5q178 0 178 -174q0 -34 -8.5 -76t-28.5 -89t-49.5 -85.5
t-76.5 -64t-103 -25.5q-73 0 -113 38t-40 89z" />
    <glyph glyph-name="afii10096" unicode="&#x44e;" horiz-adv-x="785" 
d="M98 -12l97 407q8 29 5 38.5t-25 11.5l-55 6l6 23l178 28l5 -5l-54 -227h93q12 43 32.5 80.5t53 73.5t82 57t110.5 21q33 0 62.5 -8.5t57 -27t43.5 -54.5t16 -85q0 -112 -63 -211q-81 -128 -226 -128q-91 0 -137.5 49t-46.5 132q0 30 7 66h-93l-56 -235zM429 129
q0 -106 90 -106q39 0 72 28.5t54 70t36 90.5t21 87.5t6 62.5q0 105 -83 105q-47 0 -86 -37t-62 -92t-35.5 -110.5t-12.5 -98.5z" />
    <glyph glyph-name="afii10097" unicode="&#x44f;" horiz-adv-x="573" 
d="M22 43q0 19 12 34.5t31 15.5q18 0 33 -15.5t27 -15.5q15 0 27 13.5t32 53.5t41.5 58.5t58.5 32.5l1 6q-51 6 -93 39.5t-42 77.5q0 65 64.5 106t172.5 41h179l-100 -395q-14 -55 10 -55q19 0 45 35t45 71l24 -14q-28 -63 -69.5 -103.5t-92.5 -40.5q-39 0 -51.5 26.5
t-0.5 71.5l33 128h-23q-52 0 -87.5 -33.5t-69.5 -102.5q-24 -48 -57.5 -69t-85.5 -21q-29 0 -46.5 16t-17.5 39zM248 333q0 -38 25 -61t77 -23h68l47 183q3 10 -3 16.5t-17 6.5h-25q-85 0 -128.5 -27.5t-43.5 -94.5z" />
    <glyph glyph-name="uni0450" unicode="&#x450;" horiz-adv-x="453" 
d="M239 680q0 14 13.5 28.5t25.5 14.5q24 0 64 -41l119 -120l-15 -20l-151 84q-56 30 -56 54zM80 152q0 134 83 236q92 114 219 114q59 0 91.5 -29t32.5 -71q0 -54 -42 -96q-78 -72 -284 -114q-1 -7 -1 -16q0 -139 91 -139q27 0 51.5 10.5t46.5 30t35.5 35t31.5 38.5l23 -20
q-88 -143 -229 -143q-25 0 -48 6.5t-47.5 22.5t-39 50.5t-14.5 84.5zM182 226q119 25 174.5 74.5t55.5 107.5q0 26 -16 42.5t-42 16.5q-58 0 -108.5 -73.5t-63.5 -167.5z" />
    <glyph glyph-name="afii10071" unicode="&#x451;" horiz-adv-x="453" 
d="M418 621q0 27 17 44t42 17q22 0 35 -14.5t13 -34.5q0 -26 -16 -43.5t-42 -17.5q-23 0 -36 13.5t-13 35.5zM210 621q0 27 17 44t42 17q22 0 35 -14.5t13 -34.5q0 -26 -16 -43.5t-42 -17.5q-23 0 -36 13.5t-13 35.5zM80 152q0 134 83 236q92 114 219 114q59 0 91.5 -29
t32.5 -71q0 -54 -42 -96q-78 -72 -284 -114q-1 -7 -1 -16q0 -139 91 -139q27 0 51.5 10.5t46.5 30t35.5 35t31.5 38.5l23 -20q-88 -143 -229 -143q-25 0 -48 6.5t-47.5 22.5t-39 50.5t-14.5 84.5zM182 226q119 25 174.5 74.5t55.5 107.5q0 26 -16 42.5t-42 16.5
q-58 0 -108.5 -73.5t-63.5 -167.5z" />
    <glyph glyph-name="afii10099" unicode="&#x452;" horiz-adv-x="574" 
d="M92 -12l105 467h-72l8 35h72l33 149q6 29 2.5 38t-22.5 11l-57 7l6 23l180 24l5 -5l-59 -247h229l-8 -35h-230l-66 -277h2q45 85 109 133t115 48q56 0 88 -49.5t32 -115.5q0 -225 -369 -436l-11 25q282 171 282 434q0 90 -53 90q-52 0 -108.5 -58t-80.5 -124
q-13 -31 -45 -125z" />
    <glyph glyph-name="afii10100" unicode="&#x453;" horiz-adv-x="461" 
d="M289 562l119 120q40 41 64 41q12 0 25.5 -14.5t13.5 -28.5q0 -24 -56 -54l-151 -84zM106 -12l104 436q8 32 -22 36l-58 10l5 20h417l-35 -153h-29q9 68 -12 93t-95 25q-47 0 -62.5 -8.5t-24.5 -44.5l-96 -402z" />
    <glyph glyph-name="afii10101" unicode="&#x454;" horiz-adv-x="431" 
d="M81 148q0 84 34.5 164t102.5 135t153 55q56 0 92.5 -25.5t36.5 -63.5q0 -23 -22 -39.5t-42 -16.5q-26 0 -29 30q-8 80 -60 80q-49 0 -90.5 -56.5t-62.5 -137.5h187l-8 -35h-187q-6 -36 -6 -70q0 -61 19 -96t69 -35q30 0 61.5 19.5t48.5 38t43 49.5l24 -18
q-90 -138 -221 -138q-60 0 -101.5 38t-41.5 122z" />
    <glyph glyph-name="afii10102" unicode="&#x455;" horiz-adv-x="389" 
d="M54 83q0 21 15 37.5t37 16.5q23 0 32 -30q12 -39 37 -61.5t53 -22.5q32 0 52 20t20 55q0 62 -69 117q-88 71 -88 140q0 63 44 105t118 42q61 0 94 -25t33 -53q0 -21 -15.5 -33.5t-32.5 -12.5q-20 0 -28 20q-31 69 -80 69q-27 0 -44.5 -20t-17.5 -45q0 -52 71 -110
q50 -41 71 -76t21 -77q0 -64 -47 -107.5t-126 -43.5q-67 0 -108.5 30t-41.5 65z" />
    <glyph glyph-name="afii10103" unicode="&#x456;" horiz-adv-x="317" 
d="M244 649q0 26 17.5 46t47.5 20q23 0 38.5 -14t15.5 -41q0 -30 -17.5 -48.5t-46.5 -18.5q-24 0 -39.5 14.5t-15.5 41.5zM120 86l84 313q7 26 3 35.5t-24 10.5l-57 5l6 24l182 28l5 -5l-109 -402q-15 -55 10 -55q19 0 45 35t45 71l24 -14q-28 -63 -69.5 -103.5t-92.5 -40.5
q-39 0 -51.5 26.5t-0.5 71.5z" />
    <glyph glyph-name="afii10104" unicode="&#x457;" horiz-adv-x="317" 
d="M120 86l84 313q7 26 3 35.5t-24 10.5l-57 5l6 24l182 28l5 -5l-109 -402q-15 -55 10 -55q19 0 45 35t45 71l24 -14q-28 -63 -69.5 -103.5t-92.5 -40.5q-39 0 -51.5 26.5t-0.5 71.5zM326 621q0 27 17 44t42 17q22 0 35 -14.5t13 -34.5q0 -26 -16 -43.5t-42 -17.5
q-23 0 -36 13.5t-13 35.5zM118 621q0 27 17 44t42 17q22 0 35 -14.5t13 -34.5q0 -26 -16 -43.5t-42 -17.5q-23 0 -36 13.5t-13 35.5z" />
    <glyph glyph-name="afii10105" unicode="&#x458;" horiz-adv-x="309" 
d="M246 649q0 26 17.5 46t47.5 20q23 0 38.5 -14t15.5 -41q0 -30 -17.5 -48.5t-46.5 -18.5q-24 0 -39.5 14.5t-15.5 41.5zM-60 -184q0 19 14 34.5t31 15.5q13 0 26 -20q36 -53 57 -53q16 0 23 31l122 571q7 26 4.5 37.5t-19.5 12.5l-62 5l6 24l179 28l5 -5l-113 -500
q-31 -137 -71 -189q-40 -50 -107 -50q-39 0 -66.5 16.5t-28.5 41.5z" />
    <glyph glyph-name="afii10106" unicode="&#x459;" horiz-adv-x="772" 
d="M17 43q0 22 13.5 37.5t34.5 15.5q18 0 33 -17t27 -17q47 0 107 141q17 40 33.5 95.5t24.5 91.5l7 35q7 29 -23 35l-58 10l5 20h328l-70 -241h2q57 65 132 65q167 0 167 -137q0 -72 -71.5 -130.5t-194.5 -58.5q-92 0 -128.5 62.5t-13.5 139.5l70 234q9 31 -25 31h-35
q-25 0 -36.5 -14.5t-19.5 -48.5q-12 -51 -19 -79.5t-21.5 -77.5t-26.5 -78t-31 -65t-39 -56t-46.5 -34t-56.5 -14q-29 0 -49 16.5t-20 38.5zM461 185q-7 -25 -9 -50.5t3 -52t26.5 -43t58.5 -16.5q17 0 39.5 8.5t46.5 27t40.5 54t16.5 81.5q0 38 -24 61.5t-67 23.5
q-35 0 -72 -24t-59 -70z" />
    <glyph glyph-name="afii10107" unicode="&#x45a;" horiz-adv-x="836" 
d="M98 -12l97 407q8 29 5 38.5t-25 11.5l-55 6l6 23l178 28l5 -5l-54 -227h205l67 220l89 12l-73 -253h2q57 65 132 65q167 0 167 -137q0 -72 -71.5 -130.5t-194.5 -58.5q-92 0 -129 62.5t-13 139.5l14 45h-204l-56 -235zM525 185q-7 -25 -9 -50.5t3 -52t26.5 -43
t58.5 -16.5q17 0 39.5 8.5t46.5 27t40.5 54t16.5 81.5q0 38 -24 61.5t-67 23.5q-35 0 -72 -24t-59 -70z" />
    <glyph glyph-name="afii10108" unicode="&#x45b;" horiz-adv-x="607" 
d="M92 -12l105 467h-72l8 35h72l33 149q6 29 2.5 38t-22.5 11l-57 7l6 23l180 24l5 -5l-59 -247h229l-8 -35h-230l-66 -277h2q47 89 112 135t138 46q58 0 74.5 -43t-4.5 -102l-41 -119q-19 -55 10 -55q19 0 45 35t45 71l24 -14q-28 -63 -69 -103.5t-90 -40.5q-42 0 -55.5 29
t3.5 79l44 141q9 31 0.5 50.5t-32.5 19.5q-61 0 -118 -57t-82 -125q-13 -31 -45 -125z" />
    <glyph glyph-name="afii10109" unicode="&#x45c;" horiz-adv-x="582" 
d="M299 562l119 120q40 41 64 41q12 0 25.5 -14.5t13.5 -28.5q0 -24 -56 -54l-151 -84zM98 -12l97 407q8 29 5 38.5t-25 11.5l-55 6l6 23l178 28l5 -5l-72 -292h4l21 23q15 40 55 103t78 102q67 69 125 69q77 0 77 -49q0 -20 -14.5 -39t-34.5 -19q-19 0 -35.5 23t-30.5 23
q-31 0 -58 -27q-56 -56 -122 -168v-3q43 28 93 28q45 0 62.5 -21.5t17.5 -61.5q0 -25 -8 -61t-8 -42q0 -45 28 -45q33 0 88 106l24 -14q-28 -64 -69 -104t-91 -40q-30 0 -46 26t-16 59q0 13 6 48.5t6 58.5q0 27 -6.5 41t-27.5 14q-19 0 -62 -27.5t-60 -59.5
q-11 -19 -37 -125l-6 -23z" />
    <glyph glyph-name="uni045D" unicode="&#x45d;" horiz-adv-x="618" 
d="M275 680q0 14 13.5 28.5t25.5 14.5q24 0 64 -41l119 -120l-15 -20l-151 84q-56 30 -56 54zM126 450l6 24l182 28l5 -5l-96 -369q-23 -88 25 -88q57 0 116 72t98 162q29 68 71 216l89 12l-107 -408q-14 -54 13 -54q30 0 92 106l24 -15q-29 -61 -72.5 -102t-94.5 -41
q-77 0 -46 108l33 114h-2q-48 -93 -120 -157.5t-141 -64.5q-105 0 -67 145l69 264q7 23 4.5 35t-19.5 13z" />
    <glyph glyph-name="afii10110" unicode="&#x45e;" horiz-adv-x="468" 
d="M231 673q0 68 61 68q40 0 40 -35q0 -10 -3.5 -22.5t-3.5 -24.5q0 -29 12 -42.5t39 -13.5q30 0 60 34t66 111l26 -11q-52 -169 -169 -169q-58 0 -93 37.5t-35 67.5zM-5 -187q0 22 16 40.5t35 19.5q17 0 35 -24q23 -31 41 -31q15 0 32.5 19.5t31.5 51.5q24 58 24 124
q0 116 -33 350q-6 41 -12.5 55t-22.5 13l-68 -2l-3 25l168 48l8 -4q26 -137 40 -437h3q122 210 141 278q15 54 13 138q37 25 78 25q4 0 8 -6.5t7 -20t3 -29.5q0 -8 -3 -19.5t-11 -28t-15 -30t-20.5 -36.5t-21.5 -36.5t-25 -41t-24 -39.5q-28 -45 -57.5 -96t-55 -95
t-29.5 -51q-33 -57 -48.5 -82.5t-38 -57.5t-39 -44.5t-38 -21.5t-46.5 -9q-32 0 -52.5 17t-20.5 38z" />
    <glyph glyph-name="afii10193" unicode="&#x45f;" horiz-adv-x="618" 
d="M211 -190q48 19 65.5 35.5t17.5 38.5q0 5 -1 18.5t-1 19.5q0 47 61 103l17 -21q-14 -18 -17 -26t-3 -24t4 -34.5t4 -36.5q0 -36 -35.5 -58t-104.5 -40zM126 450l6 24l182 28l5 -5l-96 -369q-23 -88 25 -88q57 0 116 72t98 162q29 68 71 216l89 12l-107 -408
q-14 -54 13 -54q30 0 92 106l24 -15q-29 -61 -72.5 -102t-94.5 -41q-77 0 -46 108l33 114h-2q-48 -93 -120 -157.5t-141 -64.5q-105 0 -67 145l69 264q7 23 4.5 35t-19.5 13z" />
    <glyph glyph-name="afii10146" unicode="&#x462;" horiz-adv-x="771" 
d="M125 453l39 154h243l1 5q1 4 2 9t0.5 12t-2.5 12t-8 9t-15 5l-59 4l7 29h274l-7 -29l-55 -5q-17 -1 -27.5 -14.5t-12.5 -23t-2 -13.5h243l-36 -154h-28q7 72 -15.5 95.5t-91.5 23.5q-54 0 -69 -8.5t-24 -46.5l-31 -137q34 10 109 10q94 0 155.5 -48.5t61.5 -124.5
q0 -23 -3.5 -45t-20.5 -55.5t-46 -57t-86.5 -41.5t-136.5 -18h-305l6 29l58 6q19 1 29 12.5t15 35.5l99 434q9 38 -2 46.5t-65 8.5q-70 0 -104 -23t-62 -96h-28zM387 99q-8 -34 9 -49t85 -15q54 0 94 19.5t59 49.5t27 56.5t8 51.5q0 61 -37.5 102t-101.5 41q-56 0 -88 -13z
" />
    <glyph glyph-name="afii10194" unicode="&#x463;" horiz-adv-x="835" 
d="M98 -12l103 409q7 24 5 35.5t-19 12.5l-61 5l6 24l181 28l5 -5l-67 -223h3q56 102 123 165t135 63q52 0 68.5 -38.5t-6.5 -110.5l-31 -104h2q57 65 131 65q167 0 167 -137q0 -72 -71.5 -130.5t-194.5 -58.5q-93 0 -131 63t-11 139l61 176q22 84 -30 84q-39 0 -85.5 -48.5
t-80.5 -108t-59 -120.5q-23 -55 -56 -173zM524 185q-8 -26 -10 -51.5t3.5 -51.5t27 -42.5t58.5 -16.5q17 0 39.5 8.5t46.5 27t40.5 54t16.5 81.5q0 38 -24 61.5t-67 23.5q-35 0 -72 -24t-59 -70z" />
    <glyph glyph-name="uni046A" unicode="&#x46a;" horiz-adv-x="1054" 
d="M36 -15l8 35q63 0 91.5 31t68.5 120q43 96 98 140.5t135 61.5q46 10 114 10v1l-133 238q-18 34 -40 37l-38 4l7 29h679l-7 -29l-39 -4q-23 -3 -57 -37l-243 -238v-1q58 0 97 -9q57 -13 101.5 -71t44.5 -132q0 -87 18.5 -119t85.5 -32l-8 -35h-56q-72 0 -105.5 32
t-34.5 105q-1 47 -3 73t-9 60t-19.5 51t-36.5 29.5t-58 12.5h-43l-61 -265q-11 -47 22 -50l59 -4l-6 -29h-274l6 29l55 6q18 1 27.5 12.5t14.5 35.5l61 265h-44q-74 0 -123.5 -57.5t-98.5 -168.5q-32 -73 -79.5 -105t-120.5 -32h-56zM503 656l140 -249h1l254 249v1h-395v-1z
" />
    <glyph glyph-name="uni046B" unicode="&#x46b;" horiz-adv-x="842" 
d="M28 -12l7 29q39 0 64 21t54 83q67 142 269 142v1l-96 164q-15 29 -37 32l-39 5l6 25h562l-6 -25l-32 -4q-25 -3 -55 -33l-172 -164v-1q38 0 60 -3q69 -8 100 -48t31 -95t19.5 -77.5t59.5 -22.5l-7 -29h-20q-134 0 -138 98q-1 43 -4.5 64.5t-13.5 42t-31 28t-57 7.5h-28
l-53 -228l-92 -12l56 240h-24q-37 0 -60.5 -6.5t-43.5 -26t-32.5 -41t-35.5 -66.5q-51 -100 -191 -100h-20zM406 454l103 -181h1l189 181v1h-293v-1z" />
    <glyph glyph-name="afii10147" unicode="&#x472;" horiz-adv-x="753" 
d="M114 270q0 82 26 159.5t73.5 139.5t122.5 100t164 38q131 0 210 -73t79 -220q0 -125 -63 -239q-48 -87 -122.5 -138.5t-196.5 -51.5q-144 0 -218.5 78t-74.5 207zM219 230q0 -102 48 -156t131 -54q162 0 239 200q23 60 35 121h-443q-10 -54 -10 -111zM237 379h441
q6 51 6 87q0 103 -47.5 154.5t-132.5 51.5q-72 0 -129 -46t-88 -108t-50 -139z" />
    <glyph glyph-name="afii10195" unicode="&#x473;" horiz-adv-x="537" 
d="M84 169q0 30 7.5 68t28 86t52 87t85.5 65.5t121 26.5q33 0 62.5 -8.5t57 -27t43.5 -54.5t16 -85q0 -112 -63 -211q-81 -128 -226 -128q-91 0 -137.5 49t-46.5 132zM181 129q0 -106 90 -106q32 0 60 18.5t48 51t34.5 67.5t25.5 75h-244q-14 -62 -14 -106zM204 270h244
q12 58 12 92q0 105 -83 105q-60 0 -104 -57t-69 -140z" />
    <glyph glyph-name="afii10148" unicode="&#x474;" horiz-adv-x="767" 
d="M131 663l5 29h250l-5 -29l-64 -6q-20 -2 -17 -33q12 -130 30 -258l35 -266h2l254 437q39 64 59 94t47 53t54 23q50 0 81 -29t31 -65q0 -94 -66 -94q-18 0 -31.5 11t-13.5 32q0 16 9.5 41t9.5 40q0 29 -22 29q-19 0 -37.5 -23t-64.5 -101l-321 -548h-69l-79 611
q-4 26 -11.5 35.5t-25.5 11.5z" />
    <glyph glyph-name="afii10196" unicode="&#x475;" horiz-adv-x="574" 
d="M71 454l168 48l8 -4q45 -232 47 -426h2l166 293q44 78 82 107.5t87 29.5q79 0 79 -48q0 -19 -13.5 -39t-35.5 -20q-20 0 -35.5 23t-31.5 23q-30 0 -58 -37.5t-116 -188.5l-126 -215h-74q0 58 -43 363q-6 41 -12.5 55t-22.5 13l-68 -2z" />
    <glyph glyph-name="afii10050" unicode="&#x490;" horiz-adv-x="529" 
d="M38 0l6 29l56 5q17 1 26.5 12t14.5 34l120 532q10 42 -22 45l-59 6l6 29h297q87 0 128.5 30.5t69.5 112.5h30l-50 -217h-30q-3 18 -8 24.5t-24.5 10.5t-63.5 4h-145q-14 0 -19.5 -5.5t-9.5 -24.5l-124 -547q-10 -43 23 -46l75 -5l-6 -29h-291z" />
    <glyph glyph-name="afii10098" unicode="&#x491;" horiz-adv-x="434" 
d="M106 -12l104 436q8 32 -22 36l-58 10l5 20h223q56 0 87 11.5t51.5 37.5t46.5 84h28l-38 -168h-152q-47 0 -62.5 -8.5t-24.5 -44.5l-96 -402z" />
    <glyph glyph-name="uni0492" unicode="&#x492;" horiz-adv-x="551" 
d="M42 0l6 29l56 5q17 1 26.5 12t14.5 34l70 310h-84l8 38h84l42 184q10 42 -22 45l-59 6l6 29h503l-39 -171h-30q5 45 1 75t-32.5 45.5t-87.5 15.5h-111q-14 0 -19.5 -5.5t-9.5 -24.5l-45 -199h222l-8 -38h-223l-70 -310q-10 -43 23 -46l75 -5l-6 -29h-291z" />
    <glyph glyph-name="uni0493" unicode="&#x493;" horiz-adv-x="423" 
d="M80 89q0 27 8 50t17.5 37.5t31.5 31t35 24.5t43 24l-68 39l20 35l89 -52q22 14 45 30q37 28 37 93q0 31 -18 48.5t-45 17.5q-31 0 -58.5 -17.5t-72.5 -56.5l-21 19q57 55 92.5 72.5t79.5 17.5q67 0 94.5 -28.5t27.5 -61.5q0 -28 -4.5 -47t-20.5 -35t-24 -22t-39.5 -23
t-42.5 -24l83 -48l-20 -35l-101 59q-7 -5 -23 -17q-34 -26 -44.5 -56.5t-10.5 -72.5q0 -18 3.5 -31t21 -25t49.5 -12q43 0 77.5 27t88.5 91l19 -19q-59 -74 -99.5 -104t-100.5 -30q-69 0 -109 29t-40 72z" />
    <glyph glyph-name="uni0494" unicode="&#x494;" horiz-adv-x="641" 
d="M39 0l6 29l55 6q18 1 27 11.5t15 36.5l119 529q10 42 -22 45l-59 6l6 29h503l-39 -171h-30q5 45 1 75t-32.5 45.5t-87.5 15.5h-111q-14 0 -19.5 -5.5t-9.5 -24.5l-57 -251h66q124 0 181.5 -64.5t57.5 -174.5q0 -86 -35 -172t-105 -146t-155 -60q-78 0 -131 26t-53 74
q0 22 20 38t41 16q23 0 33 -18.5t12 -41t21.5 -41t58.5 -18.5q51 0 96 60t69 143.5t24 160.5q0 183 -154 183h-55l-58 -258q-6 -25 -1 -37t23 -13l59 -4l-6 -29h-274z" />
    <glyph glyph-name="uni0495" unicode="&#x495;" horiz-adv-x="575" 
d="M106 -12l104 436q8 32 -22 36l-58 10l5 20h417l-35 -153h-29q9 68 -12 93t-95 25q-47 0 -62.5 -8.5t-24.5 -44.5l-32 -132h30q250 0 250 -218q0 -67 -30 -133t-90.5 -113t-134.5 -47q-77 0 -117.5 22t-40.5 61q0 21 16.5 34t38.5 13t33 -15t13 -32.5t10.5 -32.5t26.5 -15
q46 0 82 30t56 75t30.5 90t10.5 83q0 163 -165 163h-27l-56 -235z" />
    <glyph glyph-name="uni0496" unicode="&#x496;" horiz-adv-x="1058" 
d="M36 -15l8 35q63 0 91.5 31t68.5 120q43 96 108 141.5t158 55.5l1 3q-31 14 -50.5 57t-24 74t-4.5 53q0 117 -44 117q-19 0 -24.5 -6t-5.5 -20q0 -8 4.5 -27t4.5 -27q0 -46 -52 -46q-50 0 -50 67q0 15 4.5 29t15.5 30t36.5 25.5t62.5 9.5q56 0 75 -43t19 -127
q0 -68 29.5 -112.5t87.5 -44.5h10l52 229q11 47 -22 50l-59 4l7 29h274l-7 -29l-55 -5q-18 -1 -27 -13t-15 -36l-52 -229h9q47 0 102.5 46.5t85.5 110.5q41 87 75.5 128.5t79.5 41.5q54 0 80.5 -25.5t26.5 -62.5q0 -36 -13 -54.5t-46 -18.5q-17 0 -30 10.5t-13 25.5
q0 16 6.5 37t6.5 36q0 17 -23 17q-18 0 -45.5 -35t-51.5 -89q-34 -76 -75.5 -120t-78.5 -57l-1 -3q67 -1 117 -60.5t50 -136.5q0 -87 18.5 -119t85.5 -32h8l-44 -210h-31q7 61 7 89q0 45 -18 65t-49 29q-74 23 -77 129q-1 40 -2 61t-5.5 51t-12.5 45.5t-21.5 32t-35 23
t-51.5 6.5h-43l-59 -258q-11 -47 22 -50l59 -4l-6 -29h-274l6 29l55 6q18 1 27.5 12.5t14.5 35.5l59 258h-44q-75 0 -123.5 -54.5t-96.5 -164.5q-32 -73 -79.5 -105t-120.5 -32h-56z" />
    <glyph glyph-name="uni0497" unicode="&#x497;" horiz-adv-x="982" 
d="M50 64q0 25 17 40.5t44 15.5q13 0 21 -10.5t8 -24.5q0 -24 1.5 -34.5t10 -19t27.5 -8.5q37 0 72 47.5t56 117t21 134.5q0 69 -12.5 100t-51.5 31q-63 0 -147 -114l-24 19q47 78 102.5 111t103.5 33q44 0 82.5 -45.5t38.5 -128.5q0 -26 -5 -58h89l53 220l92 12l-55 -232
h88q29 97 95.5 164.5t148.5 67.5q44 0 77 -23.5t33 -52.5q0 -25 -17 -40.5t-44 -15.5q-13 0 -21 10.5t-8 24.5q0 24 -1.5 34.5t-10 19t-27.5 8.5q-37 0 -72 -47.5t-56 -117t-21 -134.5q0 -69 12.5 -100t51.5 -31q63 0 147 114l24 -19q-32 -53 -71 -87q-29 -32 -29 -69
q0 -16 4.5 -43.5t4.5 -45.5q0 -38 -35.5 -61t-104.5 -41l-7 25q48 19 65.5 36.5t17.5 41.5q0 5 -1 18.5t-1 19.5q0 24 19 46t19 32q0 8 -8 4q-43 -20 -79 -20q-44 0 -82.5 45.5t-38.5 128.5q0 35 8 73h-89l-56 -235l-92 -12l59 247h-88q-26 -102 -94.5 -174.5t-153.5 -72.5
q-44 0 -77 23.5t-33 52.5z" />
    <glyph glyph-name="uni049A" unicode="&#x49a;" horiz-adv-x="718" 
d="M40 0l6 29l55 6q18 1 27.5 12.5t14.5 35.5l120 526q11 47 -22 50l-59 4l7 29h274l-7 -29l-55 -5q-18 -1 -27 -13t-15 -36l-52 -229h17q51 0 105 46t85 111q41 85 77 127.5t81 42.5q54 0 80 -26t26 -63q0 -72 -56 -72q-20 0 -33 11t-13 26q0 13 7 36t7 36q0 17 -23 17
q-19 0 -47.5 -35.5t-52.5 -88.5q-34 -77 -74.5 -121t-79.5 -56l-1 -3q68 -1 117.5 -60t49.5 -137q0 -86 20 -118.5t87 -32.5h8l-44 -210h-31q7 61 7 89q0 45 -17.5 64.5t-50.5 29.5q-76 23 -79 129q-3 109 -11 140q-19 67 -91 77q-14 2 -31 2h-48l-59 -258q-11 -47 22 -50
l59 -4l-6 -29h-274z" />
    <glyph glyph-name="uni049B" unicode="&#x49b;" horiz-adv-x="582" 
d="M98 -12l97 407q8 29 5 38.5t-25 11.5l-55 6l6 23l178 28l5 -5l-72 -292h4l21 23q15 40 55 103t78 102q67 69 125 69q77 0 77 -49q0 -20 -14.5 -39t-34.5 -19q-19 0 -35.5 23t-30.5 23q-31 0 -58 -27q-56 -56 -122 -168v-3q43 28 93 28q45 0 62.5 -21.5t17.5 -61.5
q0 -25 -8 -61t-8 -42q0 -45 28 -45q33 0 88 106l24 -14q-20 -46 -43 -75q-26 -51 -26 -81q0 -16 4.5 -43.5t4.5 -45.5q0 -38 -35.5 -61t-104.5 -41l-7 25q48 19 65.5 36.5t17.5 41.5q0 5 -1 18.5t-1 19.5q0 24 19 46t19 32q0 7 -9 2q-28 -18 -63 -18q-30 0 -46 26t-16 59
q0 13 6 48.5t6 58.5q0 27 -6.5 41t-27.5 14q-19 0 -62 -27.5t-60 -59.5q-11 -19 -37 -125l-6 -23z" />
    <glyph glyph-name="uni049E" unicode="&#x49e;" horiz-adv-x="719" 
d="M45 0l6 29l55 6q18 1 27.5 12.5t14.5 35.5l105 460h-97l8 38h98q9 23 8 49.5t-24 28.5l-59 4l7 29h274l-7 -29l-55 -5q-12 -1 -20.5 -6.5t-14 -20.5t-7 -20.5t-6.5 -29.5h101l-8 -38h-102l-37 -163h17q51 0 105 46t85 111q41 85 77 127.5t81 42.5q54 0 80 -26t26 -63
q0 -72 -56 -72q-20 0 -33 11t-13 26q0 13 7 36t7 36q0 17 -23 17q-19 0 -47.5 -35.5t-52.5 -88.5q-34 -77 -74.5 -121t-79.5 -56l-1 -3q68 -1 117.5 -60t49.5 -137q0 -86 20 -118.5t87 -32.5l-8 -35h-56q-73 0 -107.5 32t-35.5 105q-2 110 -11 143q-20 68 -99 75
q-11 1 -23 1h-48l-59 -258q-11 -47 22 -50l59 -4l-6 -29h-274z" />
    <glyph glyph-name="uni049F" unicode="&#x49f;" horiz-adv-x="582" 
d="M96 -12l136 566h-83l8 35h83l12 50q6 29 2.5 38t-22.5 11l-57 7l6 23l180 24l5 -5l-36 -148h197l-8 -35h-198l-86 -349h4l21 23q15 40 55 103t78 102q67 69 125 69q77 0 77 -49q0 -20 -14.5 -39t-34.5 -19q-19 0 -35.5 23t-30.5 23q-31 0 -58 -27q-56 -56 -122 -168v-3
q43 28 93 28q45 0 62.5 -21.5t17.5 -61.5q0 -25 -8 -61t-8 -42q0 -45 28 -45q33 0 88 106l24 -14q-28 -64 -69 -104t-91 -40q-30 0 -46 26t-16 59q0 13 6 48.5t6 58.5q0 27 -6.5 41t-27.5 14q-19 0 -62 -27.5t-60 -59.5q-11 -19 -37 -125l-6 -23z" />
    <glyph glyph-name="uni04A2" unicode="&#x4a2;" horiz-adv-x="776" 
d="M40 0l6 29l55 6q18 1 27 11.5t15 36.5l120 526q10 47 -22 50l-59 4l7 29h274l-7 -29l-55 -5q-18 -1 -27 -12t-15 -37l-53 -230h334l52 230q10 47 -22 50l-59 4l7 29h274l-7 -29l-55 -5q-18 -1 -27 -12t-15 -37l-120 -526q-11 -47 22 -50l59 -4h9l-46 -219h-31q7 61 7 89
q0 59 -35.5 80t-143.5 21h-40l6 29l55 6q18 1 27 11.5t15 36.5l59 258h-334l-58 -258q-6 -25 -1 -37t23 -13l59 -4l-6 -29h-274z" />
    <glyph glyph-name="uni04A3" unicode="&#x4a3;" horiz-adv-x="612" 
d="M98 -12l97 407q8 29 5 38.5t-25 11.5l-55 6l6 23l178 28l5 -5l-54 -227h207l57 220l89 12l-103 -407q-15 -55 10 -55q19 0 45 35t45 71l24 -14q-19 -43 -45 -76q-26 -52 -26 -80q0 -16 4.5 -43.5t4.5 -45.5q0 -38 -35.5 -61t-104.5 -41l-7 25q48 19 65.5 36.5t17.5 41.5
q0 5 -1 18.5t-1 19.5q0 24 19 46t19 32q0 7 -6 4q-31 -20 -66 -20q-39 0 -51.5 26.5t-0.5 71.5l38 149h-207l-56 -235z" />
    <glyph glyph-name="uni04A4" unicode="&#x4a4;" horiz-adv-x="978" 
d="M40 0l6 29l55 6q18 1 27 11.5t15 36.5l120 526q10 47 -22 50l-59 4l7 29h274l-7 -29l-55 -5q-18 -1 -27 -12t-15 -37l-53 -230h334l52 230q10 47 -22 50l-59 4l7 29h502l-39 -171h-30q5 45 1 75t-32.5 45.5t-87.5 15.5h-111q-14 0 -19.5 -5.5t-9.5 -24.5l-124 -547
q-10 -43 23 -46l75 -5l-6 -29h-291l6 29l55 6q18 1 27 11.5t15 36.5l59 258h-334l-58 -258q-6 -25 -1 -37t23 -13l59 -4l-6 -29h-274z" />
    <glyph glyph-name="uni04A5" unicode="&#x4a5;" horiz-adv-x="750" 
d="M98 -12l97 407q8 29 5 38.5t-25 11.5l-55 6l6 23l178 28l5 -5l-54 -227h207l57 220h322l-35 -153h-29q9 68 -12 93t-95 25q-47 0 -62.5 -8.5t-24.5 -44.5l-78 -307q-14 -55 10 -55q19 0 45 35t45 71l24 -14q-28 -63 -69.5 -103.5t-92.5 -40.5q-39 0 -51.5 26.5t-0.5 71.5
l38 149h-207l-56 -235z" />
    <glyph glyph-name="uni04A8" unicode="&#x4a8;" horiz-adv-x="845" 
d="M114 272q0 29 4.5 63t17 77t32 83t52 79.5t74.5 68t102.5 46.5t132.5 18l-8 -35q-66 0 -120 -32t-87 -81t-55 -111t-31 -118t-9 -107q0 -105 50 -154t136 -49q45 0 85 15q-96 71 -96 217q0 121 44 216t106 141t126 46q86 0 132 -52.5t46 -176.5q0 -131 -58.5 -238.5
t-171.5 -160.5q22 -7 54 -7q46 0 77.5 14.5t76.5 47.5l17 -21q-45 -41 -88 -58.5t-96 -17.5q-59 0 -109 18q-63 -18 -139 -18q-154 0 -225.5 78.5t-71.5 208.5zM499 227q0 -103 53 -159q87 61 139 180t52 246q0 68 -15.5 97.5t-56.5 29.5q-58 0 -115 -115.5t-57 -278.5z" />
    <glyph glyph-name="uni04A9" unicode="&#x4a9;" horiz-adv-x="636" 
d="M84 168q0 40 9.5 82.5t32.5 88.5t56 81.5t85.5 58.5t115.5 23l-8 -35q-48 0 -87 -38.5t-61.5 -95t-34 -111.5t-11.5 -97q0 -56 27 -79t84 -23q32 0 60 6q-62 46 -62 135q0 133 65.5 209t147.5 76q58 0 98 -40.5t40 -111.5q0 -92 -42 -163.5t-123 -108.5q13 -2 46 -2
q52 0 101 42l14 -17q-38 -33 -67 -46.5t-67 -13.5q-52 0 -96 14q-58 -14 -123 -14q-53 0 -92 13t-59 31.5t-32 45.5t-14.5 46.5t-2.5 43.5zM387 178q0 -94 26 -125q62 34 96.5 104.5t34.5 168.5q0 49 -9 68.5t-42 19.5q-29 0 -54.5 -43t-38.5 -97t-13 -96z" />
    <glyph glyph-name="uni04AA" unicode="&#x4aa;" horiz-adv-x="661" 
d="M114 275q0 140 68 250q49 80 137 131t218 51q57 0 119 -13.5t102 -39.5l-36 -150h-30q4 85 -34 126.5t-129 41.5q-151 0 -236 -142q-35 -58 -53.5 -134t-18.5 -147q0 -112 54.5 -170.5t144.5 -58.5q85 0 133.5 40t95.5 126h30l-49 -159q-84 -42 -203 -42h-7l-33 -45
q36 -5 57.5 -32.5t14.5 -64.5q-7 -33 -38.5 -53t-72.5 -20t-66 10l4 24q40 -5 69 5.5t29 43.5q0 21 -15 36t-40 16l-3 9l51 74q-60 5 -106.5 25.5t-75.5 48.5t-48 64.5t-26 73t-7 75.5z" />
    <glyph glyph-name="uni04AB" unicode="&#x4ab;" horiz-adv-x="441" 
d="M81 148q0 84 34.5 164t102.5 135t153 55q56 0 92.5 -25.5t36.5 -63.5q0 -23 -22 -39.5t-42 -16.5q-26 0 -29 30q-8 80 -60 80q-44 0 -83.5 -48t-61.5 -116.5t-22 -134.5q0 -61 19 -96t69 -35q74 0 160 117l24 -19q-73 -123 -185 -143l-38 -52q36 -5 57.5 -32.5
t14.5 -64.5q-7 -33 -38.5 -53t-72.5 -20t-66 10l4 24q40 -5 69 5.5t29 43.5q0 21 -15 36t-40 16l-3 9l52 74q-59 1 -99 39t-40 121z" />
    <glyph glyph-name="uni04AC" unicode="&#x4ac;" horiz-adv-x="606" 
d="M137 525l38 167h568l-38 -167h-30q5 45 2 74.5t-29.5 43.5t-86.5 14h-63l-130 -576q-6 -23 0 -35t26 -13l73 -4h9l-46 -219h-31q7 61 7 89q0 59 -35.5 80t-143.5 21h-75l7 29l65 4q22 1 32.5 12.5t15.5 35.5l130 576h-69q-73 0 -107.5 -27.5t-58.5 -104.5h-30z" />
    <glyph glyph-name="uni04AD" unicode="&#x4ad;" horiz-adv-x="912" 
d="M98 -12l103 409q7 24 5 35.5t-19 12.5l-61 5l6 24l181 28l5 -5l-63 -207h3q53 97 120 154.5t134 57.5q52 0 67.5 -38.5t-7.5 -110.5l-20 -63h4q55 99 121 155.5t132 56.5q40 0 61 -20t21.5 -52.5t-9.5 -72.5l-77 -262q-15 -55 10 -55q19 0 45 35t45 71l24 -14
q-19 -43 -45 -76q-26 -52 -26 -80q0 -16 4.5 -43.5t4.5 -45.5q0 -38 -35.5 -61t-104.5 -41l-7 25q48 19 65.5 36.5t17.5 41.5q0 5 -1 18.5t-1 19.5q0 24 19 46t19 32q0 7 -8 3q-32 -19 -65 -19q-38 0 -51.5 26t-0.5 72l86 294q10 32 0.5 51t-34.5 19q-39 0 -83.5 -41
t-76 -90t-52.5 -98q-25 -58 -71 -221l-87 -12l100 378q22 84 -30 84q-56 0 -120 -79t-95 -158q-19 -49 -66 -213z" />
    <glyph glyph-name="uni04AE" unicode="&#x4ae;" horiz-adv-x="591" 
d="M131 663l6 29h249l-6 -29l-55 -5q-25 -3 -19 -29l91 -307h3q150 203 211 308q15 28 -15 29l-52 4l6 29h229l-6 -29q-42 -3 -60 -12t-45 -39q-93 -106 -230 -305q-20 -27 -28 -60l-38 -169q-5 -22 0 -32t23 -11l76 -6l-6 -29h-310l6 29l72 7q19 2 27.5 11.5t13.5 30.5
l38 168q7 29 0 53q-77 258 -98 318q-10 29 -22.5 35.5t-60.5 10.5z" />
    <glyph glyph-name="uni04AF" unicode="&#x4af;" horiz-adv-x="470" 
d="M71 454l168 48l8 -4q12 -60 25 -199.5t15 -247.5h3q115 212 135.5 267t20.5 159q37 25 78 25q4 0 8 -6.5t7 -20t3 -29.5q0 -41 -117 -231l-127 -213l-53 -232l-89 -12l56 244q0 113 -35 361q-6 41 -12.5 55t-22.5 13l-68 -2z" />
    <glyph glyph-name="uni04B0" unicode="&#x4b0;" horiz-adv-x="591" 
d="M131 663l6 29h249l-6 -29l-55 -5q-25 -3 -19 -29l91 -307h3q150 203 211 308q15 28 -15 29l-52 4l6 29h229l-6 -29q-42 -3 -60 -12t-45 -39q-93 -106 -230 -305q-26 -36 -32 -79h123l-8 -38h-124l-25 -112q-5 -22 0 -32t23 -11l76 -6l-6 -29h-310l6 29l72 7
q19 2 27.5 11.5t13.5 30.5l25 112h-123l8 38h124l4 18q7 29 0 53q-77 258 -98 318q-10 29 -22.5 35.5t-60.5 10.5z" />
    <glyph glyph-name="uni04B1" unicode="&#x4b1;" horiz-adv-x="470" 
d="M71 454l168 48l8 -4q12 -60 25 -199.5t15 -247.5h3q115 212 135.5 267t20.5 159q37 25 78 25q4 0 8 -6.5t7 -20t3 -29.5q0 -41 -117 -231l-127 -213l-5 -22h121l-10 -40h-120l-39 -170l-89 -12l42 182h-121l10 40h120l5 22q0 113 -35 361q-6 41 -12.5 55t-22.5 13l-68 -2
z" />
    <glyph glyph-name="uni04B2" unicode="&#x4b2;" horiz-adv-x="662" 
d="M-1 0l6 29q49 5 68.5 12t42.5 32q62 66 236 276q-19 43 -58.5 140t-55.5 131q-11 25 -28 32t-65 11l6 29h260l-6 -29l-52 -4q-30 -3 -17 -36q62 -152 82 -199h2q82 94 166 204q21 28 -9 31l-43 4l6 29h230l-6 -29q-68 -5 -96 -29q-97 -89 -232 -251q124 -279 135 -303
q14 -31 32 -39t71 -12h8l-46 -219h-31q7 61 7 89q0 59 -35.5 80t-143.5 21h-35l5 29l52 5q31 3 17 36q-13 33 -30 72t-37.5 87.5t-32.5 75.5h-4q-116 -143 -185 -242q-17 -25 14 -28l57 -6l-6 -29h-249z" />
    <glyph glyph-name="uni04B3" unicode="&#x4b3;" horiz-adv-x="522" 
d="M31 39q0 19 12 34.5t31 15.5q15 0 35 -12t34 -12q30 0 104 125l28 48l-36 145q-8 33 -15 42t-21 8l-75 -5l-3 24l165 50l6 -4l40 -168h2l44 68q65 104 133 104q51 0 51 -43q0 -20 -13 -34t-30 -14q-11 0 -31 8t-29 8q-35 0 -116 -144l32 -131q17 -69 26 -90.5t23 -21.5
q10 0 20 7.5t22 26t17.5 28.5t19.5 36l26 -14q-21 -42 -34 -62q-21 -45 -21 -86q0 -16 4.5 -43.5t4.5 -45.5q0 -38 -35.5 -61t-104.5 -41l-7 25q48 19 65.5 36.5t17.5 41.5q0 5 -1 18.5t-1 19.5q0 24 19 46t19 32q0 8 -9 3q-27 -19 -58 -19q-36 0 -54.5 29t-34.5 94l-18 78
h-2l-40 -66q-19 -30 -25.5 -41t-24 -34.5t-29.5 -32.5t-30.5 -18t-38.5 -9q-29 0 -46.5 14.5t-17.5 36.5z" />
    <glyph glyph-name="uni04B4" unicode="&#x4b4;" horiz-adv-x="903" 
d="M137 0l7 29l55 5q18 1 27 13t15 36l131 574h-37q-73 0 -107.5 -27.5t-58.5 -104.5h-30l38 167h504l-38 -167h-30q5 45 2 74.5t-29.5 43.5t-86.5 14h-31l-129 -566q-9 -39 3 -47.5t64 -8.5h202q54 0 69.5 8t23.5 45l119 521q11 47 -22 50l-48 4l6 29h263l-6 -29l-55 -6
q-18 -1 -27.5 -12.5t-14.5 -35.5l-118 -518q-9 -39 3 -47.5t64 -8.5h22l-47 -225h-31q7 61 7 89q0 59 -35.5 80t-143.5 21h-500z" />
    <glyph glyph-name="uni04B5" unicode="&#x4b5;" horiz-adv-x="618" 
d="M245 565l8 35h390l-8 -35h-390zM126 450l6 24l182 28l5 -5l-96 -369q-23 -88 25 -88q57 0 116 72t98 162q29 68 71 216l89 12l-107 -408q-14 -54 13 -54q30 0 92 106l24 -15q-22 -45 -48 -77q-27 -54 -27 -78q0 -16 4.5 -43.5t4.5 -45.5q0 -38 -35.5 -61t-104.5 -41
l-7 25q48 19 65.5 36.5t17.5 41.5q0 5 -1 18.5t-1 19.5q0 24 19 46t19 32q0 7 -8 3q-32 -19 -65 -19q-77 0 -46 108l33 114h-2q-48 -93 -120 -157.5t-141 -64.5q-105 0 -67 145l69 264q7 23 4.5 35t-19.5 13z" />
    <glyph glyph-name="uni04B6" unicode="&#x4b6;" horiz-adv-x="728" 
d="M176 663l7 29h264l-7 -30l-45 -4q-18 -1 -27 -12.5t-15 -36.5l-38 -156q-32 -134 76 -134q55 0 102 8q27 4 63 28.5t42 51.5l46 202q11 49 -22 50l-49 3l7 30h264l-7 -29l-55 -5q-18 -1 -27 -13t-15 -36l-120 -526q-11 -47 22 -50l59 -4h9l-46 -219h-31q7 61 7 89
q0 59 -35.5 80t-143.5 21h-45l6 29l60 5q18 1 27.5 12.5t14.5 36.5l58 251h-2q-114 -77 -238 -77q-57 0 -89 33.5t-35 84t9 108.5l30 126q11 47 -22 50z" />
    <glyph glyph-name="uni04B7" unicode="&#x4b7;" horiz-adv-x="585" 
d="M119 450l6 24l182 28l5 -5l-53 -207q-13 -44 -6 -66t36 -22q40 0 83 36t78 112q8 16 18.5 51t17.5 62l6 27l89 12l-106 -407q-15 -55 13 -55q19 0 45 35t45 71l24 -14q-19 -43 -45 -76q-26 -52 -26 -80q0 -16 4.5 -43.5t4.5 -45.5q0 -38 -35.5 -61t-104.5 -41l-7 25
q48 19 65.5 36.5t17.5 41.5q0 5 -1 18.5t-1 19.5q0 24 19 46t19 32q0 7 -6 4q-31 -20 -66 -20q-40 0 -53.5 27t-0.5 71l53 186h-2q-55 -65 -95 -93.5t-95 -28.5q-37 0 -58 27.5t-21.5 64.5t7.5 74l23 81q7 23 4.5 35t-19.5 13z" />
    <glyph glyph-name="uni04BA" unicode="&#x4ba;" horiz-adv-x="729" 
d="M40 0l7 29l55 5q18 1 27 13t15 36l120 526q11 47 -22 50l-59 4l6 29h279l-6 -29l-60 -5q-18 -1 -27.5 -12.5t-14.5 -36.5l-58 -251h2q114 77 239 77q57 0 89.5 -33.5t35.5 -84t-9 -108.5l-30 -126q-11 -47 22 -50l59 -4l-7 -29h-264l7 30l45 4q18 1 27 12.5t15 36.5
l38 156q32 134 -77 134q-56 0 -103 -8q-27 -4 -63 -28.5t-42 -51.5l-46 -202q-11 -49 22 -50l49 -3l-7 -30h-264z" />
    <glyph glyph-name="uni04BB" unicode="&#x4bb;" horiz-adv-x="607" 
d="M92 -12l146 651q6 29 2.5 38t-22.5 11l-57 7l6 23l180 24l5 -5l-112 -458h3q50 95 123.5 159t141.5 64q58 0 74.5 -43t-4.5 -102l-79 -262q-17 -55 10 -55q19 0 45 35t45 71l24 -14q-28 -63 -69 -103.5t-90 -40.5q-83 0 -52 108l82 284q9 31 0.5 50.5t-32.5 19.5
q-40 0 -87 -42.5t-79.5 -93t-49.5 -94.5q-26 -66 -67 -220z" />
    <glyph glyph-name="uni04BC" unicode="&#x4bc;" horiz-adv-x="844" 
d="M96 467q0 86 51 86q21 0 38 -10.5t17 -28.5t-10.5 -42t-10.5 -30q0 -43 74 -44q11 46 29 87.5t48.5 83t69.5 71.5t94.5 48.5t121.5 18.5q62 0 110.5 -20t76 -49.5t45.5 -68t24 -71.5t6 -64q0 -37 -11 -55.5t-44 -18.5h-467q-13 -63 -13 -127q0 -111 47.5 -162t150.5 -51
q40 0 72 9t53 20.5t42 36t32.5 42.5t31.5 52h30l-47 -152q-86 -43 -219 -43q-76 0 -132.5 20t-87.5 49t-49.5 71.5t-23.5 78t-5 76.5q0 39 7 80q-83 1 -117 32t-34 75zM367 398h374q20 0 27 14t7 63q0 21 -5 48t-18.5 63.5t-46 61t-79.5 24.5q-99 0 -160 -71t-99 -203z" />
    <glyph glyph-name="uni04BD" unicode="&#x4bd;" horiz-adv-x="605" 
d="M91 320q0 41 13 68.5t40 27.5q22 0 36 -12t14 -30q0 -8 -18.5 -36.5t-18.5 -55.5q0 -35 19 -55t61 -14q20 119 103 204t194 85q59 0 91.5 -29t32.5 -71q0 -69 -73 -121t-253 -89q-1 -7 -1 -16q0 -139 91 -139q27 0 51.5 10.5t46.5 30t35.5 35t31.5 38.5l23 -20
q-88 -143 -229 -143q-25 0 -48 6.5t-47.5 22.5t-39 50.5t-14.5 84.5q0 19 1 29q-41 -6 -71 8.5t-44.5 40.5t-20.5 49t-6 41zM334 226q119 25 174.5 74.5t55.5 107.5q0 26 -16 42.5t-42 16.5q-58 0 -108.5 -73.5t-63.5 -167.5z" />
    <glyph glyph-name="uni04BE" unicode="&#x4be;" horiz-adv-x="844" 
d="M96 467q0 86 51 86q21 0 38 -10.5t17 -28.5t-10.5 -42t-10.5 -30q0 -43 74 -44q11 46 29 87.5t48.5 83t69.5 71.5t94.5 48.5t121.5 18.5q62 0 110.5 -20t76 -49.5t45.5 -68t24 -71.5t6 -64q0 -37 -11 -55.5t-44 -18.5h-467q-13 -63 -13 -127q0 -111 47.5 -162t150.5 -51
q40 0 72 9t53 20.5t42 36t32.5 42.5t31.5 52h30l-47 -152q-53 -27 -116 -37q-58 -12 -83.5 -45.5t-50.5 -135.5h-32q7 61 7 89q0 46 -18 67.5t-56 36.5q-168 55 -168 277q0 39 7 80q-83 1 -117 32t-34 75zM367 398h374q20 0 27 14t7 63q0 21 -5 48t-18.5 63.5t-46 61
t-79.5 24.5q-99 0 -160 -71t-99 -203z" />
    <glyph glyph-name="uni04BF" unicode="&#x4bf;" horiz-adv-x="605" 
d="M91 320q0 41 13 68.5t40 27.5q22 0 36 -12t14 -30q0 -8 -18.5 -36.5t-18.5 -55.5q0 -35 19 -55t61 -14q20 119 103 204t194 85q59 0 91.5 -29t32.5 -71q0 -69 -73 -121t-253 -89q-1 -7 -1 -16q0 -139 91 -139q27 0 51.5 10.5t46.5 30t35.5 35t31.5 38.5l23 -20
q-41 -65 -91 -100q-33 -29 -33 -62q0 -16 4.5 -42t4.5 -44q0 -38 -34.5 -59t-105.5 -39l-7 25q49 19 66 34.5t17 39.5q0 5 -1 17.5t-1 18.5q0 25 19 46.5t19 29.5q0 6 -12 3q-34 -11 -74 -11q-25 0 -48 6.5t-47.5 22.5t-39 50.5t-14.5 84.5q0 19 1 29q-41 -6 -71 8.5
t-44.5 40.5t-20.5 49t-6 41zM334 226q119 25 174.5 74.5t55.5 107.5q0 26 -16 42.5t-42 16.5q-58 0 -108.5 -73.5t-63.5 -167.5z" />
    <glyph glyph-name="uni04C0" unicode="&#x4c0;" horiz-adv-x="345" 
d="M40 0l6 29l55 6q18 1 27.5 12.5t14.5 35.5l120 526q11 47 -22 50l-59 4l7 29h274l-7 -29l-55 -5q-18 -1 -27 -13t-15 -36l-120 -526q-11 -47 22 -50l59 -4l-6 -29h-274z" />
    <glyph glyph-name="uni04C1" unicode="&#x4c1;" horiz-adv-x="1054" 
d="M575 870h28q-1 -8 3 -18t14 -20t33 -17t55 -7q60 0 92.5 20.5t40.5 41.5h28q-12 -51 -53.5 -86t-121.5 -35t-105.5 35t-13.5 86zM36 -15l8 35q63 0 91.5 31t68.5 120q43 96 108 141.5t158 55.5l1 3q-31 14 -50.5 57t-24 74t-4.5 53q0 117 -44 117q-19 0 -24.5 -6
t-5.5 -20q0 -8 4.5 -27t4.5 -27q0 -46 -52 -46q-50 0 -50 67q0 15 4.5 29t15.5 30t36.5 25.5t62.5 9.5q56 0 75 -43t19 -127q0 -68 29.5 -112.5t87.5 -44.5h10l52 229q11 47 -22 50l-59 4l7 29h274l-7 -29l-55 -5q-18 -1 -27 -13t-15 -36l-52 -229h9q47 0 102.5 46.5
t85.5 110.5q41 87 75.5 128.5t79.5 41.5q54 0 80.5 -25.5t26.5 -62.5q0 -36 -13 -54.5t-46 -18.5q-17 0 -30 10.5t-13 25.5q0 16 6.5 37t6.5 36q0 17 -23 17q-18 0 -45.5 -35t-51.5 -89q-34 -76 -75.5 -120t-78.5 -57l-1 -3q67 -1 117 -60.5t50 -136.5q0 -87 18.5 -119
t85.5 -32l-8 -35h-56q-72 0 -105.5 32t-34.5 105q-1 39 -2 61t-5 51t-12.5 45.5t-22 32t-35 22.5t-51.5 7h-43l-59 -258q-11 -47 22 -50l59 -4l-6 -29h-274l6 29l55 6q18 1 27.5 12.5t14.5 35.5l59 258h-44q-75 0 -123.5 -54.5t-96.5 -164.5q-32 -73 -79.5 -105t-120.5 -32
h-56z" />
    <glyph glyph-name="uni04C2" unicode="&#x4c2;" horiz-adv-x="982" 
d="M505 646q0 27 11 52h24q-1 -10 1 -19.5t9 -21.5t27 -19.5t51 -7.5q88 0 125 68h26q-14 -61 -50.5 -95.5t-118.5 -34.5q-105 0 -105 78zM50 64q0 25 17 40.5t44 15.5q13 0 21 -10.5t8 -24.5q0 -24 1.5 -34.5t10 -19t27.5 -8.5q37 0 72 47.5t56 117t21 134.5
q0 69 -12.5 100t-51.5 31q-63 0 -147 -114l-24 19q47 78 102.5 111t103.5 33q44 0 82.5 -45.5t38.5 -128.5q0 -26 -5 -58h89l53 220l92 12l-55 -232h88q29 97 95.5 164.5t148.5 67.5q44 0 77 -23.5t33 -52.5q0 -25 -17 -40.5t-44 -15.5q-13 0 -21 10.5t-8 24.5
q0 24 -1.5 34.5t-10 19t-27.5 8.5q-37 0 -72 -47.5t-56 -117t-21 -134.5q0 -69 12.5 -100t51.5 -31q63 0 147 114l24 -19q-47 -78 -102.5 -111t-103.5 -33q-44 0 -82.5 45.5t-38.5 128.5q0 35 8 73h-89l-56 -235l-92 -12l59 247h-88q-26 -102 -94.5 -174.5t-153.5 -72.5
q-44 0 -77 23.5t-33 52.5z" />
    <glyph glyph-name="uni04C3" unicode="&#x4c3;" horiz-adv-x="693" 
d="M40 0l6 29l55 6q18 1 27.5 12.5t14.5 35.5l120 526q11 47 -22 50l-59 4l7 29h274l-7 -29l-55 -5q-18 -1 -27 -13t-15 -36l-52 -229h17q51 0 105 46t85 111q41 85 77 127.5t81 42.5q54 0 80 -26t26 -63q0 -72 -56 -72q-20 0 -33 11t-13 26q0 13 7 36t7 36q0 17 -23 17
q-19 0 -47.5 -35.5t-52.5 -88.5q-62 -139 -147 -173v-3q121 -4 178.5 -66t57.5 -169q0 -86 -35.5 -172t-105.5 -146t-156 -60q-78 0 -131 26t-53 74q0 22 20 38t41 16q23 0 33 -18.5t12 -41t21.5 -41t58.5 -18.5q51 0 96.5 60t70 143.5t24.5 160.5q0 183 -156 183h-98
l-59 -258q-11 -47 22 -50l59 -4l-6 -29h-274z" />
    <glyph glyph-name="uni04C4" unicode="&#x4c4;" horiz-adv-x="582" 
d="M98 -12l97 407q8 29 5 38.5t-25 11.5l-55 6l6 23l178 28l5 -5l-72 -292h4l20 23q15 40 55.5 102.5t78.5 102.5q67 69 125 69q77 0 77 -49q0 -20 -14.5 -39t-34.5 -19q-19 0 -35.5 23t-30.5 23q-31 0 -58 -27q-58 -58 -122 -164v-3q36 24 80 24q79 0 119.5 -56t40.5 -163
q0 -67 -30 -133t-90.5 -113t-134.5 -47q-77 0 -117.5 22t-40.5 61q0 21 16.5 34t38.5 13t33 -15t13 -32.5t10.5 -32.5t26.5 -15q46 0 82 30t56 75t30.5 90t10.5 83q0 82 -24.5 122.5t-66.5 40.5q-27 0 -65.5 -26.5t-56.5 -60.5q-7 -13 -37 -125l-6 -23z" />
    <glyph glyph-name="uni04C7" unicode="&#x4c7;" horiz-adv-x="770" 
d="M40 0l6 29l55 6q18 1 27 11.5t15 36.5l120 526q10 47 -22 50l-59 4l7 29h274l-7 -29l-55 -5q-18 -1 -27 -12t-15 -37l-53 -230h334l52 230q10 47 -22 50l-59 4l7 29h274l-7 -29l-55 -5q-18 -1 -27 -12t-15 -37l-130 -569q-35 -149 -91 -215.5t-141 -66.5q-156 0 -156 83
q0 19 21.5 33t41.5 14q15 0 24 -15t12.5 -32.5t16.5 -32.5t35 -15q53 0 81 53.5t53 163.5l76 331h-334l-58 -258q-6 -25 -1 -37t23 -13l59 -4l-6 -29h-274z" />
    <glyph glyph-name="uni04C8" unicode="&#x4c8;" horiz-adv-x="589" 
d="M98 -12l97 407q8 29 5 38.5t-25 11.5l-55 6l6 23l178 28l5 -5l-54 -227h206l53 220l92 12l-113 -473q-36 -150 -77 -210.5t-116 -60.5q-40 0 -65 15.5t-25 42.5q0 19 14 34.5t31 15.5q15 0 39.5 -35.5t40.5 -35.5q21 0 26 30l52 242l40 168h-207l-56 -235z" />
    <glyph glyph-name="uni04CF" unicode="&#x4cf;" horiz-adv-x="306" 
d="M116 86l137 553q7 29 3 38t-23 11l-57 7l6 23l179 24l5 -5l-161 -643q-13 -54 10 -54q17 0 45 34t47 72l24 -14q-26 -61 -69.5 -102.5t-93.5 -41.5q-76 0 -52 98z" />
    <glyph glyph-name="uni04D0" unicode="&#x4d0;" horiz-adv-x="624" 
d="M-23 0l6 29l33 4q24 2 40.5 15t39.5 51q3 5 171 298l168 295h71l74 -602q4 -33 11 -44.5t29 -13.5l38 -3l-6 -29h-246l6 29l53 5q16 2 21.5 10t3.5 29l-23 194h-224q-29 -53 -103 -196q-15 -34 13 -37l55 -5l-6 -29h-225zM263 305h199l-35 294h-2q-120 -216 -162 -294z
M365 870h28q-1 -8 3 -18t14 -20t33 -17t55 -7q60 0 92.5 20.5t40.5 41.5h28q-12 -51 -53.5 -86t-121.5 -35t-105.5 35t-13.5 86z" />
    <glyph glyph-name="uni04D1" unicode="&#x4d1;" horiz-adv-x="561" 
d="M322 646q0 27 11 52h24q-1 -10 1 -19.5t9 -21.5t27 -19.5t51 -7.5q88 0 125 68h26q-14 -61 -50.5 -95.5t-118.5 -34.5q-105 0 -105 78zM66 107q0 41 13.5 91.5t42.5 104.5t69 98t99.5 72.5t127.5 28.5q43 0 73 -21l5 13h84l-106 -399q-15 -55 10 -55q19 0 45 35t45 71
l24 -14q-28 -63 -70.5 -103.5t-95.5 -40.5q-77 0 -44 112l34 114h-2q-129 -226 -258 -226q-48 0 -72 34.5t-24 84.5zM165 110q0 -70 44 -70q65 0 165 152q72 108 107 253q-24 22 -61 22q-55 0 -105.5 -40t-81.5 -97.5t-49.5 -117t-18.5 -102.5z" />
    <glyph glyph-name="uni04D2" unicode="&#x4d2;" horiz-adv-x="624" 
d="M528 787q0 27 17 44t42 17q22 0 35 -14.5t13 -34.5q0 -26 -16 -43.5t-42 -17.5q-23 0 -36 13.5t-13 35.5zM320 787q0 27 17 44t42 17q22 0 35 -14.5t13 -34.5q0 -26 -16 -43.5t-42 -17.5q-23 0 -36 13.5t-13 35.5zM-23 0l6 29l33 4q24 2 40.5 15t39.5 51q3 5 171 298
l168 295h71l74 -602q4 -33 11 -44.5t29 -13.5l38 -3l-6 -29h-246l6 29l53 5q16 2 21.5 10t3.5 29l-23 194h-224q-29 -53 -103 -196q-15 -34 13 -37l55 -5l-6 -29h-225zM263 305h199l-35 294h-2q-120 -216 -162 -294z" />
    <glyph glyph-name="uni04D3" unicode="&#x4d3;" horiz-adv-x="561" 
d="M472 621q0 27 17 44t42 17q22 0 35 -14.5t13 -34.5q0 -26 -16 -43.5t-42 -17.5q-23 0 -36 13.5t-13 35.5zM264 621q0 27 17 44t42 17q22 0 35 -14.5t13 -34.5q0 -26 -16 -43.5t-42 -17.5q-23 0 -36 13.5t-13 35.5zM66 107q0 41 13.5 91.5t42.5 104.5t69 98t99.5 72.5
t127.5 28.5q43 0 73 -21l5 13h84l-106 -399q-15 -55 10 -55q19 0 45 35t45 71l24 -14q-28 -63 -70.5 -103.5t-95.5 -40.5q-77 0 -44 112l34 114h-2q-129 -226 -258 -226q-48 0 -72 34.5t-24 84.5zM165 110q0 -70 44 -70q65 0 165 152q72 108 107 253q-24 22 -61 22
q-55 0 -105.5 -40t-81.5 -97.5t-49.5 -117t-18.5 -102.5z" />
    <glyph glyph-name="uni04D4" unicode="&#x4d4;" horiz-adv-x="880" 
d="M-53 0l8 29l34 3q20 2 33.5 12t31.5 32q120 146 398 523q42 56 12 58l-67 6l9 29h570l-38 -167h-30q5 45 2.5 74.5t-29 43.5t-87.5 14h-121q-13 0 -18.5 -5.5t-9.5 -23.5l-57 -249h131q44 0 66.5 8t33.5 23.5t25 53.5h30l-46 -209h-30q3 53 -11 69.5t-76 16.5h-131
l-51 -219q-8 -35 -7 -50t12 -24q17 -13 112 -13q96 0 139 26t80 115h30l-51 -176h-522l6 29l56 6q18 1 26.5 11.5t14.5 36.5l58 258h-167q-116 -155 -189 -270q-22 -34 7 -37l59 -5l-8 -29h-238zM343 379h149l63 275h-5z" />
    <glyph glyph-name="uni04D5" unicode="&#x4d5;" horiz-adv-x="779" 
d="M69 107q0 38 13 86t41.5 100.5t68 96t100 72t129.5 28.5q39 0 78 -17l35 41h37l-25 -74l2 -2q71 64 157 64q61 0 94 -29t33 -71q0 -48 -44 -92q-78 -74 -281 -118q0 -2 -0.5 -7.5t-0.5 -8.5q0 -139 90 -139q35 0 69 20.5t53 42t42 52.5l23 -21q-88 -143 -229 -143
q-26 0 -48.5 6.5t-46 22.5t-37.5 50.5t-14 84.5q0 3 4 43h-2q-30 -51 -63.5 -93.5t-84 -78t-98.5 -35.5q-47 0 -71 34.5t-24 84.5zM168 110q0 -70 41 -70q35 0 81.5 45.5t89.5 114.5q68 109 101 236q-24 19 -64 19q-70 0 -130 -64.5t-89.5 -143t-29.5 -137.5zM509 226
q118 25 173.5 74.5t55.5 106.5q0 27 -15.5 43.5t-42.5 16.5q-58 0 -108 -73.5t-63 -167.5z" />
    <glyph glyph-name="uni04D6" unicode="&#x4d6;" horiz-adv-x="596" 
d="M352 870h28q-1 -8 3 -18t14 -20t33 -17t55 -7q60 0 92.5 20.5t40.5 41.5h28q-12 -51 -53.5 -86t-121.5 -35t-105.5 35t-13.5 86zM38 0l6 29l56 6q18 1 26.5 11.5t14.5 36.5l120 528q6 26 1 36t-23 12l-60 4l7 29h506l-38 -167h-30q5 45 2.5 74.5t-29 43.5t-87.5 14h-121
q-13 0 -18.5 -5.5t-9.5 -23.5l-57 -249h131q44 0 66.5 8t33.5 23.5t25 53.5h30l-46 -209h-30q3 53 -11 69.5t-76 16.5h-131l-51 -219q-8 -35 -7 -50t12 -24q17 -13 112 -13q96 0 139 26t80 115h30l-51 -176h-522z" />
    <glyph glyph-name="uni04D7" unicode="&#x4d7;" horiz-adv-x="453" 
d="M286 646q0 27 11 52h24q-1 -10 1 -19.5t9 -21.5t27 -19.5t51 -7.5q88 0 125 68h26q-14 -61 -50.5 -95.5t-118.5 -34.5q-105 0 -105 78zM80 152q0 134 83 236q92 114 219 114q59 0 91.5 -29t32.5 -71q0 -54 -42 -96q-78 -72 -284 -114q-1 -7 -1 -16q0 -139 91 -139
q27 0 51.5 10.5t46.5 30t35.5 35t31.5 38.5l23 -20q-88 -143 -229 -143q-25 0 -48 6.5t-47.5 22.5t-39 50.5t-14.5 84.5zM182 226q119 25 174.5 74.5t55.5 107.5q0 26 -16 42.5t-42 16.5q-58 0 -108.5 -73.5t-63.5 -167.5z" />
    <glyph glyph-name="uni04D8" unicode="&#x4d8;" horiz-adv-x="704" 
d="M113 258q0 51 13.5 68.5t43.5 17.5h454q11 51 11 122q0 105 -49 156t-149 51q-31 0 -65.5 -14t-76.5 -57t-67 -108h-39l42 165q111 48 201 48q308 0 308 -293q0 -32 -7 -72t-22 -90t-43.5 -96t-66.5 -85t-97 -62.5t-129 -23.5q-132 0 -197 74.5t-65 198.5zM218 218
q0 -96 37.5 -147t110.5 -51q65 0 117.5 43t83.5 104.5t49 138.5h-356q-26 0 -34 -17t-8 -71z" />
    <glyph glyph-name="afii10846" unicode="&#x4d9;" horiz-adv-x="476" 
d="M60 103q0 81 75.5 128t261.5 77v6q0 139 -91 139q-90 0 -166 -89l-23 21q84 117 230 117q26 0 49 -6.5t47.5 -22.5t38.5 -50.5t14 -84.5q0 -135 -88 -242.5t-214 -107.5q-60 0 -97 33.5t-37 81.5zM154 97q0 -32 20.5 -53t47.5 -21q59 0 109 73.5t64 177.5
q-241 -45 -241 -177z" />
    <glyph glyph-name="uni04DA" unicode="&#x4da;" horiz-adv-x="704" 
d="M502 787q0 27 17 44t42 17q22 0 35 -14.5t13 -34.5q0 -26 -16 -43.5t-42 -17.5q-23 0 -36 13.5t-13 35.5zM294 787q0 27 17 44t42 17q22 0 35 -14.5t13 -34.5q0 -26 -16 -43.5t-42 -17.5q-23 0 -36 13.5t-13 35.5zM113 258q0 51 13.5 68.5t43.5 17.5h454q11 51 11 122
q0 105 -49 156t-149 51q-31 0 -65.5 -14t-76.5 -57t-67 -108h-39l42 165q111 48 201 48q308 0 308 -293q0 -32 -7 -72t-22 -90t-43.5 -96t-66.5 -85t-97 -62.5t-129 -23.5q-132 0 -197 74.5t-65 198.5zM218 218q0 -96 37.5 -147t110.5 -51q65 0 117.5 43t83.5 104.5
t49 138.5h-356q-26 0 -34 -17t-8 -71z" />
    <glyph glyph-name="uni04DB" unicode="&#x4db;" horiz-adv-x="476" 
d="M426 621q0 27 17 44t42 17q22 0 35 -14.5t13 -34.5q0 -26 -16 -43.5t-42 -17.5q-23 0 -36 13.5t-13 35.5zM218 621q0 27 17 44t42 17q22 0 35 -14.5t13 -34.5q0 -26 -16 -43.5t-42 -17.5q-23 0 -36 13.5t-13 35.5zM60 103q0 81 75.5 128t261.5 77v6q0 139 -91 139
q-90 0 -166 -89l-23 21q84 117 230 117q26 0 49 -6.5t47.5 -22.5t38.5 -50.5t14 -84.5q0 -135 -88 -242.5t-214 -107.5q-60 0 -97 33.5t-37 81.5zM154 97q0 -32 20.5 -53t47.5 -21q59 0 109 73.5t64 177.5q-241 -45 -241 -177z" />
    <glyph glyph-name="uni04DC" unicode="&#x4dc;" horiz-adv-x="1054" 
d="M754 787q0 27 17 44t42 17q22 0 35 -14.5t13 -34.5q0 -26 -16 -43.5t-42 -17.5q-23 0 -36 13.5t-13 35.5zM546 787q0 27 17 44t42 17q22 0 35 -14.5t13 -34.5q0 -26 -16 -43.5t-42 -17.5q-23 0 -36 13.5t-13 35.5zM36 -15l8 35q63 0 91.5 31t68.5 120q43 96 108 141.5
t158 55.5l1 3q-31 14 -50.5 57t-24 74t-4.5 53q0 117 -44 117q-19 0 -24.5 -6t-5.5 -20q0 -8 4.5 -27t4.5 -27q0 -46 -52 -46q-50 0 -50 67q0 15 4.5 29t15.5 30t36.5 25.5t62.5 9.5q56 0 75 -43t19 -127q0 -68 29.5 -112.5t87.5 -44.5h10l52 229q11 47 -22 50l-59 4l7 29
h274l-7 -29l-55 -5q-18 -1 -27 -13t-15 -36l-52 -229h9q47 0 102.5 46.5t85.5 110.5q41 87 75.5 128.5t79.5 41.5q54 0 80.5 -25.5t26.5 -62.5q0 -36 -13 -54.5t-46 -18.5q-17 0 -30 10.5t-13 25.5q0 16 6.5 37t6.5 36q0 17 -23 17q-18 0 -45.5 -35t-51.5 -89
q-34 -76 -75.5 -120t-78.5 -57l-1 -3q67 -1 117 -60.5t50 -136.5q0 -87 18.5 -119t85.5 -32l-8 -35h-56q-72 0 -105.5 32t-34.5 105q-1 39 -2 61t-5 51t-12.5 45.5t-22 32t-35 22.5t-51.5 7h-43l-59 -258q-11 -47 22 -50l59 -4l-6 -29h-274l6 29l55 6q18 1 27.5 12.5
t14.5 35.5l59 258h-44q-75 0 -123.5 -54.5t-96.5 -164.5q-32 -73 -79.5 -105t-120.5 -32h-56z" />
    <glyph glyph-name="uni04DD" unicode="&#x4dd;" horiz-adv-x="982" 
d="M680 621q0 27 17 44t42 17q22 0 35 -14.5t13 -34.5q0 -26 -16 -43.5t-42 -17.5q-23 0 -36 13.5t-13 35.5zM472 621q0 27 17 44t42 17q22 0 35 -14.5t13 -34.5q0 -26 -16 -43.5t-42 -17.5q-23 0 -36 13.5t-13 35.5zM50 64q0 25 17 40.5t44 15.5q13 0 21 -10.5t8 -24.5
q0 -24 1.5 -34.5t10 -19t27.5 -8.5q37 0 72 47.5t56 117t21 134.5q0 69 -12.5 100t-51.5 31q-63 0 -147 -114l-24 19q47 78 102.5 111t103.5 33q44 0 82.5 -45.5t38.5 -128.5q0 -26 -5 -58h89l53 220l92 12l-55 -232h88q29 97 95.5 164.5t148.5 67.5q44 0 77 -23.5t33 -52.5
q0 -25 -17 -40.5t-44 -15.5q-13 0 -21 10.5t-8 24.5q0 24 -1.5 34.5t-10 19t-27.5 8.5q-37 0 -72 -47.5t-56 -117t-21 -134.5q0 -69 12.5 -100t51.5 -31q63 0 147 114l24 -19q-47 -78 -102.5 -111t-103.5 -33q-44 0 -82.5 45.5t-38.5 128.5q0 35 8 73h-89l-56 -235l-92 -12
l59 247h-88q-26 -102 -94.5 -174.5t-153.5 -72.5q-44 0 -77 23.5t-33 52.5z" />
    <glyph glyph-name="uni04DE" unicode="&#x4de;" horiz-adv-x="576" 
d="M447 787q0 27 17 44t42 17q22 0 35 -14.5t13 -34.5q0 -26 -16 -43.5t-42 -17.5q-23 0 -36 13.5t-13 35.5zM239 787q0 27 17 44t42 17q22 0 35 -14.5t13 -34.5q0 -26 -16 -43.5t-42 -17.5q-23 0 -36 13.5t-13 35.5zM62 123q0 37 12 60t49 23q23 0 36.5 -14t13.5 -31
q0 -18 -5.5 -38.5t-5.5 -33.5q0 -29 29.5 -49t69.5 -20q85 0 144 56.5t59 139.5q0 64 -43 98.5t-118 34.5h-59l8 38h53q87 0 146.5 46.5t59.5 132.5q0 50 -40 78.5t-94 28.5q-75 0 -114.5 -34.5t-80.5 -142.5h-32l38 165q90 46 188 46t166.5 -41.5t68.5 -118.5
q0 -27 -7.5 -51t-26.5 -49.5t-58 -45t-95 -28.5l-1 -3q65 -14 106.5 -56.5t41.5 -107.5q0 -25 -6.5 -50.5t-27.5 -57.5t-55 -56t-94 -40.5t-139 -16.5q-65 0 -126 41.5t-61 96.5z" />
    <glyph glyph-name="uni04DF" unicode="&#x4df;" horiz-adv-x="447" 
d="M393 621q0 27 17 44t42 17q22 0 35 -14.5t13 -34.5q0 -26 -16 -43.5t-42 -17.5q-23 0 -36 13.5t-13 35.5zM185 621q0 27 17 44t42 17q22 0 35 -14.5t13 -34.5q0 -26 -16 -43.5t-42 -17.5q-23 0 -36 13.5t-13 35.5zM54 125q0 25 14.5 43t39.5 18q38 0 38 -34
q0 -6 -1 -17.5t-1 -16.5q0 -95 90 -95q49 0 81.5 41.5t32.5 90.5q0 43 -21.5 69.5t-62.5 26.5h-63l8 35h59q62 0 85 33.5t23 77.5q0 32 -24 51t-55 19q-84 0 -157 -100l-25 19q37 57 83.5 86.5t115.5 29.5q68 0 112 -28t44 -89q0 -77 -125 -109v-3q48 -13 74 -46.5t26 -77.5
q0 -67 -63 -114t-154 -47q-83 0 -128.5 39.5t-45.5 97.5z" />
    <glyph glyph-name="uni04E0" unicode="&#x4e0;" horiz-adv-x="550" 
d="M62 123q0 37 12 60t49 23q23 0 36.5 -14t13.5 -31q0 -18 -5.5 -38.5t-5.5 -33.5q0 -29 29.5 -49t70.5 -20q81 0 129 54t48 141q0 131 -93 131q-54 0 -85 -15l-19 32l5 15l268 235v3h-133q-92 0 -133 -22t-66 -95h-31l45 193h423l7 -17l-10 -19q-12 -24 -65 -70l-227 -197
l1 -2q14 6 52 6q88 0 128 -50t40 -136q0 -97 -73 -159.5t-224 -62.5q-65 0 -126 41.5t-61 96.5z" />
    <glyph glyph-name="uni04E1" unicode="&#x4e1;" horiz-adv-x="500" 
d="M9 -159q0 22 13 36t39 14q17 0 26 -15.5t12.5 -33.5t22 -33.5t51.5 -15.5q77 0 125.5 71.5t48.5 155.5q0 47 -23.5 77t-66.5 30q-49 0 -78 -14l-14 31l7 15l268 252v3h-190q-47 0 -66 -18t-43 -71l-25 11q15 48 37.5 93.5t36.5 60.5h339l10 -14l-10 -22q-12 -27 -60 -72
l-229 -212l2 -2q7 6 47 6q80 0 117.5 -46t37.5 -119q0 -116 -73 -183.5t-210 -67.5q-78 0 -115 23.5t-37 59.5z" />
    <glyph glyph-name="uni04E2" unicode="&#x4e2;" horiz-adv-x="781" 
d="M411 759l14 59h306l-14 -59h-306zM40 0l6 29l55 6q18 1 27.5 12.5t14.5 35.5l120 526q11 47 -22 50l-59 4l7 29h274l-7 -29l-55 -5q-18 -1 -27 -13t-15 -36l-95 -416l427 386q1 4 3 13.5t3 15.5t2.5 14.5t0.5 14t-3.5 11t-7.5 8t-13 3.5l-59 4l7 29h274l-7 -29l-55 -5
q-18 -1 -27 -13t-15 -36l-120 -526q-11 -47 22 -50l59 -4l-6 -29h-274l6 29l55 6q18 1 27.5 12.5t14.5 35.5l100 438l-427 -386l-12 -52q-11 -47 22 -50l59 -4l-6 -29h-274z" />
    <glyph glyph-name="uni04E3" unicode="&#x4e3;" horiz-adv-x="618" 
d="M299 597l18 59h278l-18 -59h-278zM126 450l6 24l182 28l5 -5l-96 -369q-23 -88 25 -88q57 0 116 72t98 162q29 68 71 216l89 12l-107 -408q-14 -54 13 -54q30 0 92 106l24 -15q-29 -61 -72.5 -102t-94.5 -41q-77 0 -46 108l33 114h-2q-48 -93 -120 -157.5t-141 -64.5
q-105 0 -67 145l69 264q7 23 4.5 35t-19.5 13z" />
    <glyph glyph-name="uni04E4" unicode="&#x4e4;" horiz-adv-x="781" 
d="M622 787q0 27 17 44t42 17q22 0 35 -14.5t13 -34.5q0 -26 -16 -43.5t-42 -17.5q-23 0 -36 13.5t-13 35.5zM414 787q0 27 17 44t42 17q22 0 35 -14.5t13 -34.5q0 -26 -16 -43.5t-42 -17.5q-23 0 -36 13.5t-13 35.5zM40 0l6 29l55 6q18 1 27.5 12.5t14.5 35.5l120 526
q11 47 -22 50l-59 4l7 29h274l-7 -29l-55 -5q-18 -1 -27 -13t-15 -36l-95 -416l427 386q1 4 3 13.5t3 15.5t2.5 14.5t0.5 14t-3.5 11t-7.5 8t-13 3.5l-59 4l7 29h274l-7 -29l-55 -5q-18 -1 -27 -13t-15 -36l-120 -526q-11 -47 22 -50l59 -4l-6 -29h-274l6 29l55 6
q18 1 27.5 12.5t14.5 35.5l100 438l-427 -386l-12 -52q-11 -47 22 -50l59 -4l-6 -29h-274z" />
    <glyph glyph-name="uni04E5" unicode="&#x4e5;" horiz-adv-x="618" 
d="M497 621q0 27 17 44t42 17q22 0 35 -14.5t13 -34.5q0 -26 -16 -43.5t-42 -17.5q-23 0 -36 13.5t-13 35.5zM289 621q0 27 17 44t42 17q22 0 35 -14.5t13 -34.5q0 -26 -16 -43.5t-42 -17.5q-23 0 -36 13.5t-13 35.5zM126 450l6 24l182 28l5 -5l-96 -369q-23 -88 25 -88
q57 0 116 72t98 162q29 68 71 216l89 12l-107 -408q-14 -54 13 -54q30 0 92 106l24 -15q-29 -61 -72.5 -102t-94.5 -41q-77 0 -46 108l33 114h-2q-48 -93 -120 -157.5t-141 -64.5q-105 0 -67 145l69 264q7 23 4.5 35t-19.5 13z" />
    <glyph glyph-name="uni04E6" unicode="&#x4e6;" horiz-adv-x="753" 
d="M593 787q0 27 17 44t42 17q22 0 35 -14.5t13 -34.5q0 -26 -16 -43.5t-42 -17.5q-23 0 -36 13.5t-13 35.5zM385 787q0 27 17 44t42 17q22 0 35 -14.5t13 -34.5q0 -26 -16 -43.5t-42 -17.5q-23 0 -36 13.5t-13 35.5zM114 270q0 136 69 253q111 184 317 184q131 0 210 -73
t79 -220q0 -125 -63 -239q-48 -87 -122.5 -138.5t-196.5 -51.5q-144 0 -218.5 78t-74.5 207zM219 230q0 -102 48 -156t131 -54q162 0 239 200q47 122 47 246q0 103 -47.5 154.5t-132.5 51.5q-142 0 -223 -168q-62 -131 -62 -274z" />
    <glyph glyph-name="uni04E7" unicode="&#x4e7;" horiz-adv-x="537" 
d="M460 621q0 27 17 44t42 17q22 0 35 -14.5t13 -34.5q0 -26 -16 -43.5t-42 -17.5q-23 0 -36 13.5t-13 35.5zM252 621q0 27 17 44t42 17q22 0 35 -14.5t13 -34.5q0 -26 -16 -43.5t-42 -17.5q-23 0 -36 13.5t-13 35.5zM84 169q0 30 7.5 68t28 86t52 87t85.5 65.5t121 26.5
q33 0 62.5 -8.5t57 -27t43.5 -54.5t16 -85q0 -112 -63 -211q-81 -128 -226 -128q-91 0 -137.5 49t-46.5 132zM181 129q0 -106 90 -106q39 0 72 28.5t54 70t36 90.5t21 87.5t6 62.5q0 105 -83 105q-47 0 -86 -37t-62 -92t-35.5 -110.5t-12.5 -98.5z" />
    <glyph glyph-name="uni04E8" unicode="&#x4e8;" horiz-adv-x="753" 
d="M114 270q0 82 26 159.5t73.5 139.5t122.5 100t164 38q131 0 210 -73t79 -220q0 -125 -63 -239q-48 -87 -122.5 -138.5t-196.5 -51.5q-144 0 -218.5 78t-74.5 207zM219 230q0 -102 48 -156t131 -54q162 0 239 200q23 60 35 121h-443q-10 -54 -10 -111zM237 379h441
q6 51 6 87q0 103 -47.5 154.5t-132.5 51.5q-72 0 -129 -46t-88 -108t-50 -139z" />
    <glyph glyph-name="uni04E9" unicode="&#x4e9;" horiz-adv-x="537" 
d="M84 169q0 30 7.5 68t28 86t52 87t85.5 65.5t121 26.5q33 0 62.5 -8.5t57 -27t43.5 -54.5t16 -85q0 -112 -63 -211q-81 -128 -226 -128q-91 0 -137.5 49t-46.5 132zM181 129q0 -106 90 -106q32 0 60 18.5t48 51t34.5 67.5t25.5 75h-244q-14 -62 -14 -106zM204 270h244
q12 58 12 92q0 105 -83 105q-60 0 -104 -57t-69 -140z" />
    <glyph glyph-name="uni04EA" unicode="&#x4ea;" horiz-adv-x="753" 
d="M570 787q0 27 17 44t42 17q22 0 35 -14.5t13 -34.5q0 -26 -16 -43.5t-42 -17.5q-23 0 -36 13.5t-13 35.5zM362 787q0 27 17 44t42 17q22 0 35 -14.5t13 -34.5q0 -26 -16 -43.5t-42 -17.5q-23 0 -36 13.5t-13 35.5zM114 270q0 82 26 159.5t73.5 139.5t122.5 100t164 38
q131 0 210 -73t79 -220q0 -125 -63 -239q-48 -87 -122.5 -138.5t-196.5 -51.5q-144 0 -218.5 78t-74.5 207zM219 230q0 -102 48 -156t131 -54q162 0 239 200q23 60 35 121h-443q-10 -54 -10 -111zM237 379h441q6 51 6 87q0 103 -47.5 154.5t-132.5 51.5q-72 0 -129 -46
t-88 -108t-50 -139z" />
    <glyph glyph-name="uni04EB" unicode="&#x4eb;" horiz-adv-x="537" 
d="M457 621q0 27 17 44t42 17q22 0 35 -14.5t13 -34.5q0 -26 -16 -43.5t-42 -17.5q-23 0 -36 13.5t-13 35.5zM249 621q0 27 17 44t42 17q22 0 35 -14.5t13 -34.5q0 -26 -16 -43.5t-42 -17.5q-23 0 -36 13.5t-13 35.5zM84 169q0 30 7.5 68t28 86t52 87t85.5 65.5t121 26.5
q33 0 62.5 -8.5t57 -27t43.5 -54.5t16 -85q0 -112 -63 -211q-81 -128 -226 -128q-91 0 -137.5 49t-46.5 132zM181 129q0 -106 90 -106q32 0 60 18.5t48 51t34.5 67.5t25.5 75h-244q-14 -62 -14 -106zM204 270h244q12 58 12 92q0 105 -83 105q-60 0 -104 -57t-69 -140z" />
    <glyph glyph-name="uni04EC" unicode="&#x4ec;" horiz-adv-x="603" 
d="M449 787q0 27 17 44t42 17q22 0 35 -14.5t13 -34.5q0 -26 -16 -43.5t-42 -17.5q-23 0 -36 13.5t-13 35.5zM241 787q0 27 17 44t42 17q22 0 35 -14.5t13 -34.5q0 -26 -16 -43.5t-42 -17.5q-23 0 -36 13.5t-13 35.5zM61 122q0 84 60 84q24 0 37.5 -12.5t13.5 -35.5
q0 -15 -5 -38t-5 -31q0 -27 27.5 -48t77.5 -21q68 0 123.5 52t86.5 122t46 151h-288l8 38h286q5 40 5 68q0 89 -45 155t-110 66q-64 0 -111.5 -36.5t-86.5 -139.5h-32l39 170q32 14 52.5 21t58 13.5t80.5 6.5q120 0 190 -85t70 -201q0 -74 -26.5 -162.5t-83.5 -153.5
q-52 -59 -113 -89.5t-161 -30.5q-34 0 -77 14t-80 47.5t-37 75.5z" />
    <glyph glyph-name="uni04ED" unicode="&#x4ed;" horiz-adv-x="451" 
d="M372 621q0 27 17 44t42 17q22 0 35 -14.5t13 -34.5q0 -26 -16 -43.5t-42 -17.5q-23 0 -36 13.5t-13 35.5zM164 621q0 27 17 44t42 17q22 0 35 -14.5t13 -34.5q0 -26 -16 -43.5t-42 -17.5q-23 0 -36 13.5t-13 35.5zM52 115q0 29 14 47t41 18q36 0 36 -40q0 -27 0.5 -40
t3.5 -31t9.5 -26t18.5 -14t30 -6q54 0 92.5 63t58.5 152h-186l8 35h185q10 51 10 87q0 57 -23 82t-69 25q-71 0 -141 -100l-25 19q36 55 77.5 85.5t100.5 30.5q178 0 178 -174q0 -34 -8.5 -76t-28.5 -89t-49.5 -85.5t-76.5 -64t-103 -25.5q-73 0 -113 38t-40 89z" />
    <glyph glyph-name="uni04EE" unicode="&#x4ee;" horiz-adv-x="672" 
d="M334 759l14 59h306l-14 -59h-306zM94 80q0 44 16 70t46 26q23 0 36 -12t13 -32q0 -15 -12 -40.5t-12 -34.5q0 -34 33 -34q26 0 59 18.5t50 47.5l7 12l-111 471q-2 10 -5.5 24.5t-4.5 20.5t-4 15t-5.5 12.5t-6.5 7.5t-9.5 5.5t-13.5 1.5l-40 4l7 29h252l-7 -29l-43 -5
q-26 -2 -26 -38q0 -38 35 -188l51 -220h1l146 228q36 56 71.5 123.5t35.5 80.5q0 11 -27 14l-48 5l6 29h221l-6 -29q-7 -1 -20.5 -3t-17.5 -3t-13 -3.5t-12 -5t-9.5 -7.5t-11.5 -12.5t-12 -17.5l-330 -523q-64 -100 -157 -100q-55 0 -88.5 29t-33.5 63z" />
    <glyph glyph-name="uni04EF" unicode="&#x4ef;" horiz-adv-x="468" 
d="M254 597l18 59h278l-18 -59h-278zM-5 -187q0 22 16 40.5t35 19.5q17 0 35 -24q23 -31 41 -31q15 0 32.5 19.5t31.5 51.5q24 58 24 124q0 116 -33 350q-6 41 -12.5 55t-22.5 13l-68 -2l-3 25l168 48l8 -4q26 -137 40 -437h3q122 210 141 278q15 54 13 138q37 25 78 25
q4 0 8 -6.5t7 -20t3 -29.5q0 -8 -3 -19.5t-11 -28t-15 -30t-20.5 -36.5t-21.5 -36.5t-25 -41t-24 -39.5q-28 -45 -57.5 -96t-55 -95t-29.5 -51q-33 -57 -48.5 -82.5t-38 -57.5t-39 -44.5t-38 -21.5t-46.5 -9q-32 0 -52.5 17t-20.5 38z" />
    <glyph glyph-name="uni04F0" unicode="&#x4f0;" horiz-adv-x="672" 
d="M545 787q0 27 17 44t42 17q22 0 35 -14.5t13 -34.5q0 -26 -16 -43.5t-42 -17.5q-23 0 -36 13.5t-13 35.5zM337 787q0 27 17 44t42 17q22 0 35 -14.5t13 -34.5q0 -26 -16 -43.5t-42 -17.5q-23 0 -36 13.5t-13 35.5zM94 80q0 44 16 70t46 26q23 0 36 -12t13 -32
q0 -15 -12 -40.5t-12 -34.5q0 -34 33 -34q26 0 59 18.5t50 47.5l7 12l-111 471q-2 10 -5.5 24.5t-4.5 20.5t-4 15t-5.5 12.5t-6.5 7.5t-9.5 5.5t-13.5 1.5l-40 4l7 29h252l-7 -29l-43 -5q-26 -2 -26 -38q0 -38 35 -188l51 -220h1l146 228q36 56 71.5 123.5t35.5 80.5
q0 11 -27 14l-48 5l6 29h221l-6 -29q-7 -1 -20.5 -3t-17.5 -3t-13 -3.5t-12 -5t-9.5 -7.5t-11.5 -12.5t-12 -17.5l-330 -523q-64 -100 -157 -100q-55 0 -88.5 29t-33.5 63z" />
    <glyph glyph-name="uni04F1" unicode="&#x4f1;" horiz-adv-x="468" 
d="M452 621q0 27 17 44t42 17q22 0 35 -14.5t13 -34.5q0 -26 -16 -43.5t-42 -17.5q-23 0 -36 13.5t-13 35.5zM244 621q0 27 17 44t42 17q22 0 35 -14.5t13 -34.5q0 -26 -16 -43.5t-42 -17.5q-23 0 -36 13.5t-13 35.5zM-5 -187q0 22 16 40.5t35 19.5q17 0 35 -24
q23 -31 41 -31q15 0 32.5 19.5t31.5 51.5q24 58 24 124q0 116 -33 350q-6 41 -12.5 55t-22.5 13l-68 -2l-3 25l168 48l8 -4q26 -137 40 -437h3q122 210 141 278q15 54 13 138q37 25 78 25q4 0 8 -6.5t7 -20t3 -29.5q0 -8 -3 -19.5t-11 -28t-15 -30t-20.5 -36.5t-21.5 -36.5
t-25 -41t-24 -39.5q-28 -45 -57.5 -96t-55 -95t-29.5 -51q-33 -57 -48.5 -82.5t-38 -57.5t-39 -44.5t-38 -21.5t-46.5 -9q-32 0 -52.5 17t-20.5 38z" />
    <glyph glyph-name="uni04F2" unicode="&#x4f2;" horiz-adv-x="672" 
d="M546 766l70 89q31 39 53 39q15 0 29.5 -16t14.5 -32q0 -12 -9.5 -21t-37.5 -25l-101 -56zM376 766l70 89q31 39 53 39q15 0 29.5 -16t14.5 -32q0 -12 -9.5 -21t-37.5 -25l-101 -56zM94 80q0 44 16 70t46 26q23 0 36 -12t13 -32q0 -15 -12 -40.5t-12 -34.5q0 -34 33 -34
q26 0 59 18.5t50 47.5l7 12l-111 471q-2 10 -5.5 24.5t-4.5 20.5t-4 15t-5.5 12.5t-6.5 7.5t-9.5 5.5t-13.5 1.5l-40 4l7 29h252l-7 -29l-43 -5q-26 -2 -26 -38q0 -38 35 -188l51 -220h1l146 228q36 56 71.5 123.5t35.5 80.5q0 11 -27 14l-48 5l6 29h221l-6 -29
q-7 -1 -20.5 -3t-17.5 -3t-13 -3.5t-12 -5t-9.5 -7.5t-11.5 -12.5t-12 -17.5l-330 -523q-64 -100 -157 -100q-55 0 -88.5 29t-33.5 63z" />
    <glyph glyph-name="uni04F3" unicode="&#x4f3;" horiz-adv-x="468" 
d="M290 559l46 144q8 24 16.5 35.5t24.5 11.5q20 0 35 -11t15 -27q0 -21 -31 -62l-82 -104zM432 559l46 144q8 24 16.5 35.5t24.5 11.5q20 0 35 -11t15 -27q0 -21 -31 -62l-82 -104zM-5 -187q0 22 16 40.5t35 19.5q17 0 35 -24q23 -31 41 -31q15 0 32.5 19.5t31.5 51.5
q24 58 24 124q0 116 -33 350q-6 41 -12.5 55t-22.5 13l-68 -2l-3 25l168 48l8 -4q26 -137 40 -437h3q122 210 141 278q15 54 13 138q37 25 78 25q4 0 8 -6.5t7 -20t3 -29.5q0 -8 -3 -19.5t-11 -28t-15 -30t-20.5 -36.5t-21.5 -36.5t-25 -41t-24 -39.5q-28 -45 -57.5 -96
t-55 -95t-29.5 -51q-33 -57 -48.5 -82.5t-38 -57.5t-39 -44.5t-38 -21.5t-46.5 -9q-32 0 -52.5 17t-20.5 38z" />
    <glyph glyph-name="uni04F4" unicode="&#x4f4;" horiz-adv-x="727" 
d="M592 787q0 27 17 44t42 17q22 0 35 -14.5t13 -34.5q0 -26 -16 -43.5t-42 -17.5q-23 0 -36 13.5t-13 35.5zM384 787q0 27 17 44t42 17q22 0 35 -14.5t13 -34.5q0 -26 -16 -43.5t-42 -17.5q-23 0 -36 13.5t-13 35.5zM176 663l7 29h264l-7 -30l-45 -4q-18 -1 -27 -12.5
t-15 -36.5l-38 -156q-32 -134 76 -134q55 0 102 8q27 4 63 28.5t42 51.5l46 202q11 49 -22 50l-49 3l7 30h264l-7 -29l-55 -5q-18 -1 -27 -13t-15 -36l-120 -526q-11 -47 22 -50l59 -4l-6 -29h-279l6 29l60 5q18 1 27.5 12.5t14.5 36.5l58 251h-2q-114 -77 -238 -77
q-57 0 -89 33.5t-35 84t9 108.5l30 126q11 47 -22 50z" />
    <glyph glyph-name="uni04F5" unicode="&#x4f5;" horiz-adv-x="585" 
d="M488 621q0 27 17 44t42 17q22 0 35 -14.5t13 -34.5q0 -26 -16 -43.5t-42 -17.5q-23 0 -36 13.5t-13 35.5zM280 621q0 27 17 44t42 17q22 0 35 -14.5t13 -34.5q0 -26 -16 -43.5t-42 -17.5q-23 0 -36 13.5t-13 35.5zM119 450l6 24l182 28l5 -5l-53 -207q-13 -44 -6 -66
t36 -22q40 0 83 36t78 112q8 16 18.5 51t17.5 62l6 27l89 12l-106 -407q-15 -55 13 -55q19 0 45 35t45 71l24 -14q-28 -63 -69.5 -103.5t-92.5 -40.5q-40 0 -53.5 27t-0.5 71l53 186h-2q-55 -65 -95 -93.5t-95 -28.5q-37 0 -58 27.5t-21.5 64.5t7.5 74l23 81q7 23 4.5 35
t-19.5 13z" />
    <glyph glyph-name="uni04F6" unicode="&#x4f6;" horiz-adv-x="547" 
d="M38 0l6 29l56 5q17 1 26.5 12t14.5 34l120 532q10 42 -22 45l-59 6l6 29h503l-39 -171h-30q5 45 1 75t-32.5 45.5t-87.5 15.5h-111q-14 0 -19.5 -5.5t-9.5 -24.5l-124 -547q-10 -43 23 -46l75 -5h9l-46 -219h-31q7 61 7 89q0 59 -35.5 80t-143.5 21h-57z" />
    <glyph glyph-name="uni04F7" unicode="&#x4f7;" horiz-adv-x="423" 
d="M80 89q0 37 12.5 64.5t37 47.5t49 34t61 34t61.5 39q37 28 37 93q0 31 -18 48.5t-45 17.5q-31 0 -58.5 -17.5t-72.5 -56.5l-21 19q57 55 92.5 72.5t79.5 17.5q67 0 94.5 -28.5t27.5 -61.5q0 -42 -15.5 -68.5t-36 -38t-63.5 -35.5t-77 -50t-44.5 -56.5t-10.5 -72.5
q0 -18 3.5 -31t21 -25t49.5 -12q43 0 77.5 27t88.5 91l19 -19q-38 -48 -63 -73q-27 -35 -27 -73q0 -16 4.5 -43.5t4.5 -45.5q0 -38 -35.5 -61t-104.5 -41l-7 25q48 19 65.5 36.5t17.5 41.5q0 5 -1 18.5t-1 19.5q0 24 19 46t19 32q0 8 -8 4q-37 -20 -83 -20q-69 0 -109 29
t-40 72z" />
    <glyph glyph-name="uni04F8" unicode="&#x4f8;" horiz-adv-x="926" 
d="M694 787q0 27 17 44t42 17q22 0 35 -14.5t13 -34.5q0 -26 -16 -43.5t-42 -17.5q-23 0 -36 13.5t-13 35.5zM486 787q0 27 17 44t42 17q22 0 35 -14.5t13 -34.5q0 -26 -16 -43.5t-42 -17.5q-23 0 -36 13.5t-13 35.5zM620 0l6 29l55 6q18 1 27.5 12.5t14.5 35.5l120 526
q11 47 -22 50l-59 4l7 29h274l-7 -29l-55 -5q-18 -1 -27 -13t-15 -36l-120 -526q-11 -47 22 -50l59 -4l-6 -29h-274zM40 0l6 29l55 6q18 1 27.5 12.5t14.5 35.5l120 526q11 47 -22 50l-59 4l7 29h279l-7 -29l-60 -4q-18 -1 -27 -13t-15 -37l-52 -229q34 10 109 10
q94 0 155.5 -48.5t61.5 -124.5q0 -23 -3.5 -45t-20.5 -55.5t-46 -57t-86.5 -41.5t-136.5 -18h-300zM243 99q-8 -34 9 -49t85 -15q54 0 94 19.5t59 49.5t27 56.5t8 51.5q0 61 -37.5 102t-101.5 41q-55 0 -88 -13z" />
    <glyph glyph-name="uni04F9" unicode="&#x4f9;" horiz-adv-x="812" 
d="M588 621q0 27 17 44t42 17q22 0 35 -14.5t13 -34.5q0 -26 -16 -43.5t-42 -17.5q-23 0 -36 13.5t-13 35.5zM380 621q0 27 17 44t42 17q22 0 35 -14.5t13 -34.5q0 -26 -16 -43.5t-42 -17.5q-23 0 -36 13.5t-13 35.5zM615 86l104 404l89 12l-103 -407q-15 -55 10 -55
q19 0 45 35t45 71l24 -14q-28 -63 -69.5 -103.5t-92.5 -40.5q-39 0 -51.5 26.5t-0.5 71.5zM126 450l6 24l182 28l5 -5l-72 -248h2q57 65 132 65q167 0 167 -137q0 -72 -71.5 -130.5t-194.5 -58.5q-92 0 -129 62.5t-13 139.5l63 207q8 23 5 35t-20 13zM229 185
q-7 -26 -8.5 -50.5t3 -51.5t26 -43.5t58.5 -16.5q17 0 39.5 8.5t46.5 27t40.5 54t16.5 81.5q0 38 -24 61.5t-67 23.5q-35 0 -72 -24t-59 -70z" />
    <glyph glyph-name="ghe.ital" horiz-adv-x="461" 
d="M106 -12l104 436q8 32 -22 36l-58 10l5 20h417l-35 -153h-29q9 68 -12 93t-95 25q-47 0 -62.5 -8.5t-24.5 -44.5l-96 -402z" />
    <glyph glyph-name="de.ital" horiz-adv-x="559" 
d="M73 107q0 43 12 93.5t40 104.5t67 97.5t99.5 71.5t131.5 28q59 0 98 -22l43 45h38l-112 -469q-39 -134 -112 -222q-23 -28 -80 -52.5t-111 -24.5q-78 0 -115 23.5t-37 59.5q0 22 13 36t39 14q17 0 26 -15.5t12.5 -33.5t22 -33.5t51.5 -15.5q46 0 87 33t59 66q13 26 32 87
t31 118l22 94h-3q-55 -92 -125.5 -147t-133.5 -55q-41 0 -68 29t-27 90zM172 123q0 -83 48 -83q27 0 64 26.5t77 74.5t76.5 128.5t56.5 176.5q-29 21 -70 21q-58 0 -108.5 -39.5t-80.5 -96.5t-46.5 -112.5t-16.5 -95.5z" />
    <glyph glyph-name="pe.ital" horiz-adv-x="618" 
d="M245 565l8 35h390l-8 -35h-390zM126 450l6 24l182 28l5 -5l-96 -369q-23 -88 25 -88q57 0 116 72t98 162q29 68 71 216l89 12l-107 -408q-14 -54 13 -54q30 0 92 106l24 -15q-29 -61 -72.5 -102t-94.5 -41q-77 0 -46 108l33 114h-2q-48 -93 -120 -157.5t-141 -64.5
q-105 0 -67 145l69 264q7 23 4.5 35t-19.5 13z" />
    <glyph glyph-name="te.ital" horiz-adv-x="919" 
d="M244 565l8 35h690l-8 -35h-690zM126 450l6 24l182 28l5 -5l-102 -387q-8 -33 0.5 -51.5t33.5 -18.5q39 0 83.5 41t76 90t52.5 98q25 58 71 221l87 12l-100 -378q-22 -84 30 -84q56 0 120 79t95 158q19 49 66 213l87 12l-103 -408q-14 -54 13 -54q30 0 92 106l24 -15
q-29 -61 -72.5 -102t-94.5 -41q-77 0 -46 108l30 104h-3q-53 -97 -120 -154.5t-134 -57.5q-52 0 -67.5 38.5t7.5 110.5l20 63h-4q-55 -99 -121 -155.5t-132 -56.5q-59 0 -76 42.5t2 102.5l69 264q7 23 4.5 35t-19.5 13z" />
    <glyph glyph-name="f.alt" horiz-adv-x="315" 
d="M112 452l11 38h87l10 37q11 44 26 78.5t38.5 67.5t59 51t81.5 18q45 0 79.5 -23t34.5 -55q0 -18 -16.5 -31t-32.5 -13q-18 0 -27 17q-17 37 -32 53.5t-35 16.5q-21 0 -36.5 -24t-29.5 -80l-28 -113h130l-10 -38h-126l-150 -674l-96 -20l153 694h-91z" />
    </font>
</defs>
</svg>
